<?xml version="1.0" encoding="utf-8"?>
<!-- Generator: Adobe Illustrator 22.0.1, SVG Export Plug-In . SVG Version: 6.00 Build 0)  -->
<svg version="1.1" id="Calque_1" xmlns="http://www.w3.org/2000/svg" xmlns:xlink="http://www.w3.org/1999/xlink" x="0px" y="0px"
	 viewBox="0 0 640 480" style="enable-background:new 0 0 640 480;" xml:space="preserve">
<style type="text/css">
	.st0{fill:#FFFFFF;stroke:#1D1D1B;stroke-width:10;stroke-miterlimit:10;}
	.st1{fill:#E31D1A;stroke:#1D1D1B;stroke-width:3;stroke-miterlimit:10;}
	.st2{fill:#E31F1E;stroke:#1D1D1B;stroke-width:2;stroke-miterlimit:10;}
	.st3{fill:#FFFFFF;stroke:#1D1D1B;stroke-width:5;stroke-miterlimit:10;}
	.st4{fill:#1D1D1B;}
	.st5{fill:#44A5A5;}
	.st6{fill:#FDFDFC;}
</style>
<g>
	<circle class="st0" cx="279.7" cy="247.9" r="171.1"/>
	<path class="st1" d="M282.3,241.2L282.3,241.2L152.2,370.5l-32.6-17l107.9-107.2C239.7,234.1,264.3,231.8,282.3,241.2z"/>
	<path class="st1" d="M541.7,231.9L541.7,231.9L419.4,359.6l-30.8-14.9L490,238.9C501.5,226.9,524.7,223.7,541.7,231.9z"/>
	<path class="st2" d="M146.3,122.7c-4.8-16.8,36.9-43.4,93.3-59.5"/>
	<path class="st2" d="M400.7,105.9c2.5-16.2-39.3-36.2-93.5-44.7"/>
	<polygon class="st2" points="332.3,189 312.9,180.7 301.6,206.9 275.4,195.6 267.1,215 293.3,226.3 282,252.5 301.4,260.9 
		312.7,234.6 338.9,245.9 347.2,226.5 321,215.2 	"/>
	<g>
		<g>
			<circle class="st3" cx="241.1" cy="153.3" r="40.4"/>
			<circle class="st4" cx="252.7" cy="148.9" r="28.3"/>
			<circle class="st5" cx="261.1" cy="139.4" r="12.8"/>
			<ellipse class="st6" cx="235.5" cy="129.7" rx="6.3" ry="9.2"/>
		</g>
		<g>
			<circle class="st3" cx="358.8" cy="148.3" r="40.4"/>
			<circle class="st4" cx="370.2" cy="138.9" r="28.3"/>
			<circle class="st5" cx="380" cy="130" r="12.8"/>
			<ellipse class="st6" cx="353.3" cy="124.7" rx="6.3" ry="9.2"/>
		</g>
	</g>
</g>
</svg>
