<?xml version="1.0" encoding="utf-8"?>
<!-- Generator: Adobe Illustrator 22.0.1, SVG Export Plug-In . SVG Version: 6.00 Build 0)  -->
<svg version="1.1" id="Calque_1" xmlns="http://www.w3.org/2000/svg" xmlns:xlink="http://www.w3.org/1999/xlink" x="0px" y="0px"
	 viewBox="0 0 841.9 595.3" style="enable-background:new 0 0 841.9 595.3;" xml:space="preserve">
<style type="text/css">
	.st0{fill:#44A5A5;stroke:#E41D1A;stroke-width:2;stroke-miterlimit:10;}
	.st1{fill:#44A5A5;}
	.st2{fill:#E41F1E;}
	.st3{fill:#E41F1E;stroke:#E41D1A;stroke-width:2;stroke-miterlimit:10;}
	.st4{fill:#44A5A5;stroke:#E41D1A;stroke-width:3;stroke-miterlimit:10;}
	.st5{fill:#E41D1A;}
	.st6{fill:#E41D1A;stroke:#E41D1A;stroke-width:2;stroke-miterlimit:10;}
	.st7{fill:#FFFFFF;stroke:#000000;stroke-width:10;stroke-miterlimit:10;}
	.st8{fill:#E41D1A;stroke:#000000;stroke-width:3;stroke-miterlimit:10;}
	.st9{fill:#E41F1E;stroke:#000000;stroke-width:2;stroke-miterlimit:10;}
	.st10{fill:#FFFFFF;stroke:#000000;stroke-width:5;stroke-miterlimit:10;}
	.st11{fill:#FDFDFD;}
</style>
<g>
	<path class="st0" d="M376,17.8c0.1,0.9,0.2,1.9,0.1,3.1l-0.1,0.2c0,1.3,0,2.1-0.1,2.4c-0.1,0.3-0.3,1.1-0.7,2.4
		c-0.2,0.9-0.5,1.9-0.8,3c-0.3,1.1-0.7,2.1-0.9,3.1c-0.3,0.9-0.5,1.9-0.6,3c-0.1,1-0.3,1.1-0.5,0.2c-0.5,2.5-1.4,5.4-2.5,8.7
		c-1.2,3.3-2.4,6.3-3.6,9c2.2-0.4,4.4-0.7,6.7-1c2.3-0.3,4.5-0.2,6.5,0.2c2.1,0.4,4,1.2,5.8,2.5s3.4,3.1,4.7,5.5
		c0.2,0.4,0.5,1,0.7,1.9s0.5,1.8,0.7,2.7c0.2,0.9,0.4,1.8,0.5,2.6c0.1,0.8,0.1,1.3,0.1,1.4c-0.3,0.9-0.7,2.2-1.1,3.9
		c-0.5,1.6-1,3.2-1.5,4.8c-0.5,1.6-1,3.1-1.5,4.5c-0.4,1.4-0.7,2.4-0.9,2.8l0.1-0.2c-0.6,1.5-1.7,3.5-3.3,5.8
		c-1.5,2.3-3.1,4.5-4.8,6.6s-3.2,3.8-4.7,5.2c-1.4,1.4-2.5,2-3.1,1.8l-16.6-5.7c-1.1-0.9-1.8-1.4-2.1-1.8c-0.3-0.3-0.7-0.9-1.1-1.7
		c-0.9-1.8-1.1-3.8-0.4-6.1c0.7-2.3,1.7-4.7,3-7.2l-10.8,1.7c-0.5-0.1-1.1-0.4-1.7-0.9c-0.7-0.4-1.4-0.9-2.2-1.3
		c-0.8-0.5-1.5-0.9-2.3-1.5c-0.7-0.5-1.3-1-1.6-1.3l-0.9-1.7c-0.5-0.9-0.6-2.9-0.4-5.9c0.2-3,0.7-6.6,1.5-10.7
		c0.7-4.1,1.7-8.4,2.8-12.9c1.1-4.5,2.2-8.8,3.4-12.7c1.2-3.9,2.3-7.2,3.5-9.9c1.1-2.7,2.1-4.3,2.9-4.7l3.9-2c1.9-1,4-1.9,6.3-2.8
		c2.4-0.9,4.6-1.6,6.8-2c2.2-0.4,4.1-0.5,5.9-0.3c1.8,0.2,3.1,1.1,3.8,2.5C375.5,16.1,375.8,17,376,17.8z M370.2,14.3
		c-1.5-0.1-3.3,0-5.3,0.5c-2,0.5-4,1.1-6.1,2.1c-2.1,0.9-4,1.8-5.6,2.7l-3.9,2c-0.7,0.4-1.6,1.9-2.7,4.5c-1.1,2.6-2.2,5.8-3.3,9.5
		c-1.1,3.7-2.2,7.7-3.3,12c-1,4.3-1.9,8.4-2.6,12.3c-0.7,3.9-1.2,7.3-1.4,10.2c-0.2,3-0.1,4.8,0.3,5.7l0.8,1.5
		c0.5,0.5,1.5,1.2,2.9,2.2c1.4,1,2.5,1.6,3.3,1.8l14.7-2.4c-1.8,2.8-3.3,5.6-4.6,8.4c-1.2,2.8-1.4,5-0.5,6.8c0.3,0.6,0.6,1,0.7,1.2
		c0.2,0.2,0.7,0.6,1.5,1.2l16.5,5.7c0.5,0.1,1.3-0.5,2.5-1.8c1.2-1.4,2.5-3,3.9-4.9c1.4-1.9,2.8-4,4.1-6.1c1.3-2.1,2.2-4,2.8-5.4
		c0.2-0.5,0.6-1.5,1.1-2.9c0.5-1.4,1-2.9,1.5-4.6c0.5-1.7,1-3.2,1.3-4.8c0.4-1.5,0.7-2.7,0.9-3.6c0-0.2,0-0.6-0.1-1.3
		c-0.1-0.7-0.2-1.4-0.4-2.1c-0.2-0.7-0.4-1.4-0.6-2.1c-0.2-0.7-0.4-1.2-0.7-1.6c-1.3-2.5-2.9-4.2-4.8-5.3c-1.9-1.1-3.9-1.7-6.1-1.9
		c-2.2-0.2-4.5-0.1-6.9,0.3c-2.4,0.4-4.6,0.8-6.7,1.3c-0.3,0-0.5,0.1-0.7,0.2c-0.1,0.1-0.2,0.1-0.4,0c0.2-0.4,0.5-0.8,0.8-1.4
		c0.3-0.6,0.6-1.2,0.8-2c1.1-2.8,2.3-5.8,3.6-8.8c1.3-3.1,2.1-5.6,2.5-7.6l1-4.1c0.3-1.1,0.7-2.2,1-3.2c0.3-1,0.6-2,0.8-2.9
		c0.4-1.4,0.7-2.3,0.7-2.6c0-0.3,0.1-1,0.2-2.1l-0.1,0.6c0.1-0.3,0.1-0.5,0.1-0.6c-0.1-0.1-0.1-0.2,0-0.4c0.2-1.7-0.1-3.1-0.7-4.4
		C372.8,15,371.8,14.5,370.2,14.3z M369.8,19.9c-0.1,1.1-0.1,1.8-0.1,2c0,0.3-0.2,1.1-0.7,2.4c-0.3,0.9-0.6,2-0.9,3.3
		c-0.3,1.2-0.7,2.4-1,3.5c-0.3,1.1-0.6,2.1-0.8,2.9c-0.2,0.8-0.3,1.4-0.2,1.6c-0.2,1.3-0.8,3.2-1.8,5.5c-1,2.4-2,4.8-3,7.2
		c-1,2.4-2,4.5-2.8,6.4c-0.8,1.9-1.1,2.9-1,3.1l1.6,2.9c1.9-0.2,4.1-0.6,6.6-1.1c2.5-0.5,5-0.9,7.4-1.1c2.4-0.2,4.7-0.1,6.9,0.4
		c2.1,0.5,3.8,1.9,4.9,4c0.3,0.5,0.6,1.2,0.9,2.2c0.4,0.9,0.5,1.4,0.4,1.5c0,0.3-0.2,1.1-0.6,2.5c-0.4,1.4-0.8,3-1.4,4.7
		c-0.5,1.7-1.1,3.4-1.6,5c-0.5,1.6-0.9,2.7-1.2,3.2c-0.5,1.3-1.2,2.9-2,4.6c-0.8,1.8-1.7,3.5-2.6,5.2c-0.9,1.7-1.7,3.2-2.3,4.4
		c-0.7,1.2-1.1,1.8-1.3,1.8l-15.7-5.4L357,92c-0.4-0.7-0.1-2,0.9-3.8c0.9-1.8,2.1-3.8,3.4-5.8c1.3-2.1,2.5-4,3.8-5.8
		c1.2-1.8,2-3.1,2.2-3.8l-23.8,4.1c-0.2,0-0.6-0.4-1.3-0.9c-0.7-0.6-1.3-1-1.8-1.4l-0.3-0.6c-0.4-0.8-0.5-2.5-0.3-5.1
		c0.2-2.6,0.6-5.6,1.2-9.1c0.6-3.5,1.4-7.2,2.3-11s1.9-7.5,2.8-10.8c0.9-3.3,1.9-6.1,2.8-8.4c0.9-2.3,1.7-3.6,2.5-4l3.9-2
		c1.3-0.7,2.8-1.4,4.4-2.2c1.6-0.8,3.1-1.4,4.5-2c1.4-0.6,2.6-1,3.6-1.2c1-0.3,1.6-0.2,1.7,0.1C369.7,18.5,369.8,19.1,369.8,19.9z
		 M390.3,67.7c0-0.2,0-0.3,0-0.4c-0.1-0.1-0.1-0.2,0-0.4L390.3,67.7z M392.3,67.6c0,0.1,0,0.4-0.1,0.7l0.2-1.1
		C392.4,67.3,392.3,67.4,392.3,67.6z"/>
	<path class="st0" d="M476.4,12.2c2.4-2,3.4-3.3,3.1-3.8c-0.2-0.3-3,0.9-8.4,3.6C473.4,12.6,475.2,12.6,476.4,12.2z"/>
	<path class="st0" d="M451.2,26.5c2,3.8,5.2,6.4,9.6,7.8c4.4,1.4,9.1,1.9,14.2,1.7c5-0.2,9.9-1,14.7-2.3c4.8-1.3,8.6-2.7,11.5-4.2
		c1.6-0.9,2.6-3,2.9-6.5c0.3-3.4,0.3-7.3-0.1-11.4c-0.3-4-0.8-8-1.4-11.8H449c-1.1,4.1-1.7,8.3-1.6,12.6
		C447.5,17.2,448.7,21.9,451.2,26.5z M480,5.5c3.3-0.9,5.6-0.9,6.9-0.1c1.3,0.8,1.6,2.2,1,4.2c-0.7,2-2.1,4-4.3,6.1
		c-0.9,0.5-2.2,0.8-3.7,0.8c-1.6,0-3.2-0.1-4.9-0.4c-1.7-0.3-3.3-0.8-4.8-1.5c-1.5-0.7-2.7-1.6-3.7-2.7C472.2,8.5,476.7,6.4,480,5.5
		z"/>
	<path class="st0" d="M508.9-0.2H507c0.4,2.8,0.8,5.8,1.2,9.1c0.4,3.6,0.6,7,0.6,10.3c-0.1,3.3-0.5,6.2-1.3,8.8
		c-0.8,2.6-2.2,4.4-4.1,5.5c-2.1,1.1-4.7,2.1-7.8,3.2c-3.2,1-6.5,1.8-10.2,2.5c-3.6,0.7-7.3,1-11.1,1.1c-3.8,0.1-7.4-0.2-10.9-1
		c-3.5-0.7-6.6-2-9.4-3.7c-2.8-1.7-4.9-4.1-6.5-7.1c-2.7-5.2-4.2-10.4-4.4-15.6c-0.2-4.4,0.3-8.8,1.3-13.1h-2.1
		c-1,4.3-1.4,8.8-1.2,13.3c0.2,5.5,1.7,10.9,4.6,16.3c1.7,3.2,4,5.7,6.9,7.5c2.9,1.8,6.2,3.1,9.8,4c3.6,0.9,7.4,1.3,11.4,1.2
		c4-0.1,7.9-0.4,11.7-1c3.8-0.6,7.4-1.5,10.6-2.5c3.3-1.1,6-2.2,8.1-3.3c2.3-1.2,3.9-3.2,4.8-5.9c0.9-2.7,1.4-5.8,1.5-9.3
		c0.1-3.5-0.1-7.1-0.5-10.8C509.8,5.9,509.4,2.8,508.9-0.2z"/>
	<path class="st0" d="M504.8,94.2c0.6-2.4,1.8-4.1,3.8-5.2c0.1-0.1,0.4-0.2,1-0.4c0.5-0.2,0.9-0.4,1-0.4l0.2,0.1L515,86l7.6-3.6
		c2.6,2.2,4.3,3.9,5.1,5c0.8,1.2,1.4,2.1,1.9,3c0.4,0.8,0.8,1.5,1,2.1c0.2,0.6,0.4,1.1,0.5,1.6l0.2,2.7c4.6,1.8,9,4.3,13.1,7.5
		c4.1,3.2,7.1,6.7,9,10.3c2.3,4.4,3.9,9.3,4.7,14.7c0.8,5.3,0.7,10.6-0.3,15.7c-1,5.1-2.8,9.9-5.5,14.2c-2.7,4.3-6.2,7.6-10.7,10
		c-0.7,0.4-1.4,0.7-2.1,1c-0.6,0.3-1.4,0.6-2.1,0.8l-0.1,1l0.1-0.2c0.4,2,0.3,3.8-0.2,5.4c-0.5,1.6-1.4,3.1-2.4,4.4
		c-1.1,1.3-2.4,2.5-3.8,3.5c-1.4,1-2.8,1.9-4.2,2.6l-11.8,6.2l-2.4-21.3c-6.7-1.4-12.1-4.4-16.3-9l0.6,0.3c-0.6-0.7-1.5-1.6-2.5-2.6
		c-1-1-1.9-2.2-2.6-3.6c-0.8-1.4-1.5-2.8-2.1-4.2c-0.7-1.4-1.2-2.5-1.5-3.4c-2.5-4.6-4-8.7-4.6-12.2c-0.6-3.5-0.5-6.8,0.3-9.9
		c0.8-3.1,2.2-6.3,4.1-9.4c2-3.1,4.3-6.6,6.9-10.4l-0.1,1.6c0.9-1.8,2.2-3.5,3.8-5.1c1.6-1.6,3.2-2.9,4.9-4.1l1.2-0.7l-0.4-3.4
		L504.8,94.2z M506.6,96.4l0.3,4.8l-2,1.1c-1.6,1.1-3.3,2.4-4.8,3.9c-1.6,1.5-2.7,3-3.3,4.5l0.1-1.3c-2.6,3.6-4.8,6.9-6.7,9.9
		c-1.9,3-3.2,5.9-3.9,8.9c-0.7,3-0.8,6.2-0.3,9.6c0.5,3.4,2,7.3,4.3,11.8c0.3,0.8,0.8,1.8,1.5,3.2c0.7,1.2,1.3,2.5,2,3.9
		c0.8,1.4,1.6,2.7,2.6,3.9c1,1.1,1.7,1.9,2.2,2.3l-0.6-0.7c1.9,2.4,4.4,4.3,7.3,5.7c2.9,1.4,6,2.3,9.3,2.8l2.1,20.1l9.1-4.8
		c1.2-0.7,2.5-1.4,3.9-2.4c1.4-0.9,2.5-2,3.6-3.2c1-1.2,1.7-2.5,2.1-4c0.4-1.5,0.4-3.1-0.1-4.8l-0.1-2.1c1.1-0.3,2.1-0.7,3-1
		c0.8-0.3,1.7-0.7,2.5-1.1c4.2-2.2,7.6-5.4,10.1-9.5c2.5-4.1,4.2-8.6,5.1-13.4c0.9-4.8,0.9-9.8,0.2-14.8c-0.8-5.1-2.3-9.7-4.5-14
		c-1.9-3.6-4.9-7-9.1-10.2c-4.1-3.2-8.5-5.6-13.2-7.1l-0.2-3.3c-0.2-0.6-0.4-1.2-0.5-1.8c-0.2-0.6-0.5-1.2-0.8-1.9
		c-0.4-0.8-1-1.8-1.7-2.8c-0.7-1-1.9-2.3-3.7-3.7l-6.5,3l-4.5,2.4l-0.2-0.1c-0.2,0.1-0.5,0.2-0.9,0.4c-0.4,0.1-0.6,0.2-0.7,0.3
		c-1.3,0.7-2.3,2-2.9,3.9L506.6,96.4z M511.7,94.9c0.2-0.1,0.5-0.2,0.8-0.2c0.3,0,0.7-0.2,1.1-0.4l4.5-2.4l3.8-1.8
		c0.5,0.4,0.9,0.9,1.2,1.5c0.3,0.5,0.6,1.1,0.9,1.7c0.3,0.5,0.5,1.2,0.8,2.2l0.5,6.1c2.3,0.6,4.6,1.5,6.9,2.5c2.3,1,4.4,2.3,6.5,3.7
		c2.1,1.4,3.9,3,5.5,4.6c1.6,1.7,2.9,3.4,3.8,5.1c2,3.7,3.3,7.8,4,12.4c0.7,4.5,0.7,8.9-0.1,13.2c-0.7,4.3-2.2,8.2-4.4,11.8
		c-2.2,3.6-5.1,6.4-8.9,8.3c-1,0.5-2.2,1-3.5,1.4c-1.3,0.4-2.7,0.9-4.4,1.3l0.4,6.3c0.3,1,0.3,2-0.1,2.9c-0.3,0.9-0.9,1.7-1.6,2.5
		c-0.8,0.8-1.7,1.5-2.7,2.2c-1,0.7-2,1.3-2.9,1.7l-3.2,1.7l-1.9-16.8c-3.5-0.3-6.7-1-9.7-2.2c-3-1.2-5.5-3-7.6-5.3
		c-0.5-0.4-1.1-1-1.8-1.8c-0.7-0.8-1.4-1.7-1.9-2.7c-0.8-1.4-1.5-2.9-2.2-4.3c-0.7-1.4-1.1-2.3-1.1-2.7c-2-3.8-3.3-7.2-3.8-10.2
		c-0.5-3-0.4-5.8,0.3-8.5c0.7-2.7,1.9-5.4,3.6-8c1.7-2.7,3.7-5.6,6.1-8.9c-0.2-0.3,0.5-1.1,2.1-2.4c1.6-1.3,3.2-2.5,4.8-3.6l2.9-1.6
		c0.7-0.4,1.2-0.5,1.3-0.5l-0.8-7.9C511.2,95.4,511.5,95,511.7,94.9z M516.7,148.9l-2.9-28.7c-1.3,1-2.6,2.3-3.8,3.9
		c-1.2,1.6-2.1,3.4-2.9,5.3c-0.7,1.9-1.1,3.8-1.2,5.7c-0.1,1.9,0.3,3.5,1.1,5C509.2,143.9,512.4,146.9,516.7,148.9z M510.8,138
		c-0.8-1.4-0.8-3.2-0.2-5.2l0.6,6L510.8,138z M537.5,171.7l-0.2-0.7C537.3,171.2,537.3,171.4,537.5,171.7z M532.1,125.5
		c-0.5-0.5-1.1-1.1-1.8-1.7c-0.7-0.6-1.3-1.2-2-1.8c-0.6-0.6-1.1-1-1.4-1.3l2.5,29.8c0.3,0,0.6,0,0.9-0.1c2.2-3.3,3.8-7,4.7-11.2
		c0.9-4.2,0.3-8.3-1.9-12.4C533,126.4,532.6,126,532.1,125.5z"/>
	<path class="st0" d="M522.9,251.1c-1.4-2.7-2.7-5.3-4-7.9c-1.2-2.6-2.4-5.2-3.5-7.7c-1-2.5-2.1-4.9-3.3-7.4
		c-1.2-2.4-2.4-4.9-3.8-7.5l-1.7-3.2l-2.6-5l-3.2-6c-1.1-0.8-2.1-1.5-3.2-2.4c-1.1-0.8-2.1-2-2.9-3.7l-0.2-0.3l-2.5-4.8
		c3.1-3.2,5.6-5.5,7.5-7c1.9-1.5,4-2.8,6.1-3.9l1.5-0.8c1.4-0.8,3-1,4.8-0.7c1.7,0.3,3.6,1.9,5.7,4.9c0.1,0.5,0.4,1.2,0.7,2.1
		c0.4,0.9,0.7,1.9,1,2.9c0.3,1,0.7,2,1,2.8c0.3,0.9,0.6,1.5,0.7,1.8l0.6,1.1c0.2,0.3,0.4,0.6,0.6,0.9c0.2,0.3,0.4,0.5,0.4,0.6
		l9.7,19.8l8.5,16.1c0.3,0.6,0.4,1.9,0.2,3.8c-0.2,1.9-0.5,3.6-1,4.9l0.2-0.1l-0.3,0.6c0,0.2-0.1,0.3-0.2,0.3l-6.4,11.9
		c-1.8,0.1-3.2,0.1-4.3-0.2c-1.1-0.3-2-0.6-2.8-1.1c-0.7-0.5-1.3-1.1-1.8-1.9c-0.5-0.8-1-1.7-1.5-2.6L522.9,251.1z M524.3,250.4
		l0.1,0.2c0.8,1.4,1.6,2.6,2.5,3.4c0.9,0.8,2.7,1.2,5.4,1.1l6.5-12l-0.2,0.1c0.4-0.9,0.8-2.1,0.9-3.7c0.2-1.5,0.1-2.6-0.1-3.1
		l-8.6-16.2l-9.6-19.7c-0.1-0.1-0.2-0.3-0.4-0.6c-0.2-0.3-0.4-0.6-0.6-0.9l-0.6-1.1c-0.2-0.3-0.4-0.9-0.7-1.8
		c-0.3-0.9-0.7-1.8-1-2.8c-0.3-1-0.7-2-1-2.9c-0.4-0.9-0.6-1.6-0.7-2.1c-1.6-2.2-3-3.4-4.4-3.6c-1.4-0.2-2.6,0-3.7,0.6l-1.5,0.8
		c-1,0.5-2,1.1-2.9,1.6c-0.9,0.5-1.8,1.2-2.7,1.9c-0.9,0.8-1.9,1.6-3.1,2.6c-1.1,1-2.4,2.2-3.7,3.7c1,2.1,1.5,3.2,1.6,3.3l0.2,0.3
		c0.7,1.3,1.6,2.4,2.5,3.1c1,0.7,1.9,1.4,2.9,1.9c0.1,0.1,0.2,0.2,0.6,0.3l3.5,6.7l2.6,5l1.7,3.2c1.4,2.6,2.6,5.1,3.8,7.5
		c1.2,2.4,2.3,4.9,3.4,7.5c1.1,2.6,2.3,5.1,3.5,7.7C521.6,245.1,522.9,247.7,524.3,250.4z M527.2,248.8c-2.8-5.3-5.2-10.3-7.3-15.3
		c-2.1-4.9-4.5-10-7.3-15.3l-1.7-3.2c-0.8-1.5-1.7-3.2-2.7-4.9c-1-1.7-1.8-3.3-2.6-4.8l-1.7-3.2c-0.5-0.4-1.4-1-2.6-1.8
		c-1.3-0.8-2.1-1.5-2.5-2.3c-0.1-0.1-0.1-0.2-0.1-0.4c0-0.1,0-0.2-0.1-0.4c1.8-1.9,3.4-3.3,4.8-4.3c1.4-1,3.1-2.1,5.1-3.1
		c0.5-0.3,1.2-0.6,2-1.1c0.9-0.5,1.8-0.2,2.6,0.8c0.1,0.4,0.3,1,0.6,1.9c0.4,0.9,0.7,1.9,1,2.9c0.3,1,0.7,2,1,2.9
		c0.4,0.9,0.7,1.6,0.9,2c0.1,0.2,0.4,0.6,0.7,1.2c0.4,0.6,0.6,1,0.8,1.4l9.6,19.7l8.6,16.2c0.1,0.1,0,0.4-0.3,1
		c-0.2,0.6-0.4,1.1-0.6,1.4l-5.9,10.6c-0.7,0.1-1.2,0-1.5-0.5C528,250.1,527.6,249.6,527.2,248.8z"/>
	<path class="st0" d="M606.9,212.1c0.8,1.4,0.7,3-0.1,4.6c-0.8,1.6-2,3.2-3.5,4.7c-1.6,1.5-3.4,3-5.5,4.5c-2.1,1.4-4.1,2.6-5.9,3.6
		l-3.9,2c-0.8,0.4-2.7,0.4-5.6-0.2c-2.9-0.6-6.3-1.5-10.2-2.7c-3.9-1.2-8-2.7-12.4-4.3c-4.4-1.6-8.5-3.3-12.2-5
		c-3.8-1.7-7-3.3-9.7-4.8c-2.6-1.5-4.2-2.7-4.7-3.7l-0.9-1.7c-0.1-0.5-0.2-1.2-0.2-2.1c0-0.9,0-1.8,0.1-2.7c0.1-0.9,0.1-1.7,0.1-2.5
		c0-0.8,0.1-1.5,0.3-1.9l7.6-7.8c-2.8-0.2-5.3-0.8-7.6-1.5c-2.3-0.8-3.9-2-4.9-3.8c-0.5-0.9-0.8-1.6-0.9-2c-0.1-0.4-0.2-1.3-0.3-2.7
		l4.7-16.9c0.2-0.6,1.3-1.1,3.3-1.5c2-0.4,4.3-0.7,6.9-0.9c2.7-0.2,5.4-0.3,8.2-0.3c2.8,0,5,0.2,6.6,0.6l-0.2-0.1
		c0.6,0.2,1.7,0.5,3.1,1c1.4,0.5,3,1,4.7,1.5c1.7,0.5,3.4,1,5,1.5c1.6,0.5,2.8,0.9,3.6,1.2c0.4,0.2,0.8,0.6,1.4,1.1
		c0.6,0.6,1.1,1.2,1.7,1.8c0.6,0.6,1.1,1.3,1.6,1.9c0.5,0.7,0.8,1.2,1.1,1.6c1.3,2.5,1.9,4.8,1.9,7s-0.5,4.3-1.3,6.2
		c-0.8,2-1.9,3.8-3.4,5.6c-1.4,1.8-3,3.5-4.6,5.1c2.9,0.6,6.1,1.2,9.4,2c3.3,0.8,6.1,1.6,8.5,2.6c0.2,0.2,0.8,0.4,1.8,0.7
		c1,0.3,2.1,0.7,3.3,0.9c0.7,0.3,1.4,0.5,2,0.6c0.7,0.1,1.2,0.3,1.8,0.5c1.4,0.4,2.3,0.7,2.7,0.8c0.4,0.1,1.1,0.6,2.2,1.3
		c0.1-0.1,0.2-0.1,0.4,0C604.8,209.3,606.1,210.6,606.9,212.1z M605.2,213c-0.5-1-1.7-2.1-3.4-3.1c-0.4-0.2-0.6-0.3-0.8-0.4l0.7,0.2
		c-0.9-0.4-1.5-0.8-1.8-0.9c-0.3-0.2-1.2-0.5-2.8-1c-0.5-0.1-1-0.3-1.6-0.4c-0.6-0.1-1.2-0.4-1.9-0.7c-1.4-0.3-2.7-0.7-4-1.2
		c-1.3-0.4-2-0.8-2.1-1c-1.9-0.8-4.5-1.6-7.8-2.3c-3.3-0.7-6.4-1.4-9.4-2.1c-0.7-0.1-1.4-0.2-2-0.3c-0.6-0.1-1.2-0.1-1.6-0.2
		c0-0.2,0.1-0.3,0.3-0.4c0.1-0.1,0.3-0.3,0.4-0.5c1.6-1.5,3.2-3.1,4.9-4.8c1.7-1.7,3-3.6,4.1-5.5c1.1-2,1.7-4,1.9-6.1
		c0.2-2.1-0.3-4.4-1.6-6.8c-0.2-0.4-0.5-0.9-1-1.5c-0.4-0.6-0.9-1.1-1.4-1.7c-0.5-0.5-1-1-1.4-1.4c-0.5-0.4-0.8-0.7-1-0.8
		c-0.8-0.3-2-0.8-3.5-1.3c-1.5-0.5-3-1.1-4.7-1.6c-1.7-0.5-3.2-1-4.7-1.4c-1.5-0.4-2.5-0.7-3.1-0.8l0.1,0.2c-1.5-0.4-3.5-0.6-6-0.8
		c-2.5-0.1-5-0.2-7.4-0.1c-2.4,0-4.5,0.2-6.3,0.5c-1.8,0.3-2.7,0.6-2.9,1.1l-4.6,16.7c0,1,0.1,1.7,0.1,1.9c0.1,0.2,0.3,0.7,0.7,1.4
		c0.9,1.8,2.9,2.9,5.9,3.4c3,0.5,6,0.9,9.2,1.1l-10,10.6c-0.2,0.8-0.4,2-0.4,3.7c0,1.7,0,2.9,0.1,3.6l0.8,1.5c0.5,0.9,2,2.1,4.5,3.5
		c2.5,1.4,5.6,2.9,9.2,4.5c3.6,1.6,7.5,3.2,11.6,4.7c4.1,1.6,8.1,2.9,11.8,4.1c3.7,1.1,6.9,2,9.7,2.6c2.8,0.6,4.5,0.7,5.2,0.3l3.9-2
		c1.6-0.9,3.4-1.9,5.4-3.1c1.9-1.2,3.6-2.5,5.2-3.9c1.5-1.4,2.7-2.7,3.4-4C605.7,215.3,605.8,214.1,605.2,213z M601.3,215
		c0.2,0.3-0.1,0.8-0.9,1.5c-0.8,0.7-1.8,1.4-3,2.3c-1.3,0.9-2.6,1.7-4.2,2.6c-1.5,0.9-3,1.7-4.3,2.4l-3.9,2
		c-0.7,0.4-2.3,0.3-4.7-0.2c-2.4-0.5-5.2-1.3-8.5-2.4c-3.3-1.1-6.8-2.4-10.5-3.8c-3.7-1.4-7.2-2.8-10.4-4.3
		c-3.2-1.5-5.9-2.8-8.2-4.1c-2.2-1.3-3.6-2.3-4-3.1l-0.3-0.6c-0.1-0.6-0.1-1.4-0.2-2.3c-0.1-0.9-0.1-1.4,0-1.4l16.7-17.5
		c-0.7,0-2.1-0.1-4.4-0.1c-2.2,0-4.6-0.1-7-0.2c-2.4-0.1-4.7-0.3-6.7-0.6c-2-0.3-3.2-0.8-3.5-1.4l-0.4-0.8l4.4-16
		c0-0.2,0.8-0.2,2.2,0c1.4,0.1,3,0.3,4.9,0.6c1.9,0.2,3.8,0.5,5.8,0.9c2,0.3,3.6,0.6,4.9,0.9c0.6,0.1,1.7,0.4,3.3,0.8
		c1.6,0.5,3.3,1,5,1.5c1.7,0.5,3.3,1,4.7,1.5c1.4,0.5,2.2,0.8,2.4,0.9c0.2,0,0.5,0.5,1.1,1.3c0.6,0.8,1,1.5,1.3,2
		c1.1,2.1,1.3,4.1,0.5,6.3c-0.7,2.1-1.9,4.1-3.5,6c-1.6,1.9-3.3,3.7-5.2,5.4c-1.9,1.7-3.4,3.3-4.6,4.7l1.6,2.9
		c0.1,0.2,1.2,0.5,3.2,0.9c2,0.4,4.3,0.8,6.8,1.3c2.6,0.5,5.1,1,7.7,1.6c2.5,0.6,4.4,1.1,5.6,1.5c0.1,0.2,0.6,0.5,1.4,0.8
		c0.8,0.3,1.8,0.7,2.9,1c1.1,0.3,2.2,0.7,3.4,1.1c1.2,0.4,2.2,0.7,3.2,1c1.4,0.3,2.2,0.6,2.4,0.7c0.2,0.2,0.8,0.5,1.7,1.1
		C600.8,214.4,601.2,214.8,601.3,215z M572.7,170.3c0.1-0.1-0.1-0.2-0.6-0.3L572.7,170.3z M572.2,167.8l0.1,0.2
		c0.1-0.1,0.2,0,0.2,0.1L572.2,167.8z"/>
	<path class="st0" d="M651,183.4c-1.4-2.7-2.7-5.3-4-7.9c-1.2-2.6-2.4-5.2-3.5-7.7c-1-2.5-2.1-4.9-3.3-7.4c-1.2-2.4-2.4-4.9-3.8-7.5
		l-1.7-3.2l-2.6-5l-3.2-6c-1.1-0.8-2.1-1.5-3.2-2.4c-1.1-0.8-2.1-2-2.9-3.7l-0.2-0.3l-2.5-4.8c3.1-3.2,5.6-5.5,7.5-7
		c1.9-1.5,4-2.8,6.1-3.9l1.5-0.8c1.4-0.8,3-1,4.8-0.7c1.7,0.3,3.6,1.9,5.7,4.9c0.1,0.5,0.4,1.2,0.7,2.1c0.4,0.9,0.7,1.9,1,2.9
		c0.3,1,0.7,2,1,2.8c0.3,0.9,0.6,1.5,0.7,1.8l0.6,1.1c0.2,0.3,0.4,0.6,0.6,0.9c0.2,0.3,0.4,0.5,0.4,0.6l9.7,19.8l8.5,16.1
		c0.3,0.6,0.4,1.9,0.2,3.8c-0.2,1.9-0.5,3.6-1,4.9l0.2-0.1l-0.3,0.6c0,0.2-0.1,0.3-0.2,0.3l-6.4,11.9c-1.8,0.1-3.2,0.1-4.3-0.2
		c-1.1-0.3-2-0.6-2.8-1.1c-0.7-0.5-1.3-1.1-1.8-1.9c-0.5-0.8-1-1.7-1.5-2.6L651,183.4z M652.4,182.7l0.1,0.2
		c0.8,1.4,1.6,2.6,2.5,3.4c0.9,0.8,2.7,1.2,5.4,1.1l6.5-12l-0.2,0.1c0.4-0.9,0.8-2.1,0.9-3.7c0.2-1.5,0.1-2.6-0.1-3.1l-8.6-16.2
		l-9.6-19.7c-0.1-0.1-0.2-0.3-0.4-0.6c-0.2-0.3-0.4-0.6-0.6-0.9l-0.6-1.1c-0.2-0.3-0.4-0.9-0.7-1.8c-0.3-0.9-0.7-1.8-1-2.8
		c-0.3-1-0.7-2-1-2.9c-0.4-0.9-0.6-1.6-0.7-2.1c-1.6-2.2-3-3.4-4.4-3.6c-1.4-0.2-2.6,0-3.7,0.6l-1.5,0.8c-1,0.5-2,1.1-2.9,1.6
		c-0.9,0.5-1.8,1.2-2.7,1.9c-0.9,0.8-1.9,1.6-3.1,2.6c-1.1,1-2.4,2.2-3.7,3.7c1,2.1,1.5,3.2,1.6,3.3l0.2,0.3
		c0.7,1.3,1.6,2.4,2.5,3.1c1,0.7,1.9,1.4,2.9,1.9c0.1,0.1,0.2,0.2,0.6,0.3l3.5,6.7l2.6,5l1.7,3.2c1.4,2.6,2.6,5.1,3.8,7.5
		c1.2,2.4,2.3,4.9,3.4,7.5c1.1,2.6,2.3,5.1,3.5,7.7C649.6,177.4,650.9,180,652.4,182.7z M655.3,181.1c-2.8-5.3-5.2-10.3-7.3-15.3
		c-2.1-4.9-4.5-10-7.3-15.3l-1.7-3.2c-0.8-1.5-1.7-3.2-2.7-4.9c-1-1.7-1.8-3.3-2.6-4.8l-1.7-3.2c-0.5-0.4-1.4-1-2.6-1.8
		c-1.3-0.8-2.1-1.5-2.5-2.3c-0.1-0.1-0.1-0.2-0.1-0.4c0-0.1,0-0.2-0.1-0.4c1.8-1.9,3.4-3.3,4.8-4.3c1.4-1,3.1-2.1,5.1-3.1
		c0.5-0.3,1.2-0.6,2-1.1c0.9-0.5,1.8-0.2,2.6,0.8c0.1,0.4,0.3,1,0.6,1.9c0.4,0.9,0.7,1.9,1,2.9c0.3,1,0.7,2,1,2.9
		c0.4,0.9,0.7,1.6,0.9,2c0.1,0.2,0.4,0.6,0.7,1.2c0.4,0.6,0.6,1,0.8,1.4L656,154l8.6,16.2c0.1,0.1,0,0.4-0.3,1
		c-0.2,0.6-0.4,1.1-0.6,1.4l-5.9,10.6c-0.7,0.1-1.2,0-1.5-0.5C656,182.4,655.7,181.9,655.3,181.1z"/>
	<path class="st0" d="M669.3,137.7c-1.1-1.5-3-4.2-5.7-7.9c-1.4,1.4-2.9,2.9-4.5,4.6c-1.6,1.7-2.9,3.1-3.8,4.1
		c-1.9-3.6-3.4-6.3-4.3-8c-1-1.7-1.7-2.9-2.1-3.6c-0.4-0.7-0.7-1.1-0.8-1.2c-0.1-0.1-0.3-0.3-0.5-0.7c-0.3-0.5-0.5-1-0.8-1.4
		c-0.3-0.4-0.6-1-1.1-1.8l-6.1-11.4c4.3-2.3,7.7-4.2,10-5.6c2.3-1.4,4.3-2.8,5.9-4c1.6-1.1,3.4-2.3,5.2-3.4c1.8-1.2,4.2-2.5,7.1-4
		c4.1-2.2,8.2-3.6,12.2-4.4c4-0.7,7.9-0.6,11.6,0.4s7.2,3,10.5,5.8c3.3,2.9,6.3,6.8,9,11.9c3.8,7.1,5.9,13.8,6.4,19.9
		c0.5,6.1-0.2,11.8-2.2,17.1c-1.9,5.2-4.7,10.1-8.5,14.5c-3.7,4.4-8,8.4-12.7,12c-0.6,0.4-1.1,0.9-1.7,1.4c-0.5,0.5-1.1,1-1.6,1.5
		c-0.4,0.5-0.8,0.9-1.1,1.3c-0.3,0.4-0.9,0.9-1.6,1.4c-0.7,0.6-1.8,1.3-3.1,2.1c-1.3,0.8-3.3,1.9-5.9,3.3l-3.5-6.7
		c-0.1-0.1-0.1-0.2-0.1-0.4c0-0.1-0.1-0.3-0.2-0.5l-11.3-17.6l11.1-8.2l-3.8-7.1C671.2,140.4,670.4,139.2,669.3,137.7z M675.1,117.4
		c2.3-1.2,3.6-1.6,4-1.1c-1.2,0.8-2.2,1.5-3,2.1c-0.8,0.6-1.8,1.4-2.8,2.2l0.2-0.1c-0.4,0.3-0.9,0.8-1.7,1.4
		c-0.8,0.6-1.6,1.3-2.5,1.9c-0.9,0.7-1.8,1.3-2.6,2c-0.8,0.6-1.6,1.2-2.1,1.6c3.4,4.5,5.7,7.6,6.8,9.3c1.1,1.7,1.8,2.8,2.1,3.4
		l3.6,6.8l8-5c-0.5,0.5-1.1,1.2-1.8,2c-0.7,0.8-1.5,1.7-2.4,2.7L666.9,157l10.3,16.1l0.4,0.8l2.5,4.8c2-1,3.5-1.9,4.6-2.6
		c1.1-0.7,1.9-1.3,2.5-1.7c0.6-0.5,1.1-0.9,1.3-1.2c0.3-0.3,0.6-0.8,1-1.2c0.5-0.4,1-0.8,1.5-1.3c0.5-0.5,1.2-1,1.9-1.7
		c4.5-3.4,8.6-7.3,12.2-11.5c3.6-4.2,6.4-8.9,8.2-13.9c1.8-5,2.5-10.5,2.1-16.4c-0.4-5.9-2.4-12.3-6-19.1c-2.5-4.7-5.3-8.5-8.4-11.2
		c-3.1-2.7-6.4-4.5-9.9-5.5c-3.5-0.9-7.2-1-11-0.3c-3.8,0.7-7.6,2-11.4,4.1c-2.7,1.4-4.9,2.7-6.7,3.9c-1.8,1.2-3.5,2.4-5.2,3.5
		c-1.6,1.2-3.5,2.5-5.7,3.9c-2.2,1.4-5.1,3-8.9,5l5.1,9.6c0.4,0.7,0.7,1.3,1,1.7c0.3,0.4,0.6,0.8,1,1.3c0.2,0.3,0.3,0.6,0.5,0.8
		c0.2,0.2,0.5,0.7,0.9,1.3c0.4,0.6,1,1.7,1.8,3.1c0.7,1.3,1.7,3.3,3.1,5.9c0.6-0.6,1.4-1.4,2.4-2.4c1-1,1.9-2.1,2.9-3.1
		c1-1,1.9-2,2.7-2.8c0.8-0.8,1.3-1.4,1.5-1.8c0.3-0.3,0.5-0.5,0.8-0.8c0.3-0.3,0.4-0.5,0.4-0.6c0.6-0.3,1.2-0.7,1.6-1.1L675.1,117.4
		z M664.9,119.1c0,0.2-0.3,0.4-0.8,0.6c-0.5,0.3-1.3,1-2.3,2.3c-1,1.3-2.7,3.2-5.2,5.8c-1.3-2.4-2.4-4.2-3.3-5.5
		c-0.9-1.3-1.7-2.4-2.1-3.3l-2.9-5.6c2.4-1.3,4.4-2.5,6.2-3.7c1.7-1.2,3.5-2.4,5.2-3.5c1.7-1.2,3.4-2.3,5.2-3.5
		c1.7-1.2,3.8-2.4,6.2-3.7c6.7-3.5,13.1-4.6,19.2-3.2c6.1,1.4,11.3,6.1,15.5,14.2c3.2,6.1,5,11.8,5.4,17.1
		c0.4,5.3-0.3,10.3-1.9,14.9c-1.7,4.6-4.1,8.8-7.4,12.7c-3.3,3.9-7,7.5-11.3,10.6c-1.7,1.2-3.2,2.5-4.3,3.9
		c-1.1,1.4-2.6,2.5-4.3,3.5c-0.4-1.1-0.7-1.7-0.7-1.8l-8.3-12.7l10.7-8.2c2.1-2,3.8-3.8,5-5.3c1.2-1.5,2.2-2.9,2.7-4.2
		c0.6-1.3,0.9-2.6,1-3.9c0.1-1.3,0.1-2.8-0.1-4.6l-13.7,8.6l-0.6-1.1c-0.4-0.7-1-1.8-1.8-3.2c-0.8-1.4-2.7-4-5.7-7.9
		c1.6-1.1,3-2.2,4.2-3.1c1.2-0.9,2.2-1.8,3.3-2.6c1-0.8,2.1-1.6,3.3-2.4c1.2-0.8,2.5-1.7,4-2.6c-1.2-1.8-2.2-3.3-2.8-4.4
		c-0.7-1.1-1.3-1.8-2-2.1c-0.7-0.3-1.6-0.2-2.7,0.3c-1.1,0.5-2.8,1.3-5,2.4L664.9,119.1z"/>
	<path class="st1" d="M340.4,514.2c0-0.2,0-0.3,0-0.5l-0.1,0.6C340.4,514.2,340.4,514.2,340.4,514.2z"/>
	<path class="st1" d="M358.6,561.1c0.1-0.3,0.1-0.5,0.1-0.7c0-0.1,0-0.3,0.1-0.4L358.6,561.1z"/>
	<path class="st1" d="M353.5,577.4C353.5,577.4,353.5,577.4,353.5,577.4c0,0.1-0.1,0.2-0.1,0.2L353.5,577.4z"/>
	<path class="st1" d="M356.7,560.1C356.7,560.1,356.7,560.1,356.7,560.1l0-0.4C356.6,559.9,356.6,560,356.7,560.1z"/>
	<path class="st0" d="M598.1,280.8c-1.4-2.7-2.7-5.3-4-7.9c-1.2-2.6-2.4-5.2-3.5-7.7c-1-2.5-2.1-4.9-3.3-7.4
		c-1.2-2.4-2.4-4.9-3.8-7.5l-1.7-3.2l-2.6-5l-3.2-6c-1.1-0.8-2.1-1.5-3.2-2.4c-1.1-0.8-2.1-2-2.9-3.7l-0.2-0.3l-2.5-4.8
		c3.1-3.2,5.6-5.5,7.5-7c1.9-1.5,4-2.8,6.1-3.9l1.5-0.8c1.4-0.8,3-1,4.8-0.7c1.7,0.3,3.6,1.9,5.7,4.9c0.1,0.5,0.4,1.2,0.7,2.1
		c0.4,0.9,0.7,1.9,1,2.9c0.3,1,0.7,2,1,2.8c0.3,0.9,0.6,1.5,0.7,1.8l0.6,1.1c0.2,0.3,0.4,0.6,0.6,0.9c0.2,0.3,0.4,0.5,0.4,0.6
		l9.7,19.8l8.5,16.1c0.3,0.6,0.4,1.9,0.2,3.8c-0.2,1.9-0.5,3.6-1,4.9l0.2-0.1l-0.3,0.6c0,0.2-0.1,0.3-0.2,0.3l-6.4,11.9
		c-1.8,0.1-3.2,0.1-4.3-0.2c-1.1-0.3-2-0.6-2.8-1.1c-0.7-0.5-1.3-1.1-1.8-1.9c-0.5-0.8-1-1.7-1.5-2.6L598.1,280.8z M599.5,280.1
		l0.1,0.2c0.8,1.4,1.6,2.6,2.5,3.4c0.9,0.8,2.7,1.2,5.4,1.1l6.5-12l-0.2,0.1c0.4-0.9,0.8-2.1,0.9-3.7c0.2-1.5,0.1-2.6-0.1-3.1
		l-8.6-16.2l-9.6-19.7c-0.1-0.1-0.2-0.3-0.4-0.6c-0.2-0.3-0.4-0.6-0.6-0.9l-0.6-1.1c-0.2-0.3-0.4-0.9-0.7-1.8
		c-0.3-0.9-0.7-1.8-1-2.8c-0.3-1-0.7-2-1-2.9c-0.4-0.9-0.6-1.6-0.7-2.1c-1.6-2.2-3-3.4-4.4-3.6c-1.4-0.2-2.6,0-3.7,0.6l-1.5,0.8
		c-1,0.5-2,1.1-2.9,1.6c-0.9,0.5-1.8,1.2-2.7,1.9c-0.9,0.8-1.9,1.6-3.1,2.6c-1.1,1-2.4,2.2-3.7,3.7c1,2.1,1.5,3.2,1.6,3.3l0.2,0.3
		c0.7,1.3,1.6,2.4,2.5,3.1c1,0.7,1.9,1.4,2.9,1.9c0.1,0.1,0.2,0.2,0.6,0.3l3.5,6.7l2.6,5l1.7,3.2c1.4,2.6,2.6,5.1,3.8,7.5
		c1.2,2.4,2.3,4.9,3.4,7.5c1.1,2.6,2.3,5.1,3.5,7.7C596.7,274.8,598,277.4,599.5,280.1z M602.4,278.5c-2.8-5.3-5.2-10.3-7.3-15.3
		c-2.1-4.9-4.5-10-7.3-15.3l-1.7-3.2c-0.8-1.5-1.7-3.2-2.7-4.9c-1-1.7-1.8-3.3-2.6-4.8l-1.7-3.2c-0.5-0.4-1.4-1-2.6-1.8
		c-1.3-0.8-2.1-1.5-2.5-2.3c-0.1-0.1-0.1-0.2-0.1-0.3c0-0.1,0-0.2-0.1-0.4c1.8-1.9,3.4-3.3,4.8-4.3c1.4-1,3.1-2.1,5.1-3.1
		c0.5-0.3,1.2-0.6,2-1.1c0.9-0.5,1.8-0.2,2.6,0.8c0.1,0.4,0.3,1,0.6,1.9c0.4,0.9,0.7,1.9,1,2.9c0.3,1,0.7,2,1,2.9
		c0.4,0.9,0.7,1.6,0.9,2c0.1,0.2,0.4,0.6,0.7,1.2c0.4,0.6,0.6,1,0.8,1.4l9.6,19.7l8.6,16.2c0.1,0.1,0,0.4-0.3,1
		c-0.2,0.6-0.4,1.1-0.6,1.4l-5.9,10.6c-0.7,0.1-1.2,0-1.5-0.5C603.1,279.8,602.8,279.2,602.4,278.5z"/>
	<path class="st0" d="M569.4,203.9c-2.8-5.4-4.4-10.8-4.6-16.3c-0.2-5.5,0.4-10.9,1.9-16.1c1.5-5.2,3.6-10.2,6.2-15
		c2.7-4.8,5.5-9.2,8.5-13.3l-0.1,0.5c0.4-0.6,0.8-1.2,1.5-1.9c0.6-0.7,1.2-1.3,1.7-1.8l-0.4,0.4l1.8-2.2l2-1.1
		c0.7-0.4,2.4-0.2,5,0.6c2.6,0.8,5.4,1.9,8.3,3.2c3,1.3,5.6,2.7,8,4.2c2.4,1.4,3.8,2.5,4.2,3.2c0,3.8-0.6,6.6-1.8,8.5
		c1.8-0.3,3.6-0.4,5.5-0.3c1.8,0.1,3.5,0.5,4.9,1.2l9.4,2c0.1,2.5,0.2,4.4,0.2,5.7c0.1,1.4,0.1,2.4,0.2,3.2c0.1,0.8,0.2,1.5,0.3,2.1
		c0.1,0.6,0.2,1.3,0.3,2.2c0.5,3.3,1,6.8,1.4,10.5c0.4,3.7,0.6,7.4,0.5,10.8c-0.1,3.5-0.6,6.6-1.5,9.3c-0.9,2.7-2.5,4.7-4.8,5.9
		c-2.2,1.1-4.9,2.3-8.1,3.3c-3.3,1.1-6.8,1.9-10.6,2.5c-3.8,0.6-7.7,1-11.7,1c-4,0.1-7.8-0.3-11.4-1.2c-3.6-0.9-6.9-2.2-9.8-4
		C573.4,209.6,571.1,207.1,569.4,203.9z M571.2,203c1.6,3,3.7,5.3,6.5,7.1c2.8,1.7,5.9,2.9,9.4,3.7c3.5,0.7,7.1,1.1,10.9,1
		c3.8-0.1,7.5-0.5,11.1-1.1c3.6-0.7,7-1.5,10.2-2.5c3.2-1,5.8-2.1,7.8-3.2c2-1,3.3-2.9,4.1-5.5c0.8-2.6,1.2-5.5,1.3-8.8
		c0.1-3.3-0.1-6.7-0.6-10.3c-0.4-3.6-0.9-6.9-1.3-10l0.1,0.2c-0.2-0.8-0.3-1.6-0.5-2.2c-0.1-0.6-0.3-1.4-0.4-2.2
		c-0.1-0.8-0.2-1.8-0.3-2.9c-0.1-1.1-0.1-2.7-0.1-4.7l-7.9-1.5c-1-0.7-2.2-1.1-3.6-1.2c-1.4-0.2-2.9-0.2-4.4-0.1
		c-1.5,0.1-2.9,0.4-4.3,0.7c-1.4,0.3-2.5,0.6-3.6,0.9c0.7-0.6,1.4-1.3,2-2c0.6-0.7,1.2-1.2,1.6-1.7c1.4-1.4,2.2-3.8,2.6-7.1
		c-0.4-0.7-1.6-1.7-3.8-3c-2.1-1.3-4.5-2.6-7.1-3.8c-2.6-1.2-5.1-2.2-7.4-2.9c-2.3-0.8-3.8-0.9-4.6-0.6l-1.7,0.9
		c-0.8,1.1-1.3,1.7-1.5,2l0.2-0.3c-0.5,0.5-1.1,1.1-1.6,1.8c-0.6,0.6-1.1,1.3-1.4,1.8l0.2-0.7c-2.9,3.9-5.7,8.2-8.3,12.8
		c-2.6,4.6-4.6,9.4-6.1,14.5c-1.5,5.1-2.1,10.2-1.9,15.5C567.1,192.6,568.5,197.8,571.2,203z M575,201c-2.5-4.6-3.7-9.3-3.8-14.1
		c-0.1-4.8,0.6-9.5,2-14.1c1.4-4.6,3.4-9.1,5.8-13.5c2.5-4.3,5-8.3,7.7-12c0.1-0.3,0.7-0.9,1.7-1.9c1-0.9,1.6-1.6,1.8-2l0.8-0.4
		c0.5-0.3,1.6-0.1,3.4,0.6c1.7,0.7,3.6,1.5,5.5,2.5c1.9,1,3.7,2,5.3,3.1c1.6,1.1,2.6,1.8,2.8,2.4c-2,2.1-3.8,4-5.4,5.7
		c-1.6,1.7-3.2,3.6-5.1,5.8c-1.8,2.2-3.5,4.3-4.9,6.6c1.9-0.7,3.8-1.5,5.9-2.2c2-0.7,4.4-1.5,7-2.2c0.7-0.2,1.7-0.5,3.1-1
		c1.4-0.4,2.9-0.8,4.4-1c1.5-0.3,2.9-0.4,4.1-0.3c1.2,0.1,2,0.5,2.4,1.2l5.7,1.1c0.1,1.9,0.5,4.9,1.1,8.8c0.6,4,1.1,8,1.5,12.2
		c0.4,4.2,0.4,8,0.1,11.4c-0.3,3.5-1.3,5.6-2.9,6.5c-2.9,1.5-6.7,2.9-11.5,4.2c-4.8,1.3-9.7,2-14.7,2.3c-5,0.2-9.8-0.4-14.2-1.7
		C580.2,207.4,577,204.8,575,201z M607.3,190.3c2.2-2.1,3.6-4.1,4.3-6.1c0.7-2,0.3-3.4-1-4.2c-1.3-0.8-3.6-0.8-6.9,0.1
		c-3.3,0.9-7.8,3-13.5,6.4c1,1.1,2.2,2,3.7,2.7c1.5,0.7,3.1,1.2,4.8,1.5c1.7,0.3,3.3,0.4,4.9,0.4S606.4,190.7,607.3,190.3z
		 M599.4,186.5c5.4-2.7,8.2-3.9,8.4-3.6c0.3,0.5-0.8,1.8-3.1,3.8C603.4,187.1,601.6,187,599.4,186.5z"/>
	<path class="st0" d="M563.5,70.2c-1.4-2.7-2.7-5.3-4-7.9c-1.2-2.6-2.4-5.2-3.5-7.7c-1-2.5-2.1-4.9-3.3-7.4
		c-1.2-2.4-2.4-4.9-3.8-7.5l-1.7-3.2l-2.6-5l-3.2-6c-1.1-0.8-2.1-1.5-3.2-2.4c-1.1-0.8-2.1-2-2.9-3.7l-0.2-0.3l-2.5-4.8
		c3.1-3.2,5.6-5.5,7.5-7c1.9-1.5,4-2.8,6.1-3.9l1.5-0.8c1.4-0.8,3-1,4.8-0.7c1.7,0.3,3.6,1.9,5.7,4.9c0.1,0.5,0.4,1.2,0.7,2.1
		c0.4,0.9,0.7,1.9,1,2.9c0.3,1,0.7,2,1,2.8c0.3,0.9,0.6,1.5,0.7,1.8l0.6,1.1c0.2,0.3,0.4,0.6,0.6,0.9c0.2,0.3,0.4,0.5,0.4,0.6
		l9.7,19.8l8.5,16.1c0.3,0.6,0.4,1.9,0.2,3.8c-0.2,1.9-0.5,3.6-1,4.9l0.2-0.1l-0.3,0.6c0,0.2-0.1,0.3-0.2,0.3L574,76.1
		c-1.8,0.1-3.2,0.1-4.3-0.2c-1.1-0.3-2-0.6-2.8-1.1c-0.7-0.5-1.3-1.1-1.8-1.9c-0.5-0.8-1-1.7-1.5-2.6L563.5,70.2z M564.9,69.4
		l0.1,0.2c0.8,1.4,1.6,2.6,2.5,3.4c0.9,0.8,2.7,1.2,5.4,1.1l6.5-12l-0.2,0.1c0.4-0.9,0.8-2.1,0.9-3.7c0.2-1.5,0.1-2.6-0.1-3.1
		l-8.6-16.2l-9.6-19.7c-0.1-0.1-0.2-0.3-0.4-0.6c-0.2-0.3-0.4-0.6-0.6-0.9l-0.6-1.1c-0.2-0.3-0.4-0.9-0.7-1.8
		c-0.3-0.9-0.7-1.8-1-2.8c-0.3-1-0.7-2-1-2.9c-0.4-0.9-0.6-1.6-0.7-2.1c-1.6-2.2-3-3.4-4.4-3.6c-1.4-0.2-2.6,0-3.7,0.6l-1.5,0.8
		c-1,0.5-2,1.1-2.9,1.6c-0.9,0.5-1.8,1.2-2.7,1.9c-0.9,0.8-1.9,1.6-3.1,2.6c-1.1,1-2.4,2.2-3.7,3.7c1,2.1,1.5,3.2,1.6,3.3l0.2,0.3
		c0.7,1.3,1.6,2.4,2.5,3.1c1,0.7,1.9,1.4,2.9,1.9c0.1,0.1,0.2,0.2,0.6,0.3l3.5,6.7l2.6,5l1.7,3.2c1.4,2.6,2.6,5.1,3.8,7.5
		c1.1,2.4,2.3,4.9,3.4,7.5c1.1,2.6,2.3,5.1,3.5,7.7C562.2,64.1,563.5,66.7,564.9,69.4z M567.8,67.9c-2.8-5.3-5.2-10.3-7.3-15.3
		c-2.1-4.9-4.5-10-7.3-15.3l-1.7-3.2c-0.8-1.5-1.7-3.2-2.7-4.9c-1-1.7-1.8-3.3-2.6-4.8l-1.7-3.2c-0.5-0.4-1.4-1-2.6-1.8
		c-1.3-0.8-2.1-1.5-2.5-2.3c-0.1-0.1-0.1-0.2-0.1-0.4c0-0.1,0-0.2-0.1-0.4c1.8-1.9,3.4-3.3,4.8-4.3c1.4-1,3.1-2.1,5.1-3.1
		c0.5-0.3,1.2-0.6,2-1.1c0.9-0.5,1.8-0.2,2.6,0.8c0.1,0.4,0.3,1,0.6,1.9c0.4,0.9,0.7,1.9,1,2.9s0.7,2,1,2.9c0.4,0.9,0.7,1.6,0.9,2
		c0.1,0.2,0.4,0.6,0.7,1.2c0.4,0.6,0.6,1,0.8,1.4l9.6,19.7l8.6,16.2c0.1,0.1,0,0.4-0.3,1c-0.2,0.6-0.4,1.1-0.6,1.4l-5.9,10.6
		c-0.7,0.1-1.2,0-1.5-0.5C568.5,69.2,568.2,68.6,567.8,67.9z"/>
	<path class="st0" d="M609.4,324.8l3.9-25.6c-1.7,0.9-3.4,1.9-5.1,3.2c-1.8,1.3-3.8,3-6.1,5.1c-2.3,2.1-5,4.8-8,8
		c-3,3.2-6.5,7.2-10.5,12.1l1.5-44.3l58.5-30.9l-4.4,45.9l-1.8,25.5c-0.2,0.6,0,1.5,0.4,2.5c0.5,1.1,0.9,1.8,1.1,2.4
		c0.2,0.4,0.6,0.7,1.1,1c0.2,0.2,0.4,0.2,0.6,0.3c0.2,0,0.4,0.1,0.6,0.3c0.2,0.2,0.5,0.4,0.8,0.8c0.3,0.4,0.7,1,1.1,1.8
		c1,1.9,1.2,3.7,0.6,5.5c-0.6,1.8-2.6,3.6-5.9,5.4l-35.6,18.8c0.6-4.9,1.3-10,2.3-15.2c1-5.2,1.8-9.4,2.6-12.7
		c0.6-2.2,1-4.1,1.4-5.9c0.3-1.8,0.6-3.1,0.8-4L609.4,324.8z M611.4,324.9c-0.2,0.9-0.5,2.3-0.9,4.1c-0.4,1.9-0.9,3.9-1.5,6
		c-0.6,2.6-1.3,6.1-2,10.6c-0.7,4.5-1.4,8.8-2.1,13l32-16.9c2.6-1.4,4.2-2.7,4.8-4c0.6-1.3,0.6-2.7-0.2-4.1
		c-0.7-1.2-1.2-1.9-1.6-1.8c-0.4,0-0.8-0.1-1.2-0.4l0.2,0.1c-0.4-0.2-0.7-0.4-1.1-0.7c-0.3-0.3-0.6-0.6-0.8-1
		c-0.3-0.6-0.8-1.6-1.3-3.1c-0.6-1.4-0.6-2.7-0.2-3.9l1.6-24.6l-0.2,0.1l3.9-42l-53.8,28.5l-1.4,37c3.4-4,6.4-7.4,9-10.1
		c2.6-2.7,5-5,7.1-6.8c2.1-1.8,4.1-3.3,5.8-4.5c1.8-1.1,3.5-2.2,5.3-3.1l2.9-1.6l-4.6,29.5L611.4,324.9z M612.6,292.1
		c-2.8,1.4-5.4,2.9-7.9,4.5c-2.5,1.6-5,3.3-7.3,5.3c-2.4,1.9-4.7,4.2-6.9,7l0.8-21.6l44.6-23.6l-3.2,34l-1.6,24.4
		c-0.3,0.8-0.5,1.7-0.4,2.7c0.1,0.9,0.3,1.9,0.6,2.8c0.3,0.9,0.6,1.7,1,2.4c0.4,0.7,0.7,1.3,0.9,1.7c0.6,1.1,1.3,2,2.1,2.5
		c0.8,0.5,1.4,0.9,1.8,1.2c0.4,0.3,0.5,0.6,0.3,0.9c-0.2,0.3-1.1,0.9-2.5,1.6l-24.4,12.9c0.2-1,0.6-2.8,1.1-5.1
		c0.5-2.4,1-4.8,1.6-7.4c0.6-2.5,1.1-5,1.6-7.4c0.5-2.4,0.8-4.1,1-5.3l5.9-38.2C618.3,289.1,615.3,290.7,612.6,292.1z"/>
	<path class="st0" d="M703.9,393c-1.4-2.7-2.7-5.3-4-7.9c-1.2-2.6-2.4-5.2-3.5-7.7c-1-2.5-2.1-4.9-3.3-7.4c-1.2-2.4-2.4-4.9-3.8-7.5
		l-1.7-3.2l-2.6-5l-3.2-6c-1.1-0.8-2.1-1.5-3.2-2.4c-1.1-0.8-2.1-2-2.9-3.7l-0.2-0.3l-2.5-4.8c3.1-3.2,5.6-5.5,7.5-7
		c1.9-1.5,4-2.8,6.1-3.9l1.5-0.8c1.4-0.8,3-1,4.8-0.7c1.7,0.3,3.6,1.9,5.7,4.9c0.1,0.5,0.4,1.2,0.7,2.1c0.4,0.9,0.7,1.9,1,2.9
		c0.3,1,0.7,2,1,2.8c0.3,0.9,0.6,1.5,0.7,1.8l0.6,1.1c0.2,0.3,0.4,0.6,0.6,0.9c0.2,0.3,0.4,0.5,0.4,0.6l9.7,19.8l8.5,16.1
		c0.3,0.6,0.4,1.9,0.2,3.8c-0.2,1.9-0.5,3.6-1,4.9l0.2-0.1l-0.3,0.6c0,0.2-0.1,0.3-0.2,0.3l-6.4,11.9c-1.8,0.1-3.2,0.1-4.3-0.2
		c-1.1-0.3-2-0.6-2.8-1.1c-0.7-0.5-1.3-1.1-1.8-1.9c-0.5-0.8-1-1.7-1.5-2.6L703.9,393z M705.3,392.2l0.1,0.2
		c0.8,1.4,1.6,2.6,2.5,3.4c0.9,0.8,2.7,1.2,5.4,1.1l6.5-12l-0.2,0.1c0.4-0.9,0.8-2.1,0.9-3.7c0.2-1.5,0.1-2.6-0.1-3.1l-8.6-16.2
		l-9.6-19.7c-0.1-0.1-0.2-0.3-0.4-0.6c-0.2-0.3-0.4-0.6-0.6-0.9l-0.6-1.1c-0.2-0.3-0.4-0.9-0.7-1.8c-0.3-0.9-0.7-1.8-1-2.8
		c-0.3-1-0.7-2-1-2.9c-0.4-0.9-0.6-1.6-0.7-2.1c-1.6-2.2-3-3.4-4.4-3.6c-1.4-0.2-2.6,0-3.7,0.6l-1.5,0.8c-1,0.5-2,1.1-2.9,1.6
		c-0.9,0.5-1.8,1.2-2.7,1.9c-0.9,0.8-1.9,1.6-3.1,2.6c-1.1,1-2.4,2.2-3.7,3.7c1,2.1,1.5,3.2,1.6,3.3l0.2,0.3
		c0.7,1.3,1.6,2.4,2.5,3.1c1,0.7,1.9,1.4,2.9,1.9c0.1,0.1,0.2,0.2,0.6,0.3l3.5,6.7l2.6,5l1.7,3.2c1.4,2.6,2.6,5.1,3.8,7.5
		c1.1,2.4,2.3,4.9,3.4,7.5c1.1,2.6,2.3,5.1,3.5,7.7C702.6,386.9,703.9,389.6,705.3,392.2z M708.3,390.7c-2.8-5.3-5.2-10.3-7.3-15.3
		c-2.1-4.9-4.5-10-7.3-15.3l-1.7-3.2c-0.8-1.5-1.7-3.2-2.7-4.9c-1-1.7-1.8-3.3-2.6-4.8L685,344c-0.5-0.4-1.4-1-2.6-1.8
		c-1.3-0.8-2.1-1.5-2.5-2.3c-0.1-0.1-0.1-0.2-0.1-0.4c0-0.1,0-0.2-0.1-0.4c1.8-1.9,3.4-3.3,4.8-4.3c1.4-1,3.1-2.1,5.1-3.1
		c0.5-0.3,1.2-0.6,2-1.1c0.9-0.5,1.8-0.2,2.6,0.8c0.1,0.4,0.3,1,0.6,1.9c0.4,0.9,0.7,1.9,1,2.9c0.3,1,0.7,2,1,2.9
		c0.4,0.9,0.7,1.6,0.9,2c0.1,0.2,0.4,0.6,0.7,1.2c0.4,0.6,0.6,1,0.8,1.4l9.6,19.7l8.6,16.2c0.1,0.1,0,0.4-0.3,1
		c-0.2,0.6-0.4,1.1-0.6,1.4l-5.9,10.6c-0.7,0.1-1.2,0-1.5-0.5C709,392,708.6,391.4,708.3,390.7z"/>
	<path class="st0" d="M711.4,75.1c-2.5-4.6-4.1-9.1-5-13.5c-0.9-4.3-1.2-8.5-0.9-12.4c0.3-3.9,1.2-7.7,2.6-11.3
		c1.4-3.6,3.2-7,5.4-10.3l3.7-4.7c0.8-1.1,1.4-1.9,1.9-2.5c0.5-0.6,0.9-1.1,1.2-1.4c0.3-0.4,0.7-0.7,1.2-1c0.4-0.3,1-0.6,1.7-1
		l1.1-0.6c0.4-0.5,0.8-0.9,1.2-1.1c0.4-0.3,0.7-0.5,0.9-0.6c1-0.5,1.7-0.8,2-0.9c0.3,0,0.7-0.1,1.2-0.2l1.2-0.7l1.2-0.7
		c2.6-1.4,4.8-1.8,6.7-1.2c7.2-2.4,14-2.3,20.3,0.2c6.3,2.5,11.7,7.9,16.1,16.2c5,9.4,7.1,18,6.3,26c-0.8,7.9-3.5,15-8.3,21.2
		l-3.4,6.3c-0.4,0.6-0.7,1-1,1.2c-0.3,0.2-0.5,0.4-0.6,0.6l-1.1,1.6l-1.4,0.7l-0.2,0.1c-0.1-0.1-0.1-0.1-0.2-0.1
		c-0.6,0.4-1.1,0.8-1.6,1.3c-0.5,0.4-1.1,0.8-1.7,1.1l-1.7,0.9l-8.2,2.8l0.5-0.2c-7.8,3.3-15.3,3.7-22.7,1.3
		C722.3,89.9,716.2,84.1,711.4,75.1z M713.3,74.1c4.4,8.4,10.1,13.7,17,16.2c6.9,2.4,14,2.1,21.3-1l-0.3,0.2l7.4-2.5l2.2-1.1
		c0.5-0.3,1-0.6,1.5-0.9c0.5-0.3,1-0.7,1.4-1.1l0.2-0.1c0.2-0.1,0.3-0.1,0.4-0.1c0.1,0,0.2,0,0.3,0l0.9-0.5l0.8-1.2
		c0.4-0.5,1.1-1.3,2.1-2.5l3.2-6l-0.5,0.5c4.8-6,7.5-12.7,8.2-20.4c0.7-7.6-1.3-15.9-6-24.9c-4.3-8-9.4-13.2-15.3-15.3
		c-6-2.2-12.4-2.1-19.2,0.2c-1.6-0.7-3.5-0.5-5.8,0.7c-0.2,0.1-0.4,0.2-0.6,0.4c-0.2,0.2-0.4,0.3-0.6,0.4l-1.9,1
		c-1,0.1-1.8,0.4-2.6,0.8c-0.1,0.1-0.3,0.2-0.6,0.3c-0.2,0.1-0.4,0.3-0.7,0.6c-0.3,0.2-0.6,0.4-0.9,0.6c-0.3,0.2-0.6,0.4-0.9,0.6
		c-0.6,0.4-1,0.8-1.4,1.1c-0.4,0.3-0.7,0.6-1.1,1c-0.3,0.4-0.7,0.8-1.1,1.4c-0.4,0.6-1,1.3-1.7,2.2l-3.5,4.6
		c-4.2,6.2-6.8,13.1-7.7,20.6C706.7,57,708.6,65.2,713.3,74.1z M717.1,72c-4.3-8-6-15.4-5.2-22.2c0.8-6.7,3.1-12.9,6.9-18.5l3.3-4.5
		c0.8-1,1.4-1.7,1.8-2.1c0.4-0.5,0.7-0.8,1.1-1.1c0.4-0.3,0.8-0.6,1.4-0.9c0.5-0.3,1.3-0.9,2.3-1.7c0.7-0.6,1.3-0.9,1.6-0.9
		c0.4,0.1,1.1-0.2,2.3-0.8c0.9-0.5,1.8-1,2.7-1.5c0.8-0.5,1.6-0.3,2.4,0.6c6.2-2.6,12-3,17.5-1.3c5.5,1.8,10.2,6.2,14,13.5
		c4.3,8,6.1,15.5,5.4,22.5c-0.6,6.9-3,13-7.1,18.2l-3.3,6.1c-0.9,1.1-1.4,1.7-1.5,1.9c-0.1,0.1-0.2,0.2-0.3,0.3l-0.6,0.3
		c-0.2,0.1-0.6,0.4-1.1,0.8c-0.5,0.4-1.2,0.8-2,1.3l-1.5,0.8l-7.5,2.4c-6.2,2.6-12.2,2.9-18.1,0.8C725.8,83.9,721,79.3,717.1,72z
		 M738.3,64c1.2,1.7,2.1,3.2,2.8,4.3c0.7,1.1,1.3,1.8,1.9,2.1c0.6,0.3,1.4,0.3,2.4,0c1-0.3,2.4-1,4.2-1.9l3.6-2.9
		c2.2-2.2,3.6-3.8,4.1-4.8c0.5-0.9,0.6-1.6,0.3-2.2c-0.3-0.6-0.8-1.3-1.5-2.1c-0.7-0.8-1-2.1-1.1-3.9l-5.4,2.5l0.9,0.9L749,57
		c-1.5,0.8-2.7,1.5-3.4,1.9c-0.7,0.5-1.4,0.9-2,1.3c-0.6,0.4-1.2,0.9-1.9,1.5C741,62.3,739.9,63.1,738.3,64z M740,44.5l8-5.8
		c-1.2-1.7-2-3.2-2.6-4.5c-0.5-1.2-1-2.1-1.5-2.7c-0.5-0.5-1.1-0.7-2-0.5c-0.8,0.2-2.2,0.8-4,1.7l-1.4,1.1c-2.1,2.2-3.6,3.9-4.5,5.2
		c-0.9,1.2-1.4,2.4-1.5,3.4c-0.1,1,0,2,0.3,3.1c0.3,1.1,0.5,2.5,0.5,4.4L740,44.5z M746.1,63.9c0.4-0.3,0.8-0.7,1.4-1.1
		c0.6-0.4,1.8-1,3.5-2l2-1.1l0.1,0.2l0.2,0.5c-0.3-0.3-1.3,0.3-3,1.8l0.2-0.1l-0.1,0.2l-0.3,0.2l0.2-0.1l-3.6,2.5
		c-1.2,0.7-2,0.8-2.3,0.4c0.4-0.3,0.7-0.6,1-0.7C745.6,64.5,745.9,64.2,746.1,63.9z M739.6,37l-0.4,0.4l1.4-1.1
		c0.5-0.3,0.7-0.5,0.6-0.7l0.4,0.8l0.6,1.1l-4.8,3.3l0.3-0.2l-2.5,1.7c0.3-0.7,0.8-1.4,1.4-2.1C737.2,39.4,738.2,38.4,739.6,37z
		 M750.3,62.4l0.1-0.2l0.1,0.2L750.3,62.4z"/>
	<path class="st0" d="M836.9,271.2c-0.2-0.3-0.4-0.8-0.8-1.4c-0.4-0.6-0.6-1-0.7-1.2c-0.2-0.4-0.5-1.1-0.9-2c-0.4-0.9-0.7-1.9-1-2.9
		s-0.7-2-1-2.9c-0.4-0.9-0.6-1.6-0.6-1.9c-0.8-1-1.7-1.3-2.6-0.8c-0.8,0.4-1.5,0.8-2,1.1c-2,1-3.7,2.1-5.1,3.1c-1.4,1-3,2.5-4.8,4.3
		c0.1,0.1,0.1,0.2,0.1,0.4c0,0.1,0,0.2,0.1,0.4c0.4,0.7,1.2,1.5,2.5,2.3c1.3,0.8,2.1,1.4,2.6,1.8l1.7,3.2c0.8,1.4,1.6,3,2.6,4.8
		c1,1.7,1.9,3.4,2.7,4.9l1.7,3.2c2.8,5.3,5.2,10.3,7.3,15.3c1.9,4.5,4.1,9.2,6.6,14v-28.6L836.9,271.2z"/>
	<path class="st0" d="M840,321.2l-0.1-0.2c-1.4-2.7-2.7-5.3-3.9-7.8c-1.2-2.5-2.4-5.1-3.5-7.7c-1.1-2.6-2.2-5.1-3.4-7.5
		c-1.2-2.4-2.4-4.9-3.8-7.5l-1.7-3.2l-2.6-5l-3.5-6.7c-0.3-0.1-0.5-0.2-0.6-0.3c-1-0.6-1.9-1.2-2.9-1.9c-1-0.7-1.8-1.8-2.5-3.1
		l-0.2-0.3c-0.1-0.1-0.6-1.2-1.6-3.3c1.3-1.5,2.5-2.7,3.7-3.7c1.1-1,2.1-1.9,3.1-2.6c0.9-0.7,1.8-1.4,2.7-1.9
		c0.9-0.5,1.9-1.1,2.9-1.6l1.5-0.8c1.1-0.6,2.4-0.8,3.7-0.6c1.4,0.2,2.8,1.4,4.4,3.6c0.1,0.5,0.4,1.2,0.7,2.1c0.4,0.9,0.7,1.9,1,2.9
		c0.3,1,0.7,2,1,2.8c0.3,0.9,0.6,1.5,0.7,1.8l0.6,1.1c0.2,0.3,0.4,0.6,0.6,0.9c0.2,0.3,0.4,0.5,0.4,0.6l5.3,10.8v-3.6l-3.9-8
		c-0.1-0.1-0.2-0.3-0.4-0.6c-0.2-0.3-0.4-0.6-0.6-0.9l-0.6-1.1c-0.2-0.3-0.4-0.9-0.7-1.8c-0.3-0.9-0.7-1.8-1-2.8c-0.3-1-0.7-2-1-2.9
		c-0.4-0.9-0.6-1.6-0.7-2.1c-2.1-3-4-4.6-5.7-4.9c-1.7-0.3-3.3,0-4.8,0.7l-1.5,0.8c-2.2,1.1-4.2,2.5-6.1,3.9c-1.9,1.5-4.4,3.8-7.5,7
		l2.5,4.8l0.2,0.3c0.9,1.7,1.9,2.9,2.9,3.7c1.1,0.8,2.2,1.6,3.2,2.4l3.2,6l2.6,5l1.7,3.2c1.4,2.6,2.6,5.1,3.8,7.5
		c1.2,2.4,2.2,4.9,3.3,7.4c1.1,2.6,2.3,5.2,3.5,7.7c1.2,2.6,2.6,5.2,4,7.9l0.1,0.2c0.5,0.9,1,1.8,1.5,2.6c0.5,0.8,1.1,1.4,1.8,1.9
		c0.1,0.1,0.2,0.1,0.3,0.2v-2.3C841.5,323.6,840.7,322.5,840,321.2z"/>
	<path class="st1" d="M839,276.5c-0.9,0.9-0.9,1.6-0.1,2.4c0.6,0.5,1.7,1.1,3.4,1.7v-6.4C840.7,275.1,839.6,275.8,839,276.5z"/>
	<path class="st0" d="M7.4,123.8c0.5-0.4,0.7-0.7,0.7-0.8v-18.4l0.7-21.9c0-0.4,0-0.9-0.1-1.6c-0.1-0.7-0.1-1.2-0.1-1.4
		c0-0.5,0.1-1.2,0.2-2.2c0.1-1,0.3-2,0.4-3.1c0.2-1,0.3-2.1,0.4-3.1c0.1-1,0.2-1.7,0.4-2c-0.2-1.3-0.9-1.9-1.9-1.9
		c-0.9,0-1.7,0-2.3,0c-2.1,0-4.1,0.1-5.8,0.3v60.9l6.1-4C6.5,124.5,6.9,124.2,7.4,123.8z"/>
	<path class="st0" d="M12.1,62.6c-1.4-1-2.9-1.6-4.6-1.6H5.8c-1.9,0-3.9,0.1-5.8,0.4v2.1c0.8-0.1,1.7-0.2,2.5-0.3
		c1-0.1,2.2-0.1,3.3-0.1h1.8c1.3,0,2.5,0.4,3.6,1.2c1.1,0.8,1.8,2.6,2.2,5.3c-0.1,0.5-0.2,1.2-0.3,2.2c-0.1,1-0.3,2-0.4,3.1
		c-0.2,1.1-0.3,2-0.4,3c-0.1,0.9-0.2,1.6-0.2,1.9V81c0,0.4,0,0.7,0.1,1.1c0.1,0.3,0.1,0.6,0.1,0.7l-0.7,21.9V123
		c0,0.6-0.4,1.5-1.3,2.8c-0.9,1.3-1.7,2.2-2.5,2.8h0.2L0,133.7v2.2l7.5-5.1c0.1,0,0.2-0.1,0.4-0.2l0.5-0.4H8.2
		c1-0.9,2.1-2.2,3.1-3.9c1-1.6,1.6-2.8,1.6-3.5v-18.2l0.7-22.1c0-0.1,0-0.4-0.1-0.7c-0.1-0.4-0.1-0.7-0.1-1.1v-1.2
		c0-0.3,0.1-1,0.2-1.9c0.1-0.9,0.3-1.9,0.4-3c0.2-1,0.3-2.1,0.4-3.1c0.1-1,0.2-1.7,0.4-2.2C14.4,66,13.5,63.7,12.1,62.6z"/>
	<path class="st0" d="M507.3,228.2c0,1.6-0.7,3-2.2,4c-1.5,1.1-3.2,1.9-5.3,2.5c-2.1,0.6-4.4,1.1-6.9,1.4c-2.5,0.3-4.8,0.4-6.9,0.4
		h-4.4c-0.9,0-2.5-0.9-4.8-2.8c-2.3-1.9-4.8-4.3-7.7-7.2c-2.9-2.9-5.8-6.1-8.9-9.6c-3.1-3.5-5.9-6.9-8.5-10.2
		c-2.6-3.3-4.7-6.2-6.3-8.8c-1.6-2.6-2.5-4.4-2.5-5.4v-1.9c0.1-0.5,0.4-1.1,0.8-1.9c0.4-0.8,0.8-1.6,1.3-2.4
		c0.5-0.8,0.9-1.5,1.3-2.2c0.4-0.7,0.8-1.2,1.1-1.6l10.3-3.3c-2.3-1.5-4.3-3.2-6-4.9c-1.7-1.8-2.5-3.6-2.5-5.6
		c0-1.1,0.1-1.8,0.2-2.2c0.1-0.4,0.5-1.3,1-2.5l12.1-12.8c0.5-0.5,1.7-0.4,3.6,0.2c1.9,0.6,4.1,1.4,6.6,2.5c2.5,1,4.9,2.2,7.4,3.6
		c2.4,1.3,4.3,2.5,5.6,3.6l-0.2-0.2c0.5,0.5,1.2,1.3,2.3,2.4c1.1,1.1,2.2,2.3,3.5,3.5c1.3,1.2,2.5,2.5,3.7,3.7
		c1.2,1.2,2,2.1,2.6,2.7c0.2,0.3,0.5,0.9,0.7,1.7c0.2,0.8,0.5,1.5,0.7,2.4c0.2,0.8,0.4,1.6,0.5,2.4c0.1,0.8,0.2,1.5,0.2,1.9
		c0,2.8-0.5,5.2-1.6,7.1s-2.4,3.6-4,4.9c-1.6,1.3-3.5,2.5-5.6,3.3s-4.3,1.7-6.5,2.4c2.3,1.9,4.8,3.9,7.4,6.1
		c2.6,2.2,4.7,4.3,6.3,6.3c0.1,0.2,0.5,0.7,1.2,1.5c0.7,0.8,1.5,1.5,2.5,2.4c0.5,0.6,1,1.1,1.5,1.5c0.5,0.4,1,0.8,1.3,1.3
		c1.1,1,1.7,1.7,2,2c0.3,0.3,0.7,1,1.3,2.2c0.1,0,0.2,0.1,0.4,0.2C506.8,224.8,507.3,226.6,507.3,228.2z M505.4,228.2
		c0-1.2-0.5-2.6-1.6-4.4c-0.2-0.4-0.4-0.6-0.5-0.7l0.5,0.5c-0.6-0.8-1-1.4-1.1-1.7c-0.2-0.3-0.8-1-2-2.2c-0.4-0.4-0.8-0.7-1.2-1.1
		c-0.5-0.4-0.9-0.9-1.4-1.5c-1-0.9-2-1.9-3-2.9c-0.9-1-1.4-1.6-1.4-1.8c-1.3-1.6-3.2-3.5-5.8-5.7c-2.6-2.2-5-4.2-7.4-6.2
		c-0.6-0.5-1.1-0.9-1.7-1.2s-1-0.6-1.3-0.9c0.1-0.1,0.3-0.2,0.4-0.3c0.2-0.1,0.4-0.1,0.6-0.3c2.1-0.6,4.3-1.3,6.6-2
		c2.3-0.8,4.3-1.8,6.2-3c1.9-1.2,3.4-2.7,4.5-4.6c1.2-1.8,1.8-4.1,1.8-6.7c0-0.5-0.1-1.1-0.2-1.8c-0.1-0.7-0.3-1.4-0.4-2.1
		c-0.2-0.7-0.4-1.3-0.6-1.9c-0.2-0.6-0.4-1-0.5-1.2c-0.6-0.7-1.4-1.6-2.4-2.8c-1.1-1.2-2.2-2.4-3.4-3.6s-2.4-2.4-3.5-3.4
		c-1.1-1-1.9-1.8-2.4-2.1v0.2c-1.2-1-2.8-2.2-5-3.5c-2.2-1.3-4.3-2.5-6.5-3.6c-2.2-1.1-4.1-2-5.8-2.5c-1.7-0.6-2.7-0.7-3.1-0.4
		L452,165.5c-0.5,0.9-0.7,1.5-0.8,1.8c-0.1,0.2-0.1,0.8-0.1,1.6c0,2,1.2,3.9,3.6,5.8c2.4,1.9,4.9,3.6,7.6,5.3l-13.8,4.7
		c-0.6,0.6-1.3,1.6-2.1,3.1c-0.8,1.5-1.3,2.5-1.6,3.2v1.8c0,1,0.8,2.8,2.4,5.3c1.6,2.5,3.6,5.2,6,8.3c2.4,3.1,5.1,6.3,8,9.6
		c2.9,3.3,5.7,6.4,8.5,9.1c2.7,2.7,5.2,5,7.4,6.8c2.2,1.8,3.6,2.7,4.5,2.7h4.4c1.9,0,3.9-0.1,6.2-0.3c2.3-0.2,4.4-0.5,6.4-1
		c2-0.5,3.6-1.2,4.9-1.9C504.7,230.5,505.4,229.5,505.4,228.2z M501,228.2c0,0.4-0.5,0.6-1.5,0.9c-1,0.2-2.2,0.4-3.8,0.6
		c-1.5,0.2-3.1,0.3-4.9,0.3c-1.8,0.1-3.4,0.1-4.9,0.1h-4.4c-0.8,0-2.2-0.8-4-2.4c-1.9-1.6-4-3.6-6.4-6.1c-2.4-2.5-4.9-5.3-7.5-8.2
		c-2.6-3-5-5.9-7.2-8.7c-2.2-2.8-3.9-5.3-5.3-7.4c-1.4-2.2-2.1-3.7-2.1-4.6V192c0.2-0.6,0.5-1.3,0.9-2.1c0.4-0.8,0.6-1.2,0.7-1.2
		l22.9-7.7c-0.6-0.4-1.9-1-3.9-2.1c-2-1-4-2.2-6.1-3.4c-2.1-1.2-4-2.5-5.6-3.7c-1.6-1.2-2.4-2.2-2.4-2.9V168l11.4-12.1
		c0.1-0.1,0.8,0.2,1.9,1c1.2,0.8,2.5,1.7,4.1,2.8c1.6,1.1,3.1,2.3,4.7,3.5c1.6,1.2,2.9,2.2,3.9,3.1c0.5,0.3,1.3,1.1,2.5,2.3
		c1.2,1.2,2.5,2.4,3.8,3.7c1.3,1.3,2.4,2.5,3.4,3.5c1,1.1,1.5,1.7,1.7,1.9c0.1,0.1,0.2,0.7,0.4,1.7c0.1,1,0.2,1.8,0.2,2.4
		c0,2.3-0.8,4.3-2.5,5.8c-1.6,1.5-3.6,2.7-5.9,3.7c-2.3,0.9-4.6,1.7-7.1,2.4c-2.4,0.6-4.5,1.3-6.3,2v3.3c0,0.2,0.8,1,2.4,2.3
		c1.6,1.3,3.4,2.7,5.4,4.4c2,1.6,4.1,3.3,6,5c2,1.7,3.4,3,4.2,3.9c0,0.2,0.3,0.7,0.9,1.4c0.6,0.7,1.3,1.5,2.1,2.3
		c0.8,0.8,1.7,1.7,2.5,2.5s1.7,1.7,2.4,2.4c1.1,0.9,1.6,1.5,1.8,1.8c0.1,0.2,0.5,0.8,1.1,1.8C500.8,227.4,501,228,501,228.2z
		 M496.6,175.3c0.1,0,0-0.2-0.4-0.5L496.6,175.3z M497.3,172.9v0.2c0.1,0,0.2,0.1,0.2,0.2L497.3,172.9z"/>
	<path class="st0" d="M256.8,59.3c-0.2-1.9-0.7-5.1-1.4-9.6c-1.9,0.6-3.9,1.3-6.1,2c-2.2,0.8-4,1.4-5.3,1.8c0-4.1,0-7.1-0.1-9.1
		c-0.1-2-0.1-3.4-0.2-4.2c-0.1-0.8-0.1-1.3-0.2-1.4c-0.1-0.1-0.1-0.4-0.1-0.9c0-0.6,0-1.1-0.1-1.6c-0.1-0.5-0.1-1.2-0.1-2.1V21.3
		c4.9,0,8.7-0.1,11.5-0.3c2.7-0.2,5.1-0.4,7.1-0.8c2-0.2,4.1-0.4,6.2-0.6c2.2-0.2,4.9-0.3,8.1-0.3c4.7,0,9,0.6,12.9,1.8
		c3.9,1.2,7.3,3.2,10.1,5.8c2.8,2.6,5,6,6.6,10.1c1.6,4.1,2.4,9,2.4,14.7c0,8.1-1.2,14.9-3.7,20.6c-2.5,5.7-5.7,10.4-9.9,14.1
		c-4.1,3.7-8.9,6.7-14.3,8.8c-5.4,2.2-11,3.7-16.8,4.6c-0.7,0.1-1.4,0.3-2.1,0.4c-0.7,0.2-1.4,0.4-2.1,0.6c-0.6,0.2-1.1,0.4-1.6,0.6
		c-0.5,0.2-1.2,0.4-2.1,0.5c-0.9,0.2-2.2,0.3-3.8,0.4c-1.6,0.1-3.8,0.2-6.7,0.2v-7.5c0-0.1,0-0.2,0.1-0.3c0.1-0.1,0.1-0.3,0.1-0.5
		l-1.8-20.8l13.7-2.1v-8C257.2,62.5,257,61.2,256.8,59.3z M271.3,44.1c2.6,0,3.9,0.3,4,0.9c-1.4,0.1-2.6,0.3-3.7,0.4
		c-1.1,0.2-2.2,0.4-3.5,0.6h0.2c-0.5,0.1-1.2,0.3-2.2,0.4c-1,0.2-2,0.4-3.1,0.5c-1.1,0.2-2.2,0.4-3.2,0.5c-1.1,0.2-1.9,0.3-2.6,0.4
		c0.9,5.6,1.5,9.4,1.7,11.4c0.2,2,0.3,3.3,0.3,4V71l9.5-0.7c-0.7,0.2-1.5,0.5-2.5,0.9c-1,0.3-2.1,0.8-3.4,1.2l-17,2.8l1.6,19.1v0.9
		v5.4c2.2,0,4-0.1,5.3-0.2c1.3-0.1,2.3-0.2,3.1-0.3c0.8-0.1,1.3-0.3,1.8-0.4c0.4-0.2,0.9-0.4,1.5-0.6c0.6-0.1,1.2-0.3,1.9-0.4
		c0.7-0.2,1.5-0.4,2.4-0.6c5.6-0.9,11-2.4,16.2-4.5c5.2-2,9.8-4.9,13.7-8.5c4-3.6,7.1-8.1,9.5-13.6c2.4-5.4,3.6-12,3.6-19.7
		c0-5.4-0.7-10-2.2-13.8c-1.5-3.9-3.5-7-6.2-9.5c-2.7-2.5-5.9-4.3-9.5-5.4c-3.7-1.2-7.7-1.8-12-1.8c-3,0-5.6,0.1-7.8,0.3
		c-2.2,0.2-4.2,0.5-6.2,0.7c-2,0.4-4.3,0.6-6.8,0.8c-2.6,0.2-6,0.3-10.2,0.3v10.9c0,0.8,0,1.5,0.1,1.9c0.1,0.5,0.1,1,0.3,1.6
		c0,0.4,0,0.7,0.1,1c0.1,0.3,0.1,0.8,0.2,1.6c0.1,0.8,0.1,2,0.1,3.6c0,1.5,0,3.7,0,6.6c0.8-0.2,1.9-0.6,3.2-1c1.3-0.5,2.7-0.9,4-1.4
		c1.3-0.5,2.6-0.9,3.7-1.2c1.1-0.4,1.8-0.6,2.2-0.9c0.4-0.1,0.7-0.2,1.1-0.4c0.4-0.1,0.6-0.2,0.6-0.4c0.7,0,1.3-0.1,1.9-0.2
		L271.3,44.1z M261.5,40.7c-0.1,0.1-0.5,0.2-1.1,0.2c-0.6,0-1.6,0.3-3.1,1c-1.5,0.6-3.9,1.5-7.3,2.7c0-2.7-0.1-4.8-0.4-6.4
		c-0.2-1.6-0.4-2.9-0.4-3.9V28c2.7,0,5.1-0.1,7.2-0.4c2.1-0.2,4.2-0.5,6.2-0.7c2-0.2,4.1-0.5,6.2-0.7c2.1-0.2,4.5-0.4,7.2-0.4
		c7.6,0,13.7,2,18.5,6.1c4.7,4.1,7.1,10.7,7.1,19.8c0,6.9-1.1,12.8-3.2,17.7c-2.2,4.9-5,9-8.7,12.3c-3.6,3.3-7.8,5.9-12.5,7.8
		c-4.7,1.9-9.7,3.3-15,4.1c-2.1,0.2-4,0.7-5.6,1.4c-1.6,0.7-3.4,1-5.4,1c0.1-1.2,0.2-1.8,0.2-1.9l-1.4-15l13.3-2.3
		c2.8-0.8,5.1-1.6,6.9-2.4c1.8-0.8,3.3-1.6,4.4-2.5c1.1-0.9,2-1.9,2.7-3c0.7-1.1,1.4-2.5,2.1-4.1l-16.1,1.2v-1.2c0-0.8,0-2-0.1-3.7
		c-0.1-1.6-0.5-4.8-1.3-9.6c2-0.2,3.7-0.5,5.2-0.8c1.5-0.3,2.8-0.6,4.1-0.8c1.3-0.2,2.6-0.4,4-0.6c1.4-0.2,3-0.3,4.7-0.4
		c-0.2-2.2-0.4-4-0.4-5.3c-0.1-1.3-0.3-2.2-0.8-2.8c-0.5-0.6-1.3-0.9-2.5-1c-1.2-0.1-3.1-0.2-5.5-0.2L261.5,40.7z"/>
	<path class="st0" d="M302.9,89.6c0-0.6,0-1.3-0.1-2.1c-0.1-0.8-0.1-1.6-0.1-2.3v-6.5c0-0.5-0.1-1-0.3-1.5c-0.2-0.5-0.3-0.9-0.4-1.1
		l0.7,0.9c-0.2-0.5-0.6-1.1-1-1.8c-0.4-0.8-0.8-1.5-1.1-2.4c-0.4-0.8-0.6-1.5-0.9-2.2c-0.2-0.6-0.4-1.1-0.4-1.3
		c0-0.5,0.3-1.2,0.9-2.1c0.6-0.9,1.3-1.8,2.2-2.7s1.8-1.7,2.6-2.4s1.7-1,2.4-1H332v21.9c1.4,0,2.8-0.1,4.2-0.4
		c1.4-0.2,2.4-0.6,3-1.2v-1.8c0-0.7,0-1.4,0.1-2c0.1-0.6,0.1-1.1,0.1-1.5v-1c0-0.9,0-1.8-0.1-2.7c-0.1-0.9-0.2-1.8-0.4-2.9
		c-0.2-1.1-0.5-2.2-0.9-3.6c-0.4-1.3-1-2.9-1.7-4.8c2.9-3,5.5-5,7.9-5.8c2.3-0.8,4.5-1.2,6.5-1.2h5.4c0.2,0,0.5,0,0.9,0.1
		c0.3,0.1,0.8,0.1,1.2,0.1h7.7c0.4,0.8,0.8,1.9,1.2,3.2c0.5,1.3,0.9,2.7,1.3,4c0.4,1.3,0.8,2.6,1,3.8c0.3,1.2,0.4,1.9,0.4,2.3
		c0,9.5-0.4,19.2-1.1,29.1c-0.8,10-2.2,20.3-4.5,30.9c-0.6,0.5-1.7,1.2-3.3,2.1c-1.6,0.9-3.4,1.9-5.2,2.9c-1.8,1-3.5,1.9-5.1,2.7
		c-1.6,0.8-2.7,1.3-3.4,1.6h0.2c-0.2,0-0.8,0.1-1.8,0.2c-0.9,0.1-2,0.2-3.3,0.4c-1.3,0.1-2.6,0.2-3.8,0.4c-1.3,0.1-2.3,0.2-3,0.2
		c0-2.9,0.1-5.5,0.2-7.6c0.1-2.2,0.3-4.1,0.4-5.8c0.2-1.7,0.4-3.2,0.6-4.6c0.2-1.3,0.5-2.7,0.7-3.9c0.2-1.5,0.5-3,0.8-4.5
		c0.3-1.5,0.5-3,0.6-4.6c-1.4,0.1-3.4,0.2-5.9,0.4c-2.5,0.1-5.1,0.2-7.9,0.4c-2.7,0.1-5.4,0.2-7.9,0.3c-2.5,0.1-4.5,0.1-5.9,0.1
		h-8.2L302.9,89.6z M305,105.8h6.5c1.6,0,3.9,0,6.9-0.1c3-0.1,6-0.1,9-0.3c3-0.1,5.8-0.2,8.3-0.4c2.5-0.1,4.1-0.2,4.6-0.3h0.9
		c-0.1,2-0.3,3.9-0.6,5.8c-0.3,1.9-0.7,3.7-1.1,5.6c-0.5,2.7-0.9,5.5-1.2,8.3c-0.4,2.9-0.5,6.6-0.5,11.3c0.5,0,1.2-0.1,2.1-0.2
		c0.9-0.1,1.9-0.2,2.9-0.4c1-0.1,1.9-0.2,2.6-0.4c0.8-0.1,1.2-0.2,1.3-0.2v0.2c0.6-0.2,1.6-0.7,3.1-1.5c1.5-0.8,3.1-1.6,4.8-2.5
		c1.7-0.9,3.3-1.8,4.7-2.6c1.5-0.9,2.5-1.5,3.1-1.8c2.2-10.5,3.7-20.6,4.5-30.4c0.8-9.8,1.1-19.3,1.1-28.5c0-0.3-0.1-1-0.4-2
		c-0.2-1-0.5-2.1-0.9-3.2c-0.4-1.2-0.7-2.3-1-3.4c-0.4-1.1-0.7-2-1.1-2.5h-6.5c-0.5,0-0.9,0-1.2-0.1c-0.4-0.1-0.6-0.1-0.9-0.1h-5.4
		c-1.6,0-3.5,0.3-5.5,1c-2,0.6-4.2,2.1-6.4,4.5c1.3,3.1,2,5.7,2.2,7.5c0.2,1.9,0.3,3.9,0.3,6v1c0,0.4,0,0.8-0.1,1.5
		c-0.1,0.6-0.1,1.3-0.1,2V82c-0.8,1.3-2.2,2.1-4.2,2.4c-2,0.4-4,0.5-6,0.5h-1V63.1h-22.4c-0.5,0-1,0.3-1.8,0.8
		c-0.7,0.5-1.3,1.1-1.9,1.8c-0.6,0.6-1.1,1.3-1.6,2c-0.5,0.7-0.7,1.2-0.7,1.6c0,0.6,0.3,1.6,1,3c0.6,1.4,1.3,2.5,1.8,3.1l-0.5-0.3
		c0.2,0.2,0.4,0.7,0.5,1.3c0.1,0.6,0.3,1.2,0.5,1.7v7.2c0,0.7,0,1.4,0.1,2.2c0.1,0.8,0.1,1.4,0.1,2V105.8z M309.2,89.4
		c0-1.4,0-2.8-0.1-4.3c-0.1-1.5-0.1-2.9-0.1-4.3v-3c0-0.5-0.2-1.3-0.6-2.6c-0.4-1.3-0.7-2.1-1-2.5c-0.2-0.2-0.6-0.8-1-1.8
		c-0.4-0.9-0.6-1.5-0.6-1.8c0-0.2,0.2-0.6,0.6-1c0.4-0.5,0.7-0.7,1-0.7h18.2v21.9h5.3c2.8,0,5.7-0.4,8.7-1.2c3-0.8,4.9-2.6,5.9-5.3
		c0-0.6,0-1.7,0.1-3.4c0.1-1.7,0.1-2.8,0.1-3.4c0-2.7-0.1-5-0.2-7c-0.1-2-0.6-4.1-1.6-6.5c1.3-1.4,3-2.1,5.3-2
		c2.2,0.1,4,0.1,5.4,0.1h1.6h4.4h1.4c0.4,0.7,0.7,1.9,1.1,3.5c0.4,1.6,0.6,2.7,0.6,3.3c0,9.3-0.3,18.7-1,28.2
		c-0.6,9.4-2,18.8-3.9,28c-0.4,0.4-1.1,0.8-2.4,1.5c-1.2,0.6-2.6,1.3-4,2.1c-1.5,0.8-2.8,1.5-4.1,2.1c-1.3,0.6-2.2,1-2.8,1.1
		c-0.2,0.1-0.8,0.3-1.8,0.4c-0.9,0.2-1.5,0.3-1.8,0.3c0-4.8,0.6-9.5,1.8-14.2c1.2-4.7,1.8-9.4,1.8-14.2c0-2-0.3-2.9-1-2.7
		c-0.6,0.2-2.1,0.3-4.3,0.3h-0.9c-0.6,0.1-2.1,0.2-4.5,0.3c-2.4,0.1-5,0.2-8,0.4c-2.9,0.1-5.8,0.2-8.8,0.3c-2.9,0.1-5.2,0.1-6.8,0.1
		h-2.1L309.2,89.4z"/>
	<path class="st0" d="M485.7,63.3c-0.3,0.8-0.7,1.8-1.3,2.8l-0.2,0.2c-0.6,1.2-1,1.9-1.2,2.1c-0.2,0.2-0.8,0.8-1.8,1.8
		c-0.6,0.7-1.3,1.5-2.1,2.3c-0.8,0.8-1.6,1.6-2.3,2.3c-0.7,0.7-1.3,1.5-1.9,2.4c-0.6,0.9-0.8,0.8-0.5-0.1c-1.6,2-3.7,4.1-6.3,6.5
		c-2.6,2.3-5,4.4-7.3,6.3c2.1,0.7,4.2,1.5,6.4,2.3c2.2,0.8,4.1,1.9,5.7,3.2c1.6,1.3,3,3,4,4.9s1.6,4.3,1.6,7.1c0,0.5-0.1,1.1-0.3,2
		s-0.4,1.8-0.6,2.7c-0.2,0.9-0.5,1.8-0.8,2.5c-0.3,0.8-0.5,1.2-0.6,1.3c-0.7,0.7-1.6,1.7-2.8,2.9c-1.2,1.2-2.4,2.4-3.6,3.6
		c-1.2,1.2-2.4,2.3-3.4,3.3c-1,1.1-1.8,1.8-2.1,2.1l0.2-0.2c-1.3,1-3.2,2.2-5.6,3.6c-2.4,1.3-4.9,2.5-7.3,3.6s-4.6,1.9-6.6,2.5
		c-1.9,0.6-3.1,0.6-3.6,0.2l-12.1-12.8c-0.6-1.3-0.9-2.1-1.1-2.5c-0.1-0.4-0.2-1.1-0.2-2c0-2,0.8-3.8,2.5-5.6c1.7-1.8,3.7-3.4,6-4.9
		l-10.3-3.5c-0.3-0.3-0.7-0.9-1.1-1.6c-0.4-0.7-0.8-1.4-1.3-2.2c-0.5-0.8-0.9-1.5-1.3-2.4c-0.4-0.8-0.7-1.5-0.8-1.9V96
		c0-1.1,0.8-2.9,2.5-5.4c1.6-2.6,3.7-5.5,6.3-8.8c2.6-3.3,5.4-6.6,8.5-10.1c3.1-3.5,6.1-6.7,8.9-9.6c2.9-2.9,5.4-5.3,7.7-7.2
		c2.3-1.9,3.9-2.8,4.8-2.8h4.4c2.1,0,4.4,0.1,6.9,0.4c2.5,0.3,4.8,0.8,6.9,1.4c2.1,0.6,3.9,1.5,5.3,2.5c1.5,1.1,2.2,2.4,2.2,4
		C486.1,61.6,486,62.5,485.7,63.3z M482.3,57.5c-1.3-0.8-2.9-1.5-4.9-2c-2-0.5-4.1-0.9-6.4-1c-2.3-0.2-4.3-0.3-6.2-0.3h-4.4
		c-0.8,0-2.3,0.9-4.5,2.7c-2.2,1.8-4.6,4.1-7.4,6.8c-2.7,2.7-5.6,5.8-8.5,9.1c-2.9,3.3-5.6,6.5-8,9.6c-2.5,3.1-4.5,5.9-6,8.4
		c-1.6,2.5-2.4,4.2-2.4,5.2v1.8c0.2,0.7,0.8,1.8,1.6,3.3c0.8,1.5,1.5,2.6,2.1,3.1l14.2,4.7c-2.9,1.6-5.6,3.4-8,5.3
		c-2.4,1.9-3.6,3.8-3.6,5.8c0,0.7,0,1.2,0.1,1.4c0.1,0.2,0.3,0.8,0.8,1.8l11.9,12.8c0.3,0.4,1.4,0.2,3.1-0.4
		c1.7-0.6,3.6-1.5,5.8-2.5c2.2-1,4.3-2.2,6.5-3.5c2.2-1.3,3.8-2.5,5-3.5c0.5-0.4,1.3-1,2.4-2c1.1-1,2.3-2.1,3.5-3.3
		c1.2-1.2,2.4-2.4,3.4-3.6c1-1.2,1.9-2.1,2.5-2.8c0.1-0.1,0.3-0.5,0.5-1.1c0.2-0.6,0.4-1.3,0.6-2c0.2-0.7,0.3-1.4,0.4-2.1
		c0.1-0.7,0.2-1.3,0.2-1.8c0-2.8-0.6-5.1-1.8-6.9c-1.2-1.8-2.7-3.3-4.6-4.5c-1.9-1.2-3.9-2.2-6.2-3c-2.3-0.8-4.5-1.4-6.6-2
		c-0.2-0.1-0.5-0.2-0.7-0.2c-0.1,0-0.2-0.1-0.3-0.2c0.3-0.2,0.8-0.5,1.3-0.9c0.5-0.4,1.1-0.8,1.7-1.4c2.3-2,4.8-4,7.3-6.1
		c2.6-2.1,4.5-4,5.8-5.6l2.8-3.1c0.8-0.8,1.6-1.6,2.4-2.4c0.8-0.8,1.4-1.5,2-2.2c1-1,1.7-1.7,1.8-1.9c0.2-0.2,0.6-0.8,1.1-1.8
		l-0.4,0.5c0.2-0.2,0.4-0.4,0.4-0.5c0-0.1,0.1-0.2,0.2-0.4c0.9-1.4,1.4-2.8,1.4-4.2C484.2,59.4,483.6,58.4,482.3,57.5z M479.3,62.3
		c-0.6,0.9-0.9,1.5-1,1.8c-0.1,0.2-0.7,0.8-1.8,1.8c-0.7,0.7-1.5,1.5-2.4,2.5c-0.9,0.9-1.7,1.8-2.5,2.6c-0.8,0.8-1.5,1.5-2.1,2.2
		c-0.6,0.6-0.9,1.1-0.9,1.3c-0.8,1-2.2,2.4-4.2,4c-2,1.6-4,3.3-6,4.9c-2,1.6-3.8,3.1-5.4,4.4c-1.6,1.3-2.4,2-2.4,2.3v3.3
		c1.8,0.7,3.8,1.4,6.3,2.1s4.8,1.5,7.1,2.5c2.3,0.9,4.2,2.1,5.9,3.6c1.6,1.5,2.5,3.4,2.5,5.9c0,0.6-0.1,1.4-0.2,2.4
		c-0.1,1-0.2,1.5-0.4,1.5c-0.1,0.2-0.7,0.9-1.7,1.9c-1,1.1-2.1,2.2-3.4,3.5c-1.3,1.3-2.5,2.5-3.8,3.7c-1.2,1.2-2.1,1.9-2.5,2.3
		c-1,0.9-2.4,2-3.9,3.1c-1.6,1.2-3.1,2.3-4.7,3.4c-1.6,1.1-2.9,2-4.1,2.8c-1.2,0.8-1.8,1.1-1.9,1l-11.4-12.1V120
		c0-0.8,0.8-1.8,2.5-3c1.7-1.2,3.6-2.4,5.7-3.6c2.1-1.2,4.1-2.3,6-3.3c1.9-1,3.2-1.8,3.8-2.4l-22.9-7.5c-0.1-0.1-0.4-0.6-0.7-1.4
		c-0.3-0.8-0.6-1.5-0.9-2.1V96c0-0.9,0.7-2.5,2.1-4.6c1.4-2.2,3.2-4.6,5.3-7.4c2.2-2.8,4.5-5.7,7.2-8.7s5.1-5.7,7.5-8.2
		c2.4-2.5,4.5-4.5,6.4-6.1c1.9-1.6,3.2-2.4,4-2.4h4.4c1.5,0,3.2,0,4.9,0.1c1.8,0.1,3.4,0.2,4.9,0.4c1.5,0.2,2.8,0.4,3.8,0.6
		c1,0.2,1.5,0.5,1.5,0.9C479.8,61,479.7,61.6,479.3,62.3z M475.1,114.1c0.1-0.1,0.2-0.2,0.2-0.4c0-0.1,0.1-0.2,0.2-0.4L475.1,114.1z
		 M477,114.9c-0.1,0.1-0.2,0.3-0.4,0.5l0.7-0.9C477.1,114.7,477,114.8,477,114.9z"/>
	<path class="st0" d="M537.9,104.1c0-6.1,1.2-11.6,3.6-16.5c2.4-5,5.5-9.4,9.2-13.3c3.7-3.9,7.9-7.4,12.5-10.3
		c4.6-3,9.2-5.6,13.7-7.8l-0.4,0.4c0.6-0.4,1.3-0.7,2.2-1c0.9-0.3,1.7-0.6,2.4-0.8l-0.5,0.2l2.6-1.1h2.3c0.8,0,2.2,1,4.1,2.9
		c1.9,1.9,3.9,4.2,5.9,6.7c2,2.6,3.7,5,5.2,7.4c1.5,2.4,2.2,4,2.2,4.8c-1.8,3.4-3.6,5.6-5.6,6.6c1.8,0.6,3.4,1.3,5,2.3
		c1.6,0.9,2.8,2,3.8,3.3l7.3,6.1c-1,2.2-1.9,3.9-2.5,5.2c-0.6,1.2-1,2.2-1.3,3c-0.3,0.8-0.5,1.4-0.7,2c-0.2,0.6-0.4,1.3-0.8,2.1
		c-1,3.1-2.3,6.5-3.7,10s-2.9,6.8-4.6,9.8c-1.7,3-3.6,5.5-5.7,7.5c-2.1,2-4.4,3-7,3c-2.5,0-5.4-0.3-8.8-0.9
		c-3.4-0.6-6.9-1.5-10.6-2.7c-3.7-1.2-7.3-2.7-10.9-4.5c-3.6-1.8-6.7-3.9-9.5-6.4c-2.8-2.4-5.1-5.2-6.8-8.1
		C538.8,111,537.9,107.7,537.9,104.1z M540,104.1c0,3.4,0.8,6.5,2.5,9.3c1.6,2.8,3.8,5.3,6.6,7.6c2.7,2.3,5.8,4.3,9.2,5.9
		c3.4,1.7,6.8,3.1,10.3,4.2c3.5,1.1,6.9,2,10.2,2.5c3.3,0.6,6.1,0.9,8.4,0.9c2.2,0,4.3-1,6.2-2.9s3.7-4.3,5.3-7.2
		c1.6-2.9,3-6,4.3-9.4c1.3-3.4,2.5-6.5,3.5-9.4v0.2c0.2-0.8,0.4-1.5,0.6-2.2c0.2-0.6,0.4-1.3,0.7-2.1c0.3-0.8,0.7-1.7,1.1-2.7
		c0.5-1,1.2-2.5,2.1-4.2l-6.3-5.1c-0.6-1.1-1.5-2-2.6-2.8c-1.2-0.8-2.5-1.5-3.8-2.1c-1.4-0.6-2.8-1.1-4.1-1.4
		c-1.3-0.3-2.5-0.6-3.6-0.9c0.9-0.2,1.8-0.5,2.7-0.8c0.9-0.3,1.6-0.6,2.2-0.8c1.9-0.6,3.7-2.3,5.6-5.1c0-0.8-0.6-2.3-1.9-4.5
		c-1.3-2.2-2.8-4.4-4.5-6.6s-3.5-4.3-5.2-6c-1.7-1.8-2.9-2.6-3.8-2.6h-1.9c-1.2,0.6-1.9,0.9-2.3,1l0.3-0.2c-0.7,0.2-1.5,0.5-2.3,0.8
		c-0.8,0.3-1.5,0.6-2.1,1l0.5-0.5c-4.4,2.1-8.9,4.6-13.3,7.4c-4.4,2.9-8.5,6.2-12.2,10c-3.7,3.8-6.7,8-8.9,12.8
		C541.2,93,540,98.3,540,104.1z M544.2,104.1c0-5.3,1.1-10,3.2-14.3c2.2-4.3,5-8.1,8.4-11.5c3.4-3.4,7.3-6.5,11.5-9.2
		c4.2-2.7,8.3-5,12.4-7c0.2-0.2,1-0.5,2.4-0.9c1.3-0.4,2.2-0.6,2.5-0.9h0.9c0.6,0,1.5,0.7,2.7,2.1s2.5,3,3.7,4.7
		c1.2,1.8,2.3,3.5,3.2,5.2c0.9,1.7,1.4,2.8,1.4,3.4c-2.8,0.9-5.3,1.8-7.4,2.5c-2.2,0.8-4.5,1.7-7.2,2.7c-2.6,1.1-5.1,2.2-7.4,3.5
		c2,0.2,4.1,0.5,6.2,0.8c2.2,0.3,4.6,0.7,7.3,1.3c0.7,0.1,1.8,0.3,3.2,0.6c1.5,0.3,2.9,0.7,4.4,1.1c1.5,0.5,2.7,1,3.8,1.7
		c1,0.6,1.6,1.4,1.6,2.2l4.5,3.7c-0.8,1.8-1.9,4.5-3.1,8.3c-1.3,3.8-2.7,7.6-4.4,11.5c-1.6,3.9-3.4,7.2-5.3,10.2
		c-1.9,2.9-3.7,4.4-5.6,4.4c-3.3,0-7.3-0.6-12.2-1.7c-4.8-1.1-9.5-2.7-14.1-4.9c-4.5-2.2-8.5-4.9-11.7-8.1
		C545.9,112.2,544.2,108.4,544.2,104.1z M577.8,109.7c2.9-0.8,5.1-2,6.6-3.4c1.5-1.5,1.9-2.9,1.1-4.2c-0.8-1.3-2.8-2.4-6.1-3.1
		c-3.3-0.8-8.3-1-15-0.6c0.4,1.4,1,2.8,2,4.1c1,1.3,2.2,2.5,3.5,3.6c1.3,1.1,2.7,1.9,4.1,2.6C575.6,109.3,576.8,109.7,577.8,109.7z
		 M572.6,102.7c6.1,0.1,9.1,0.4,9.1,0.7c0,0.6-1.5,1.2-4.5,1.9C575.9,105.1,574.3,104.2,572.6,102.7z"/>
	<path class="st0" d="M689.3,106.5l15.4-20.8c-1.9,0-3.9,0.1-6,0.4c-2.2,0.3-4.8,0.8-7.8,1.7c-3,0.8-6.6,1.9-10.8,3.3
		c-4.1,1.4-9.1,3.3-15,5.8l22-38.5h66.2L728,96.9l-13.5,21.7c-0.5,0.5-0.7,1.3-0.8,2.5c-0.1,1.2-0.1,2-0.1,2.6
		c0,0.5,0.2,0.9,0.5,1.4c0.1,0.2,0.3,0.4,0.4,0.5c0.2,0.1,0.3,0.3,0.4,0.5c0.1,0.2,0.2,0.6,0.3,1.1c0.1,0.5,0.2,1.2,0.2,2.1
		c0,2.1-0.7,3.8-2.1,5.2c-1.4,1.3-4,2-7.7,2h-40.3c2.8-4.1,5.8-8.2,9.1-12.3c3.3-4.1,6-7.5,8.2-10.1c1.5-1.6,2.8-3.1,3.9-4.6
		c1.1-1.4,2-2.4,2.5-3.1V106.5z M691.1,107.6c-0.6,0.7-1.5,1.8-2.7,3.2c-1.2,1.5-2.6,3-4.1,4.6c-1.8,2-4,4.8-6.7,8.4
		c-2.7,3.6-5.4,7.1-8,10.5h36.2c2.9,0,5-0.4,6.1-1.3c1.2-0.9,1.8-2.1,1.8-3.8c0-1.4-0.2-2.2-0.5-2.4c-0.4-0.2-0.6-0.5-0.9-1l0.2,0.2
		c-0.2-0.3-0.4-0.7-0.6-1.1c-0.2-0.4-0.3-0.8-0.3-1.3c0-0.7,0.1-1.8,0.3-3.3c0.2-1.5,0.7-2.7,1.7-3.5l13-21h-0.2l23.1-35.4h-60.9
		l-18.6,32c4.9-2,9.1-3.6,12.7-4.7c3.6-1.2,6.7-2.1,9.5-2.7c2.7-0.6,5.2-1.1,7.3-1.2c2.1-0.2,4.1-0.3,6.1-0.3h3.3l-17.9,24H691.1z
		 M707.4,79.2c-3.1-0.1-6.1,0-9.1,0.3c-3,0.2-5.9,0.6-8.9,1.2c-3,0.6-6.1,1.6-9.4,3l10.8-18.7h50.4l-18.7,28.5l-12.8,20.8
		c-0.7,0.6-1.2,1.3-1.6,2.2c-0.3,0.9-0.6,1.8-0.8,2.7c-0.2,0.9-0.3,1.8-0.3,2.6c0,0.8,0,1.5,0,1.9c0,1.3,0.2,2.3,0.7,3.1
		c0.5,0.8,0.8,1.5,1,1.9c0.2,0.5,0.2,0.8-0.2,1c-0.4,0.2-1.3,0.3-3,0.3h-27.6c0.7-0.8,1.8-2.2,3.3-4c1.5-1.9,3.1-3.8,4.8-5.8
		c1.7-2,3.3-3.9,4.8-5.8c1.5-1.9,2.6-3.3,3.3-4.2l23.1-31C713.9,79.2,710.5,79.2,707.4,79.2z"/>
	<path class="st0" d="M433.7,129.2c1.6-1.9,3.6-2.8,5.8-2.8c0.1,0,0.5,0,1,0.1c0.6,0.1,0.9,0.1,1.1,0.1l0.2,0.2h4.7l8.4,0.4
		c1.3,3.1,2,5.4,2.2,6.8c0.2,1.4,0.3,2.6,0.3,3.5c0,0.9,0,1.7-0.1,2.4c-0.1,0.6-0.1,1.2-0.3,1.7l-1.1,2.4c3.3,3.7,6,8,8.1,12.8
		c2.1,4.8,3.1,9.2,3.1,13.3c0,5-0.9,10.1-2.7,15.1c-1.8,5.1-4.3,9.7-7.6,13.7c-3.3,4.1-7.1,7.4-11.5,10c-4.4,2.6-9.1,3.8-14.1,3.8
		c-0.8,0-1.6,0-2.3-0.1c-0.7-0.1-1.5-0.1-2.3-0.3l-0.5,0.9l0.2-0.2c-0.6,2-1.5,3.6-2.7,4.7c-1.2,1.2-2.6,2.1-4.2,2.7
		c-1.6,0.6-3.2,1.1-5,1.3c-1.8,0.2-3.4,0.3-4.9,0.3h-13.3l7.9-20c-5.3-4.3-8.6-9.5-10.1-15.6l0.4,0.5c-0.2-0.9-0.6-2.1-1-3.5
		c-0.4-1.4-0.6-2.9-0.6-4.4c0-1.6,0-3.2,0.1-4.7c0.1-1.5,0.1-2.7,0.3-3.7c0-5.3,0.6-9.6,1.7-13c1.1-3.4,2.7-6.3,4.9-8.7
		c2.2-2.4,4.8-4.5,8-6.4c3.2-1.9,6.9-3.9,10.9-6l-0.9,1.4c1.6-1.2,3.5-2.1,5.7-2.7c2.2-0.6,4.2-1.1,6.2-1.3h1.4l1.2-3.1L433.7,129.2
		z M434.3,132l-1.9,4.4h-2.3c-2,0.2-4,0.6-6.1,1.2c-2.1,0.6-3.8,1.4-5.1,2.4l0.7-1c-4,2-7.5,3.9-10.5,5.6c-3,1.8-5.6,3.8-7.6,6
		c-2,2.3-3.6,5-4.7,8.3c-1.1,3.3-1.7,7.4-1.7,12.4c-0.1,0.8-0.2,2-0.2,3.5c0,1.4,0,2.9,0,4.4c0,1.6,0.2,3.2,0.5,4.6
		c0.4,1.5,0.6,2.5,0.9,3.1l-0.2-0.9c0.6,3,1.8,5.8,3.8,8.4c1.9,2.6,4.2,4.8,6.9,6.8l-7.5,18.7h10.3c1.4,0,2.9-0.1,4.6-0.3
		c1.6-0.2,3.2-0.6,4.6-1.1c1.5-0.6,2.7-1.4,3.8-2.5c1-1.1,1.8-2.5,2.1-4.3l0.9-1.9c1.2,0.2,2.2,0.4,3.1,0.5c0.9,0.1,1.8,0.2,2.7,0.2
		c4.8,0,9.2-1.2,13.4-3.7c4.1-2.4,7.7-5.6,10.8-9.4c3-3.9,5.4-8.2,7.1-13c1.7-4.8,2.5-9.7,2.5-14.4c0-4.1-1.1-8.5-3.2-13.3
		c-2.2-4.8-4.9-8.9-8.3-12.4l1.4-3c0.1-0.6,0.2-1.2,0.4-1.8c0.1-0.6,0.2-1.3,0.2-2c0-0.9-0.1-2-0.2-3.2c-0.1-1.2-0.6-2.9-1.6-5
		l-7.2-0.4h-5.1l-0.2-0.2c-0.2,0-0.6,0-1-0.1c-0.4-0.1-0.7-0.1-0.8-0.1c-1.5,0-3,0.7-4.4,2.1L434.3,132z M439.5,133.1
		c0.2,0,0.5,0.1,0.8,0.2c0.3,0.1,0.7,0.2,1.1,0.2h5.1l4.2,0.2c0.2,0.6,0.4,1.2,0.4,1.9c0,0.6,0,1.2,0,1.9c0,0.6-0.1,1.3-0.4,2.3
		l-2.4,5.6c1.8,1.6,3.4,3.4,4.9,5.4c1.5,2,2.9,4.1,4,6.3c1.2,2.2,2.1,4.4,2.7,6.6c0.6,2.2,1,4.3,1,6.3c0,4.2-0.8,8.5-2.3,12.8
		c-1.5,4.3-3.6,8.2-6.2,11.6c-2.6,3.4-5.7,6.2-9.4,8.4c-3.6,2.2-7.5,3.2-11.7,3.2c-1.2,0-2.4-0.1-3.8-0.4c-1.3-0.2-2.8-0.5-4.5-0.9
		l-2.6,5.8c-0.2,1-0.7,1.9-1.4,2.5c-0.7,0.6-1.6,1.1-2.6,1.5s-2.2,0.6-3.4,0.7c-1.2,0.1-2.4,0.2-3.4,0.2h-3.7l6.1-15.8
		c-2.9-1.9-5.4-4-7.5-6.5s-3.5-5.2-4.2-8.2c-0.2-0.6-0.5-1.4-0.8-2.4c-0.3-1.1-0.4-2.2-0.4-3.3c0-1.6,0-3.2,0.1-4.8
		c0.1-1.6,0.1-2.5,0.3-2.9c0-4.3,0.5-7.9,1.4-10.8c0.9-2.9,2.3-5.3,4.2-7.4c1.9-2,4.2-3.9,6.9-5.4c2.7-1.6,5.9-3.2,9.5-5
		c0-0.4,1-0.7,3-1.1c2-0.4,4-0.7,6-1h3.3c0.8,0,1.3,0.1,1.4,0.2l3-7.4C438.8,133.3,439.3,133.1,439.5,133.1z M418.7,183.1l10.9-26.8
		c-1.6,0.2-3.4,0.8-5.2,1.7c-1.8,0.9-3.5,2-5,3.3c-1.5,1.3-2.7,2.8-3.7,4.5c-0.9,1.6-1.4,3.3-1.4,4.9
		C414.3,175.2,415.8,179.4,418.7,183.1z M418.5,170.7c0-1.6,0.8-3.2,2.3-4.7l-2.3,5.6V170.7z M426.4,213l0.2-0.7
		C426.4,212.4,426.4,212.7,426.4,213z M443.2,169.6c-0.2-0.7-0.5-1.5-0.8-2.4c-0.3-0.9-0.6-1.7-0.9-2.5c-0.3-0.8-0.5-1.4-0.6-1.8
		l-11.7,27.5c0.2,0.1,0.5,0.2,0.9,0.3c3.5-1.9,6.6-4.4,9.4-7.7c2.7-3.3,4.1-7.2,4.1-11.9C443.5,170.9,443.4,170.3,443.2,169.6z"/>
	<path class="st0" d="M511.1,338.2c0-3,0.1-6,0.2-8.8c0.1-2.9,0.3-5.7,0.5-8.5c0.2-2.7,0.4-5.4,0.5-8.1c0.1-2.7,0.2-5.5,0.2-8.4
		v-3.7v-5.6v-6.8c-0.6-1.2-1.2-2.4-1.8-3.6c-0.6-1.2-0.9-2.8-0.9-4.6v-0.3v-5.4c4.2-1.4,7.5-2.3,9.9-2.7c2.4-0.4,4.8-0.6,7.3-0.6
		h1.8c1.6,0,3.1,0.5,4.5,1.6c1.4,1.1,2.3,3.4,2.8,7c-0.1,0.5-0.2,1.2-0.3,2.2c-0.1,1-0.3,2-0.4,3.1c-0.2,1.1-0.3,2-0.4,3
		c-0.1,0.9-0.2,1.6-0.2,1.9v1.2c0,0.4,0,0.7,0.1,1.1c0.1,0.3,0.1,0.6,0.1,0.7l-0.7,22.1V333c0,0.7-0.5,1.9-1.6,3.5
		c-1,1.6-2.1,2.9-3.2,3.9h0.2l-0.5,0.4c-0.1,0.1-0.2,0.2-0.3,0.2l-11.2,7.5c-1.6-0.7-2.9-1.4-3.8-2.2c-0.9-0.8-1.5-1.5-1.9-2.3
		c-0.4-0.8-0.6-1.6-0.7-2.5c-0.1-0.9-0.1-1.9-0.1-3V338.2z M512.6,338.2v0.2c0,1.6,0.2,3,0.6,4.2c0.4,1.2,1.8,2.3,4.3,3.5l11.4-7.5
		h-0.2c0.8-0.6,1.7-1.5,2.5-2.8c0.9-1.3,1.3-2.2,1.3-2.8v-18.4l0.7-21.9c0-0.1,0-0.4-0.1-0.7c-0.1-0.4-0.1-0.7-0.1-1.1v-1.2
		c0-0.3,0.1-1,0.2-1.9c0.1-0.9,0.3-1.9,0.4-3c0.2-1,0.3-2.1,0.4-3.1c0.1-1,0.2-1.7,0.3-2.2c-0.3-2.7-1.1-4.4-2.2-5.3
		c-1.1-0.8-2.3-1.2-3.6-1.2H527c-1.2,0-2.3,0-3.3,0.1c-1,0.1-2.2,0.2-3.3,0.4c-1.2,0.2-2.5,0.5-3.9,0.9c-1.5,0.3-3.1,0.9-5,1.6
		c-0.1,2.3-0.2,3.6-0.2,3.7v0.3c0,1.5,0.3,2.8,0.8,3.9c0.5,1.1,1.1,2.1,1.7,3.1c0,0.1,0.1,0.3,0.4,0.5v7.5v5.6v3.7
		c0,2.9-0.1,5.7-0.2,8.4c-0.1,2.7-0.3,5.4-0.5,8.2c-0.2,2.8-0.4,5.6-0.5,8.4C512.7,332.3,512.6,335.2,512.6,338.2z M516,338.2
		c0-5.9,0.2-11.6,0.7-16.9c0.5-5.3,0.7-10.9,0.7-16.9v-3.7c0-1.8,0-3.6-0.1-5.6c-0.1-2-0.1-3.8-0.1-5.4v-3.7
		c-0.2-0.6-0.7-1.5-1.5-2.8c-0.8-1.3-1.1-2.3-1.1-3.2c0-0.1,0-0.2,0.1-0.3c0.1-0.1,0.1-0.2,0.1-0.4c2.4-0.8,4.5-1.3,6.3-1.6
		c1.8-0.2,3.7-0.4,6-0.4c0.6,0,1.3,0,2.3,0c1,0,1.7,0.6,1.9,1.9c-0.1,0.4-0.2,1-0.3,2c-0.1,1-0.3,2-0.4,3.1
		c-0.2,1.1-0.3,2.1-0.4,3.1c-0.1,1-0.2,1.7-0.2,2.2c0,0.2,0,0.7,0.1,1.4c0.1,0.7,0.1,1.2,0.1,1.6l-0.7,21.9V333
		c0,0.1-0.2,0.4-0.7,0.8c-0.5,0.4-0.9,0.7-1.2,1l-10.2,6.6c-0.7-0.2-1.1-0.6-1.1-1.1C516,339.7,516,339.1,516,338.2z"/>
	<path class="st0" d="M595.2,340.9c0,1.6-0.7,3-2.2,4c-1.5,1.1-3.2,1.9-5.3,2.5c-2.1,0.6-4.4,1.1-6.9,1.4c-2.5,0.3-4.8,0.4-6.9,0.4
		h-4.4c-0.9,0-2.5-0.9-4.8-2.8c-2.3-1.9-4.8-4.3-7.7-7.2c-2.9-2.9-5.8-6.1-8.9-9.6c-3.1-3.5-5.9-6.9-8.5-10.2
		c-2.6-3.3-4.7-6.2-6.3-8.8c-1.6-2.6-2.5-4.4-2.5-5.4v-1.9c0.1-0.5,0.4-1.1,0.8-1.9c0.4-0.8,0.8-1.6,1.3-2.4
		c0.5-0.8,0.9-1.5,1.3-2.2c0.4-0.7,0.8-1.2,1.1-1.6l10.3-3.3c-2.3-1.5-4.3-3.2-6-4.9c-1.7-1.8-2.5-3.6-2.5-5.6
		c0-1.1,0.1-1.8,0.2-2.2c0.1-0.4,0.5-1.3,1.1-2.5l12.1-12.8c0.5-0.5,1.7-0.4,3.6,0.2c1.9,0.6,4.1,1.4,6.6,2.5c2.5,1,4.9,2.2,7.3,3.6
		c2.5,1.3,4.3,2.5,5.6,3.6l-0.2-0.2c0.5,0.5,1.2,1.3,2.3,2.4c1,1.1,2.2,2.3,3.5,3.5c1.3,1.2,2.5,2.5,3.7,3.7c1.2,1.2,2,2.1,2.6,2.7
		c0.2,0.3,0.5,0.9,0.7,1.7c0.2,0.8,0.5,1.5,0.7,2.4c0.2,0.8,0.4,1.6,0.5,2.4c0.1,0.8,0.2,1.5,0.2,1.9c0,2.8-0.5,5.2-1.6,7.1
		s-2.4,3.6-4,4.9c-1.6,1.3-3.5,2.5-5.6,3.3s-4.3,1.7-6.5,2.4c2.3,1.9,4.8,3.9,7.3,6.1c2.6,2.2,4.7,4.3,6.3,6.3
		c0.1,0.2,0.5,0.7,1.2,1.5c0.7,0.8,1.5,1.5,2.4,2.4c0.5,0.6,1,1.1,1.5,1.5c0.5,0.4,1,0.8,1.3,1.3c1,1,1.7,1.7,2,2
		c0.3,0.3,0.7,1,1.3,2.2c0.1,0,0.2,0.1,0.4,0.2C594.6,337.4,595.2,339.2,595.2,340.9z M593.2,340.9c0-1.2-0.5-2.6-1.6-4.4
		c-0.2-0.4-0.4-0.6-0.5-0.7l0.5,0.5c-0.6-0.8-1-1.4-1.1-1.7c-0.2-0.3-0.8-1-2-2.2c-0.3-0.4-0.8-0.7-1.2-1.1
		c-0.5-0.4-0.9-0.9-1.4-1.5c-1-0.9-2-1.9-3-2.9c-0.9-1-1.4-1.6-1.4-1.8c-1.3-1.6-3.2-3.5-5.8-5.7c-2.6-2.2-5-4.2-7.3-6.2
		c-0.6-0.5-1.1-0.9-1.7-1.2c-0.5-0.4-1-0.6-1.3-0.9c0.1-0.1,0.3-0.2,0.4-0.3c0.2-0.1,0.4-0.1,0.6-0.3c2.1-0.6,4.3-1.3,6.6-2
		c2.3-0.8,4.3-1.8,6.2-3c1.9-1.2,3.4-2.7,4.6-4.6c1.2-1.8,1.8-4.1,1.8-6.7c0-0.5-0.1-1.1-0.2-1.8c-0.1-0.7-0.3-1.4-0.4-2.1
		c-0.2-0.7-0.4-1.3-0.6-1.9c-0.2-0.6-0.4-1-0.5-1.2c-0.6-0.7-1.4-1.6-2.5-2.8c-1-1.2-2.2-2.4-3.4-3.6c-1.2-1.2-2.4-2.4-3.5-3.4
		c-1.1-1-1.9-1.8-2.4-2.1v0.2c-1.2-1-2.8-2.2-5-3.5c-2.2-1.3-4.3-2.5-6.5-3.6c-2.2-1.1-4.1-2-5.8-2.5c-1.7-0.6-2.7-0.7-3.1-0.4
		l-11.9,12.6c-0.5,0.9-0.7,1.5-0.8,1.8c-0.1,0.2-0.1,0.8-0.1,1.6c0,2,1.2,3.9,3.6,5.8c2.4,1.9,4.9,3.6,7.6,5.3l-13.8,4.7
		c-0.6,0.6-1.3,1.6-2.1,3.1c-0.8,1.5-1.3,2.5-1.6,3.2v1.8c0,1,0.8,2.8,2.4,5.3c1.6,2.5,3.6,5.2,6,8.3c2.5,3.1,5.1,6.3,8,9.6
		c2.9,3.3,5.7,6.4,8.5,9.1c2.7,2.7,5.2,5,7.4,6.8c2.2,1.8,3.6,2.7,4.5,2.7h4.4c1.9,0,3.9-0.1,6.2-0.3c2.3-0.2,4.4-0.5,6.4-1
		c2-0.5,3.6-1.2,4.9-1.9C592.6,343.2,593.2,342.2,593.2,340.9z M588.9,340.9c0,0.4-0.5,0.6-1.5,0.9c-1,0.2-2.2,0.4-3.8,0.6
		c-1.5,0.2-3.1,0.3-4.9,0.3c-1.8,0.1-3.4,0.1-4.9,0.1h-4.4c-0.8,0-2.2-0.8-4-2.4c-1.9-1.6-4-3.6-6.4-6.1c-2.4-2.5-4.9-5.3-7.5-8.2
		c-2.6-3-5-5.9-7.2-8.7c-2.2-2.8-3.9-5.3-5.3-7.4c-1.4-2.2-2.1-3.7-2.1-4.6v-0.7c0.2-0.6,0.5-1.3,0.9-2.1c0.3-0.8,0.6-1.2,0.7-1.2
		l22.9-7.7c-0.6-0.4-1.9-1-3.8-2.1c-2-1-4-2.2-6.1-3.4c-2.1-1.2-4-2.5-5.6-3.7c-1.6-1.2-2.5-2.2-2.5-2.9v-0.9l11.4-12.1
		c0.1-0.1,0.8,0.2,1.9,1c1.2,0.8,2.5,1.7,4.1,2.8c1.6,1.1,3.1,2.3,4.7,3.5c1.6,1.2,2.9,2.2,3.9,3.1c0.5,0.3,1.3,1.1,2.5,2.3
		c1.2,1.2,2.5,2.4,3.8,3.7c1.3,1.3,2.4,2.5,3.4,3.5c1,1.1,1.5,1.7,1.7,1.9c0.1,0.1,0.2,0.7,0.4,1.7c0.1,1,0.2,1.8,0.2,2.4
		c0,2.3-0.8,4.3-2.5,5.8c-1.6,1.5-3.6,2.7-5.9,3.7c-2.3,0.9-4.6,1.7-7.1,2.4c-2.5,0.6-4.5,1.3-6.3,2v3.3c0,0.2,0.8,1,2.4,2.3
		c1.6,1.3,3.4,2.7,5.4,4.4c2,1.6,4.1,3.3,6,5c2,1.7,3.4,3,4.2,3.9c0,0.2,0.3,0.7,0.9,1.4c0.6,0.7,1.3,1.5,2.1,2.3
		c0.8,0.8,1.7,1.7,2.5,2.5s1.7,1.7,2.4,2.4c1,0.9,1.6,1.5,1.8,1.8c0.1,0.2,0.5,0.8,1,1.8C588.7,340.1,588.9,340.6,588.9,340.9z
		 M584.5,288c0.1,0,0-0.2-0.3-0.5L584.5,288z M585.2,285.6v0.2c0.1,0,0.2,0.1,0.2,0.2L585.2,285.6z"/>
	<path class="st0" d="M626,256.9c0-3,0.1-6,0.2-8.8c0.1-2.9,0.3-5.7,0.5-8.5c0.2-2.7,0.4-5.4,0.5-8.1c0.1-2.7,0.2-5.5,0.2-8.4v-3.7
		v-5.6V207c-0.6-1.2-1.2-2.4-1.8-3.6c-0.6-1.2-0.9-2.8-0.9-4.6v-0.3V193c4.2-1.4,7.5-2.3,9.9-2.7c2.4-0.4,4.8-0.6,7.3-0.6h1.8
		c1.6,0,3.1,0.5,4.5,1.6c1.4,1.1,2.3,3.4,2.8,7c-0.1,0.5-0.2,1.2-0.3,2.2c-0.1,1-0.3,2-0.4,3.1c-0.2,1.1-0.3,2-0.4,3
		c-0.1,0.9-0.2,1.6-0.2,1.9v1.2c0,0.4,0,0.7,0.1,1.1c0.1,0.3,0.1,0.6,0.1,0.7l-0.7,22.1v18.2c0,0.7-0.5,1.9-1.6,3.5
		c-1,1.6-2.1,2.9-3.2,3.9h0.2l-0.5,0.4c-0.1,0.1-0.2,0.2-0.3,0.2l-11.2,7.5c-1.6-0.7-2.9-1.4-3.8-2.2c-0.9-0.8-1.5-1.5-1.9-2.3
		c-0.4-0.8-0.6-1.6-0.7-2.5c-0.1-0.9-0.1-1.9-0.1-3V256.9z M627.6,256.9v0.2c0,1.6,0.2,3,0.6,4.2c0.4,1.2,1.8,2.3,4.3,3.5l11.4-7.5
		h-0.2c0.8-0.6,1.7-1.5,2.5-2.8c0.9-1.3,1.3-2.2,1.3-2.8v-18.4l0.7-21.9c0-0.1,0-0.4-0.1-0.7c-0.1-0.4-0.1-0.7-0.1-1.1v-1.2
		c0-0.3,0.1-1,0.2-1.9c0.1-0.9,0.3-1.9,0.4-3c0.2-1,0.3-2.1,0.4-3.1c0.1-1,0.2-1.7,0.3-2.2c-0.3-2.7-1.1-4.4-2.2-5.3
		c-1.1-0.8-2.3-1.2-3.6-1.2H642c-1.2,0-2.3,0-3.3,0.1c-1,0.1-2.2,0.2-3.3,0.4c-1.2,0.2-2.5,0.5-3.9,0.9c-1.5,0.3-3.1,0.9-5,1.6
		c-0.1,2.3-0.2,3.6-0.2,3.7v0.3c0,1.5,0.3,2.8,0.8,3.9c0.5,1.1,1.1,2.1,1.7,3.1c0,0.1,0.1,0.3,0.4,0.5v7.5v5.6v3.7
		c0,2.9-0.1,5.7-0.2,8.4c-0.1,2.7-0.3,5.4-0.5,8.2c-0.2,2.8-0.4,5.6-0.5,8.4C627.7,250.9,627.6,253.8,627.6,256.9z M630.9,256.9
		c0-5.9,0.2-11.6,0.7-16.9c0.5-5.3,0.7-10.9,0.7-16.9v-3.7c0-1.8,0-3.6-0.1-5.6c-0.1-2-0.1-3.8-0.1-5.4v-3.7
		c-0.2-0.6-0.7-1.5-1.5-2.8c-0.8-1.3-1.1-2.3-1.1-3.2c0-0.1,0-0.2,0.1-0.3c0.1-0.1,0.1-0.2,0.1-0.4c2.4-0.8,4.5-1.3,6.3-1.6
		c1.8-0.2,3.7-0.4,6-0.4c0.6,0,1.3,0,2.3,0c1,0,1.7,0.6,1.9,1.9c-0.1,0.4-0.2,1-0.3,2c-0.1,1-0.3,2-0.4,3.1
		c-0.2,1.1-0.3,2.1-0.4,3.1c-0.1,1-0.2,1.7-0.2,2.2c0,0.2,0,0.7,0.1,1.4c0.1,0.7,0.1,1.2,0.1,1.6l-0.7,21.9v18.4
		c0,0.1-0.2,0.4-0.7,0.8c-0.5,0.4-0.9,0.7-1.2,1l-10.2,6.6c-0.7-0.2-1.1-0.6-1.1-1.1C631,258.4,630.9,257.7,630.9,256.9z"/>
	<path class="st0" d="M696.1,197.8c1.1-1.5,2.9-4.2,5.5-8c-1.8-0.8-3.7-1.7-5.9-2.7c-2.1-0.9-3.9-1.7-5.1-2.2c2.8-3,4.8-5.3,6.1-6.8
		c1.3-1.5,2.2-2.6,2.7-3.2c0.5-0.6,0.8-1,0.8-1.2c0-0.1,0.2-0.4,0.5-0.7c0.4-0.4,0.7-0.8,1-1.2c0.3-0.4,0.7-0.9,1.4-1.6l8.7-9.5
		c3.6,3.3,6.5,5.8,8.6,7.6c2.1,1.7,4.1,3.1,5.8,4.2c1.6,1.2,3.3,2.4,5,3.7c1.7,1.3,3.8,3.1,6.2,5.3c3.4,3.2,6.2,6.5,8.2,10
		c2.1,3.5,3.2,7.2,3.5,11.1c0.3,3.8-0.4,7.8-2,11.9c-1.6,4.1-4.3,8.2-8.2,12.4c-5.4,5.9-11,10.2-16.6,12.7
		c-5.6,2.5-11.2,3.8-16.8,3.7c-5.6,0-11.1-1.1-16.5-3.1c-5.4-2-10.6-4.7-15.5-7.9c-0.6-0.4-1.2-0.8-1.8-1.1c-0.6-0.3-1.3-0.7-2-1
		c-0.6-0.2-1.1-0.4-1.6-0.6c-0.5-0.2-1.1-0.5-1.9-1c-0.8-0.5-1.8-1.2-3.1-2.2c-1.2-1-2.9-2.5-5.1-4.4l5.1-5.5
		c0.1-0.1,0.2-0.2,0.3-0.2c0.1,0,0.3-0.2,0.4-0.3l12.8-16.5l11.5,7.7l5.4-5.9C694.2,200.4,695,199.3,696.1,197.8z M717.1,196.4
		c1.9,1.7,2.7,2.9,2.4,3.4c-1.1-0.9-2.1-1.6-3-2.2c-0.9-0.6-1.9-1.2-3-1.9l0.1,0.1c-0.4-0.2-1.1-0.6-1.9-1.2
		c-0.9-0.5-1.7-1.1-2.7-1.7c-0.9-0.6-1.8-1.2-2.7-1.8c-0.9-0.6-1.6-1.1-2.2-1.5c-3.1,4.8-5.2,7.9-6.5,9.5c-1.2,1.6-2.1,2.6-2.5,3.1
		l-5.2,5.7l7.4,5.9c-0.7-0.3-1.5-0.7-2.5-1.1c-1-0.4-2.1-0.9-3.3-1.4l-14.4-9.4l-11.7,15.1l-0.6,0.6l-3.7,4c1.6,1.5,3,2.6,4,3.4
		c1,0.8,1.9,1.4,2.5,1.8c0.6,0.4,1.2,0.7,1.6,0.9c0.4,0.1,0.9,0.3,1.5,0.6c0.5,0.3,1.1,0.6,1.7,1c0.6,0.3,1.4,0.7,2.2,1.2
		c4.8,3.1,9.7,5.6,14.9,7.6c5.2,2,10.5,3,15.9,3c5.4,0,10.8-1.2,16.2-3.6c5.4-2.4,10.7-6.4,15.9-12.1c3.6-4,6.2-7.8,7.7-11.7
		c1.5-3.8,2.1-7.5,1.8-11.2c-0.3-3.6-1.4-7.1-3.4-10.4c-1.9-3.3-4.5-6.5-7.7-9.4c-2.2-2.1-4.2-3.7-6-5c-1.8-1.3-3.4-2.5-5.1-3.7
		c-1.7-1.1-3.6-2.4-5.6-4c-2-1.6-4.6-3.8-7.7-6.7l-7.3,8c-0.6,0.6-1,1.1-1.2,1.5c-0.3,0.4-0.6,0.8-0.9,1.3c-0.2,0.3-0.4,0.5-0.6,0.8
		c-0.2,0.3-0.5,0.7-0.9,1.3c-0.5,0.6-1.3,1.5-2.4,2.7c-1,1.1-2.5,2.8-4.5,4.9c0.8,0.4,1.8,0.9,3.1,1.4c1.3,0.6,2.6,1.1,3.9,1.7
		c1.3,0.6,2.5,1.1,3.5,1.6c1.1,0.5,1.8,0.8,2.2,0.8c0.3,0.2,0.7,0.3,1.1,0.5c0.4,0.2,0.6,0.2,0.7,0.2c0.5,0.5,1,0.9,1.5,1.2
		L717.1,196.4z M712.1,187.3c-0.2,0-0.5-0.2-0.9-0.6c-0.4-0.4-1.4-0.8-2.9-1.4c-1.5-0.5-3.9-1.5-7.2-2.9c1.8-2,3.2-3.6,4.1-4.9
		c0.9-1.3,1.7-2.4,2.4-3.1l4.3-4.6c2,1.8,3.8,3.3,5.5,4.6c1.7,1.2,3.4,2.5,5.1,3.7c1.7,1.2,3.3,2.4,5.1,3.7c1.7,1.2,3.5,2.8,5.5,4.6
		c5.6,5.1,8.7,10.8,9.5,17c0.7,6.2-2,12.7-8.1,19.4c-4.7,5.1-9.4,8.7-14.3,10.8c-4.9,2.2-9.8,3.2-14.7,3.2c-4.9,0-9.7-0.9-14.5-2.7
		c-4.8-1.8-9.4-4.1-13.8-7.1c-1.7-1.2-3.4-2.2-5.1-2.8c-1.7-0.6-3.2-1.6-4.7-2.9c0.9-0.8,1.3-1.2,1.4-1.3l9.1-12l11.3,7.3
		c2.6,1.3,4.8,2.3,6.7,2.9c1.8,0.7,3.5,1,4.9,1.1c1.4,0.1,2.7,0,4-0.4c1.3-0.3,2.7-0.9,4.3-1.6l-12.7-10l0.8-0.9
		c0.6-0.6,1.4-1.5,2.4-2.8c1.1-1.2,2.9-3.9,5.5-8c1.6,1.2,3.1,2.1,4.3,2.9c1.3,0.8,2.5,1.5,3.6,2.2c1.1,0.7,2.2,1.5,3.4,2.3
		c1.2,0.8,2.4,1.8,3.8,2.9c1.3-1.8,2.4-3.2,3.2-4.2c0.8-1,1.3-1.9,1.3-2.6c0-0.7-0.3-1.6-1.2-2.5c-0.8-0.9-2.1-2.2-3.9-3.9
		L712.1,187.3z"/>
	<path class="st0" d="M372.6,138.9L388,118c-1.9,0-3.9,0.1-6,0.4c-2.2,0.3-4.8,0.8-7.8,1.7c-3,0.8-6.6,1.9-10.8,3.3
		c-4.1,1.4-9.1,3.3-15,5.8l22-38.5h66.2l-25.4,38.5l-13.5,21.7c-0.5,0.5-0.7,1.3-0.8,2.4c-0.1,1.2-0.1,2-0.1,2.6
		c0,0.5,0.2,0.9,0.5,1.4c0.1,0.2,0.3,0.4,0.4,0.5c0.2,0.1,0.3,0.3,0.4,0.5c0.1,0.2,0.2,0.6,0.3,1c0.1,0.5,0.2,1.2,0.2,2.1
		c0,2.1-0.7,3.8-2.1,5.2c-1.4,1.3-4,2-7.7,2h-40.3c2.8-4.1,5.8-8.2,9.1-12.3c3.3-4.1,6-7.5,8.2-10.1c1.5-1.6,2.8-3.1,3.9-4.5
		c1.1-1.4,2-2.5,2.5-3.1V138.9z M374.3,139.9c-0.6,0.7-1.5,1.8-2.7,3.2c-1.2,1.5-2.6,3-4.1,4.6c-1.8,2-4,4.8-6.7,8.4
		c-2.7,3.6-5.4,7.1-8,10.5H389c2.9,0,5-0.4,6.1-1.3c1.2-0.9,1.8-2.1,1.8-3.8c0-1.4-0.2-2.2-0.5-2.4c-0.4-0.2-0.6-0.5-0.9-1l0.2,0.2
		c-0.2-0.3-0.4-0.7-0.6-1.1c-0.2-0.4-0.3-0.8-0.3-1.3c0-0.7,0.1-1.8,0.3-3.3c0.2-1.5,0.7-2.7,1.7-3.5l13-21h-0.2l23.1-35.4h-60.9
		l-18.6,32c4.9-2,9.1-3.6,12.7-4.7c3.6-1.2,6.7-2.1,9.5-2.7c2.7-0.6,5.2-1,7.3-1.2c2.1-0.2,4.1-0.3,6.1-0.3h3.3l-17.9,24H374.3z
		 M390.7,111.5c-3.1-0.1-6.1,0-9.1,0.3c-3,0.2-5.9,0.6-8.9,1.2c-3,0.6-6.1,1.6-9.4,3l10.8-18.7h50.4l-18.7,28.5L393,146.6
		c-0.7,0.6-1.2,1.3-1.6,2.2c-0.3,0.9-0.6,1.8-0.8,2.7c-0.2,0.9-0.3,1.8-0.3,2.6c0,0.8,0,1.5,0,1.9c0,1.3,0.2,2.3,0.7,3.2
		c0.5,0.8,0.8,1.5,1,1.9c0.2,0.5,0.2,0.8-0.2,1c-0.4,0.2-1.3,0.3-3,0.3h-27.6c0.7-0.8,1.8-2.2,3.3-4c1.5-1.9,3.1-3.8,4.8-5.8
		c1.7-2,3.3-3.9,4.8-5.8c1.5-1.9,2.6-3.3,3.3-4.2l23.1-31C397.1,111.6,393.8,111.5,390.7,111.5z"/>
	<g>
		
			<rect x="154" y="45.7" transform="matrix(0.7071 -0.7071 0.7071 0.7071 -6.0041 133.7361)" class="st2" width="8.9" height="56.8"/>
		
			<rect x="154" y="45.7" transform="matrix(-0.9205 -0.3907 0.3907 -0.9205 275.3096 204.2438)" class="st2" width="8.9" height="56.8"/>
	</g>
	<g>
		
			<rect x="640.8" y="9.2" transform="matrix(0.7071 -0.7071 0.7071 0.7071 164.6836 465.9201)" class="st2" width="7.8" height="49.9"/>
		
			<rect x="640.8" y="9.2" transform="matrix(-0.9205 -0.3907 0.3907 -0.9205 1224.9082 317.5492)" class="st2" width="7.8" height="49.9"/>
	</g>
	<g>
		
			<rect x="687.4" y="143.3" transform="matrix(0.7071 -0.7071 0.7071 0.7071 81.2415 539.4797)" class="st2" width="8.9" height="56.8"/>
		
			<rect x="687.4" y="143.3" transform="matrix(-0.9205 -0.3907 0.3907 -0.9205 1261.5857 600.0179)" class="st2" width="8.9" height="56.8"/>
	</g>
	<g>
		
			<rect x="694.3" y="231.8" transform="matrix(0.7071 -0.7071 0.7071 0.7071 16.9689 572.566)" class="st2" width="10.7" height="68"/>
		
			<rect x="694.3" y="231.8" transform="matrix(-0.9205 -0.3907 0.3907 -0.9205 1239.792 783.8381)" class="st2" width="10.7" height="68"/>
	</g>
	<g>
		
			<rect x="504.8" y="27" transform="matrix(0.7071 -0.7071 0.7071 0.7071 106.3015 378.5594)" class="st3" width="10.7" height="68"/>
		
			<rect x="504.8" y="27" transform="matrix(-0.9205 -0.3907 0.3907 -0.9205 955.8533 316.3954)" class="st3" width="10.7" height="68"/>
	</g>
	<g>
		<path class="st4" d="M130.7,570.1c-3.3-1.6-6.3-3.8-8.8-6.4c-2.5-2.6-4.8-5.5-6.7-8.8c-1.9-3.3-3.8-6.6-5.6-10v2.2
			c0,1.5,0,3.1,0,4.9s-0.1,3.3-0.2,4.5c-1.5,4.2-4,6.9-7.5,8.1c-3.5,1.3-7.1,1.9-10.8,1.9c-0.9,0-1.8,0-2.7-0.1
			c-0.9-0.1-1.7-0.1-2.5-0.1H75.1c0-2.7,0-5.8,0.1-9.4c0.1-3.6,0.1-7.2,0.2-10.8c0.1-3.6,0.2-7.2,0.3-10.7c0.1-3.5,0.3-6.6,0.4-9.3
			c0.3-5.2,0.6-10.3,0.9-15.2c0.3-4.9,0.4-10,0.4-15.4c0-0.6,0-1.6,0-2.9s0-2.7-0.1-4.1c-0.1-1.4-0.1-2.8-0.1-4.1s0-2.3,0-2.9
			c5.6-1.2,9.9-2.1,12.7-2.7c2.8-0.6,4.6-1,5.5-1.2c0.8-0.2,0.9-0.3,0.3-0.2c-0.6,0.1-1.4,0.2-2.3,0.2c-1,0.1-1.8,0.1-2.6,0.2
			c-0.7,0.1-0.9,0-0.4-0.1h-0.2c2.5-1,5.1-2,7.7-2.9c2.6-0.9,4.9-1.3,7-1.3c0.1,0,0.7,0.2,1.7,0.7c1,0.4,2.1,1.1,3.5,1.9
			c1.3,0.8,2.3,1.5,2.9,2.1l0.7,0.9l11.2,21.9l12.7,19.6c0.1,0.2-0.3,0.8-1.2,2c-1,1.2-1.8,2.2-2.6,2.9h5.4
			c-0.3-0.1-0.6-1.4-0.8-3.9s-0.4-5.3-0.7-8.6c-0.2-3.3-0.4-6.7-0.4-10.1c-0.1-3.5,0-6.4,0.1-8.8v0.9c0-0.7,0.1-2.1,0.2-4
			c0.1-1.9,0.3-3.9,0.4-5.8c0.3-2.2,0.5-5.2,0.6-8.8c0.1-3.6,0.1-6.7,0.1-9.3H165c2.2,0,3.9,0.5,5,1.4c1.1,1,2.3,2.3,3.5,3.9
			c-0.1-0.1-0.1-0.1,0.1,0c0.2,0.2,0.4,0.4,0.6,0.7c0.7,1.9,1.2,3.1,1.3,3.6c0.1,0.4,0.2,1.1,0.2,2c0,0.2,0,0.8-0.1,2
			c-0.1,1.2-0.1,1.9-0.1,2c-0.1,0.2-0.2,0.2-0.2,0c0-0.3,0-1,0-2.2c-0.3,1.3-0.7,3.2-1.2,5.7c-0.5,2.5-1.1,5.3-1.8,8.5
			c-0.7,3.2-1.4,6.6-2.2,10.3c-0.8,3.6-1.6,7.3-2.3,11c-0.7,3.7-1.5,7.4-2.2,11c-0.7,3.6-1.4,7-2.1,10.1s-1.3,5.9-1.8,8.4
			c-0.5,2.5-0.9,4.3-1.2,5.7c-0.3,0.7-0.7,2.1-1.2,4c-0.5,1.9-1.1,4-1.7,6.2c-0.6,2.2-1.2,4.4-1.8,6.5c-0.6,2.1-1,3.6-1.1,4.5
			c-0.1,0-0.7,0-1.6,0s-1.9,0-2.9,0.1c-1,0.1-2.1,0.1-3.1,0.1c-0.9,0-1.5,0-1.8,0h-2.7C138,572.5,134.1,571.7,130.7,570.1z
			 M111.2,542.6c1.8,3.4,3.6,6.7,5.5,9.9c1.9,3.2,4,6.1,6.4,8.7c2.4,2.6,5.1,4.7,8.3,6.2c3.1,1.6,6.8,2.3,11.1,2.3h2.7
			c0.6,0,1.9,0,3.8-0.1c1.9-0.1,3-0.1,3.3-0.1c0.1-0.9,0.5-2.3,1-4.2c0.5-1.9,1.1-3.9,1.7-5.9c0.6-2,1.1-3.9,1.6-5.6
			c0.4-1.7,0.7-2.8,0.9-3.2c0.3-1.3,0.7-3.2,1.2-5.7c0.5-2.5,1.1-5.3,1.8-8.5c0.7-3.2,1.4-6.6,2.2-10.3c0.8-3.6,1.6-7.2,2.3-10.8
			c0.9-3.7,1.7-7.4,2.6-11c0.8-3.6,1.6-7.1,2.2-10.3c0.7-3.2,1.3-6.1,1.8-8.6c0.5-2.5,0.9-4.5,1.2-5.8v1.8c0-0.1,0-0.6,0.1-1.5
			c0.1-0.8,0.1-1.3,0.1-1.4c0-0.7,0-1.3-0.1-1.6c-0.1-0.3-0.4-1.1-1-2.5c-0.1-0.1-0.4-0.5-0.7-1.1c-0.9-1.2-1.7-2.1-2.6-2.8
			c-0.8-0.7-2-1-3.7-1h-23.9c0,1.9,0,4.5-0.1,7.6c-0.1,3.1-0.2,5.8-0.3,8c-0.1,1.9-0.3,3.8-0.4,5.7c-0.1,1.9-0.2,3.2-0.2,3.9v-0.4
			c-0.1,2.5-0.3,5.7-0.4,9.5c-0.1,3.8-0.3,7.5-0.3,11c-0.1,3.6-0.1,6.7-0.1,9.4c0,2.5,0.1,3.8,0.2,3.8h-4.5c0.4-0.4,0.7-1.4,0.8-3
			c0.1-1.6,0-2.6-0.3-3l-12.7-19.8l0.2,0.7l-10.9-22.1L111,480c-0.9-0.9-2.9-2.2-6-3.8c-1.9,0-4.1,0.4-6.6,1.2
			c-2.5,0.8-4.9,1.7-7.2,2.8c-0.7,0.3-0.9,0.5-0.3,0.6c0.5,0.1,0.8,0.2,0.8,0.3c-3,0.9-6.8,1.8-11.6,2.7c0,1.2,0,3.2,0.1,5.9
			c0.1,2.8,0.1,4.7,0.1,5.9c0,5.4-0.1,10.5-0.4,15.4c-0.3,4.9-0.6,10-0.9,15.2c-0.1,2.7-0.3,5.6-0.4,8.8c-0.1,3.2-0.3,6.5-0.3,9.8
			c-0.1,3.3-0.1,6.7-0.2,9.9c-0.1,3.3-0.1,6.2-0.1,8.9H86c0.7,0,1.6,0,2.5,0.1c0.9,0.1,1.8,0.1,2.7,0.1c3.1,0,6.2-0.5,9.3-1.5
			c3-1,5.2-3.1,6.4-6.4c0.1-1.2,0.2-2.6,0.2-4.2c0-1.6,0-3.2,0-4.7v-8.9v-3.8c0.7,1.2,1.5,2.5,2.2,3.9c0.7,1.4,1.5,2.9,2.2,4.3
			H111.2z M101.5,529c-0.1,3-0.1,6-0.1,9.1v8.9c0,1.5,0,2.9,0,4.2c0,1.2-0.1,2.4-0.2,3.6c-0.4,1.2-1.4,2-3,2.5
			c-1.6,0.4-3.3,0.7-5.1,0.9c-1.9,0.1-3.7,0.1-5.6,0c-1.9-0.1-3.2-0.2-4.1-0.2c0-11.7,0.4-23.3,1.3-34.6c0.9-11.3,1.2-23,0.9-35.2
			c1-0.1,2.5-0.6,4.2-1.3c1.8-0.7,3.6-1.5,5.5-2.2c1.9-0.7,3.6-1.4,5.4-2c1.7-0.6,3.2-0.9,4.3-0.9c0.1,0,0.4,0.3,0.9,0.9
			c0.4,0.6,0.8,1,1.1,1.3l10.9,21.6l12.7,19.4c0.4,0.7,1,1.6,1.8,2.6c0.7,1,1.4,1.9,2.1,2.9c0.7,1,1.5,2,2.6,3.2h2.2
			c0.1,0,0.5-1.5,1.1-4.5c0.6-3,1.2-6.5,1.9-10.6c0.7-4.1,1.3-8.3,1.9-12.7c0.6-4.4,1-8.1,1.3-11c0-0.7,0.1-2,0.2-3.9
			c0.1-1.9,0.3-3.8,0.3-5.9c0.1-2.1,0.2-4,0.3-5.9c0.1-1.9,0.2-3.2,0.2-3.9H165c0.3,0,0.7,0.3,1.1,0.9c0.4,0.6,0.8,1,1.1,1.3
			c0.1,0.6,0.2,1,0.2,1.1c0,0.2,0,0.3-0.1,0.4c-0.1,0.1-0.1,0.3-0.1,0.4c-0.4,1.8-1,4.5-1.8,8c-0.7,3.6-1.6,7.7-2.7,12.3
			c-1,4.6-2.1,9.4-3.1,14.4c-1,5-2,9.8-3,14.4c-1,4.6-1.9,8.7-2.7,12.3c-0.8,3.6-1.4,6.2-1.7,8c-0.3,0.6-0.7,1.6-1.1,3
			c-0.4,1.4-0.9,2.9-1.3,4.6c-0.4,1.6-0.9,3.2-1.2,4.6c-0.4,1.4-0.6,2.4-0.8,3c-0.4,0-1.3,0-2.7,0.1c-1.3,0.1-2.2,0.1-2.7,0.1
			c-5.5,0-10-1.8-13.5-5.4c-3.5-3.6-6.6-7.8-9.3-12.6c-2.7-4.8-5.3-9.7-7.8-14.5c-2.5-4.8-5.6-8.5-9.1-11
			C102,523.3,101.6,526,101.5,529z"/>
		<path class="st4" d="M175.7,497.4c1.6-3,3.5-4.7,5.6-5.2c2.1-0.5,4.1-0.8,6-0.8c-0.3,0-0.5-0.1-0.6-0.3c-0.1-0.2,0-0.7,0.3-1.5
			l27.9-1.3v12.7c0.1,2.5,0.3,5.5,0.6,8.8c0.2,3.3,0.6,6.5,1,9.5c0.4,3,1.1,5.5,2,7.6c0.9,2.1,2.1,3.2,3.6,3.3
			c1.6-0.3,3-1.1,4.1-2.6c1.1-1.4,1.9-2.9,2.3-4.3c0-0.4,0.1-0.9,0.2-1.5c0.1-0.5,0.3-1,0.4-1.4c0.7-3.1,1.3-5.8,1.8-7.9
			c0.4-2.2,0.8-4.4,1-6.7c0.2-2.3,0.4-5,0.4-8.1c0.1-3.1,0.1-7.2,0.1-12.3c0.6-0.4,1.4-1,2.6-1.7c1.1-0.7,2.3-1.3,3.7-2
			s2.6-1.2,3.7-1.7c1.1-0.4,2-0.7,2.6-0.7h10.5c1.2,0,2.7,0,4.6,0.1c1.9,0.1,3.8,0.2,5.7,0.2c1.9,0.1,3.6,0.1,5.1,0.1
			c1.5,0,2.4,0,2.7,0c0,0.7,0,1.9,0.1,3.3c0.1,1.5,0.1,3,0.2,4.7c0.1,1.6,0.1,3.2,0.2,4.7c0.1,1.5,0.1,2.5,0.1,3.1
			c0,10.3-1,20-3,29.3c-2,9.3-5.2,17.5-9.5,24.5c-4.3,7.1-9.9,12.7-16.7,16.9c-6.8,4.2-15.1,6.4-24.8,6.4c-1.5,0-3-0.1-4.5-0.2
			c-1.5-0.1-3.1-0.4-4.9-0.7h-0.4c-5.5,0-10.2-1.4-14-4.2c-3.9-2.8-7.1-6.4-9.7-10.7c-2.6-4.3-4.7-9.2-6.2-14.6
			c-1.6-5.4-2.8-10.7-3.6-15.9c-0.8-5.2-1.4-10-1.7-14.4c-0.3-4.4-0.5-7.8-0.7-10.4L175.7,497.4z M177.2,501.6
			c0.1,2.4,0.4,5.7,0.7,9.9c0.3,4.2,0.8,8.9,1.6,13.9c0.7,5.1,1.8,10.2,3.2,15.4c1.4,5.2,3.3,9.9,5.8,14.2c2.5,4.2,5.5,7.7,9,10.4
			s7.9,4,12.9,4h0.9c3.6,0.4,6.5,0.7,8.9,0.7c9.1,0,16.9-2,23.4-6.1c6.5-4.1,11.9-9.6,15.9-16.4c4.1-6.8,7.1-14.8,9-23.8
			c1.9-9,2.9-18.4,2.9-28.2c0-0.6,0-1.5,0-2.7c0-1.2,0-2.5-0.1-3.8c-0.1-1.3-0.1-2.6-0.2-3.9c-0.1-1.3-0.1-2.2-0.1-2.8
			c-0.3,0-1.1,0-2.5,0c-1.2,0-2.6,0-4.2-0.1c-1.6-0.1-3.3-0.1-4.9-0.2c-1.6-0.1-3-0.1-4.2-0.1c-2.2-0.1-4.4-0.2-6.5-0.2
			c-1.9,0-3.2,0-3.8,0c-0.4,0-1.2,0.2-2.1,0.6c-1,0.4-1.9,0.8-2.9,1.3c-1,0.5-1.9,1.1-2.8,1.7c-0.9,0.6-1.6,1-2,1.3
			c0,4.8,0,8.6-0.1,11.4c-0.1,2.8-0.2,5.4-0.4,7.7c-0.2,2.3-0.6,4.6-1.1,6.8c-0.5,2.2-1.2,5-1.9,8.3c-0.3,0.9-0.5,1.6-0.6,2
			c-0.1,0.4-0.2,0.8-0.3,1.1c-0.4,1.9-1.5,3.9-3.2,5.8c-1.7,1.9-3.7,2.9-5.9,2.9h0.4c-2.1-0.1-3.7-1.4-4.9-3.7
			c-1.2-2.3-2.1-5.1-2.8-8.4c-0.7-3.3-1.1-6.7-1.3-10.4c-0.2-3.6-0.4-6.8-0.6-9.5c0-0.4,0-1.1,0-2c0-1,0-2.1-0.1-3.1
			c-0.1-1-0.1-2-0.1-2.9c0-0.9,0-1.5,0-1.8l-23.4,1.3l-0.9,1.8h-0.2c-1.6,0-3.4,0.2-5.2,0.6c-1.9,0.4-3.4,1.7-4.6,3.9L177.2,501.6z
			 M184.9,499.8c1-0.1,1.9-0.2,2.8-0.2c1,0,2-0.1,2.8-0.2c0.8-0.1,1.4-0.8,1.9-2l14.3-0.7c0.1,2.5,0.3,6.1,0.6,10.6
			c0.2,4.5,0.8,9.1,1.7,13.6c0.9,4.5,2.3,8.5,4.2,11.9c1.9,3.4,4.8,5.2,8.5,5.4c1.8,0,3.5-0.4,5.1-1.2c1.6-0.8,3.1-1.9,4.3-3.1
			c1.3-1.3,2.3-2.6,3.2-4.1c0.9-1.5,1.6-2.9,2-4.2c0.9-4.2,1.6-7.5,2.2-10c0.6-2.5,1.1-4.9,1.4-7.2c0.4-2.3,0.6-4.8,0.7-7.6
			c0.1-2.7,0.1-6.5,0.1-11.3c0.3-0.3,1-0.7,2.1-1.2c1.1-0.5,1.8-0.8,2.1-0.8c0.6,0,1.9,0,3.9,0.1c2,0.1,4.1,0.1,6.4,0.1
			c2.4,0,4.6,0,6.7,0.1c2.1,0.1,3.4,0.1,4,0.1c0.4,10.7-0.1,21-1.8,30.8c-1.6,9.8-4.6,18.4-8.9,25.6c-4.3,7.3-10.1,12.8-17.3,16.5
			c-7.2,3.7-16,4.8-26.4,3.1c-4.3,0.3-8-0.7-11.1-3.1c-3.1-2.4-5.7-5.5-7.8-9.5c-2.1-3.9-3.8-8.3-5-13.2c-1.3-4.8-2.2-9.6-2.9-14.4
			c-0.7-4.8-1.1-9.1-1.3-13.2c-0.2-4-0.4-7.1-0.6-9.4C183.2,500.4,184,500,184.9,499.8z"/>
		<path class="st4" d="M369.7,545.1c-1.6,3.6-3.3,6.9-5,9.9c-1.7,3-3.8,5.7-6.4,7.9c-2.5,2.2-5.7,4-9.5,5.2
			c-3.8,1.3-8.6,1.9-14.4,1.9h-0.7c-1.2,0-2.3,0-3.5-0.1c-1.1-0.1-2.2-0.4-3.1-1c-1-0.6-1.9-1.5-2.9-2.8c-1-1.3-1.9-3.1-2.8-5.5
			c-0.4-1.2-1-3.1-1.8-5.8c-0.7-2.7-1.6-5.6-2.7-8.9c-2.7,8.8-5.4,14.6-8.1,17.6c-2.8,3-6.3,4.5-10.6,4.5c-1.6,0-3-0.1-4.2-0.4
			c-1.2-0.3-2.5-0.6-3.8-0.9c-0.7-0.1-1.5-0.3-2.2-0.6c-0.7-0.2-1.7-0.4-3-0.7c-1.3-0.2-2.8-0.4-4.7-0.7c-1.9-0.2-4.3-0.5-7.2-0.8
			c0-0.6,0.8-3.2,2.3-7.8c1.6-4.6,3.6-10.2,6-16.8c2.5-6.6,5.1-13.6,8-21.1c2.9-7.4,5.6-14.3,8.1-20.7c2.5-6.4,4.7-11.7,6.5-15.9
			c1.8-4.2,2.9-6.4,3.3-6.4h-0.9l26.5-3.1l13.8,40.6c1-3.6,2.4-7.7,4-12.5c1.6-4.8,3.3-9.3,4.9-13.6c0.9-2.5,1.7-4.9,2.5-7
			c0.7-2.2,1.4-4,2-5.5c0.1-0.3,0.3-0.7,0.6-1.1c0.2-0.4,0.4-0.7,0.6-0.9c0.9-1.9,2-3.7,3.2-5.2c1.3-1.6,3.3-2.3,6.1-2.3h27.9
			c0,1.8,0,4,0.1,6.7c0.1,2.7,0.1,5.5,0.2,8.4c0.1,2.9,0.1,5.8,0.2,8.6c0.1,2.8,0.1,5.2,0.1,7.1c0,5.4,0.2,10.9,0.7,16.6
			c0.4,5.7,1.3,11.3,2.7,16.8c1.3,5.5,3.2,10.8,5.7,15.9c2.5,5.1,5.7,9.9,9.7,14.4c-1,5.8-3,9.5-5.9,11.2c-2.9,1.6-5.8,2.5-8.6,2.5
			c-0.6,0-1.2,0-1.7-0.1c-0.5-0.1-0.9-0.1-1.2-0.1H400c-6.8,0-12.2-0.6-16.1-1.8c-3.9-1.2-6.8-2.8-8.7-4.9c-1.9-2.1-3.2-4.5-3.8-7.4
			c-0.6-2.8-1-5.8-1.3-8.9L369.7,545.1z M370.6,537.7c0.3,1.5,0.7,3,1.1,4.5c0.4,1.2,0.7,2.4,0.9,3.7c0.1,1.3,0.3,2.5,0.4,3.7
			c0.3,2.8,0.7,5.5,1.2,7.9c0.5,2.5,1.6,4.6,3.3,6.5c1.7,1.9,4.3,3.3,7.8,4.3c3.5,1,8.4,1.6,14.6,1.6h0.7c0.3,0,0.7,0,1.2,0.1
			c0.5,0.1,1.1,0.1,1.7,0.1c1.2,0,2.4-0.1,3.6-0.3c1.2-0.2,2.3-0.7,3.5-1.3c1.1-0.7,2.1-1.7,2.9-3c0.8-1.3,1.4-3,1.9-5.1
			c-4-4.5-7.3-9.3-9.8-14.5c-2.5-5.2-4.5-10.6-5.8-16.2c-1.3-5.6-2.2-11.3-2.7-17.1s-0.7-11.5-0.7-17.2c0-1.9,0-4.2-0.1-6.8
			c-0.1-2.6-0.1-5.2-0.1-7.7c0-2.5,0-5-0.1-7.4c-0.1-2.4-0.1-4.5-0.1-6.2h-25.2c-2.1,0-3.6,0.6-4.6,1.9c-1,1.3-1.8,2.6-2.6,4.1
			c-0.1,0.3-0.3,0.6-0.3,0.9c-0.1,0.3-0.2,0.6-0.3,0.9c-0.7,1.5-1.4,3.3-2.1,5.4c-0.7,2.1-1.4,4.4-2.3,6.9c-1,3.1-2.2,6.4-3.3,9.8
			c-1.2,3.4-2.3,6.7-3.5,9.7c-1.1,3-2.1,5.8-3,8.3s-1.6,4.3-2,5.7l-15.8-45.7l-24.1,2.9h0.7c-0.3,0-1.3,2-3,5.9
			c-1.7,3.9-3.7,8.9-6,14.9c-2.3,6-4.8,12.6-7.5,19.7c-2.7,7.1-5.1,13.8-7.2,20c-2.2,6.2-4,11.4-5.5,15.8c-1.5,4.4-2.2,6.9-2.2,7.5
			c5.2,0.4,8.7,0.9,10.5,1.2c1.8,0.4,3.3,0.7,4.5,1c1.3,0.3,2.6,0.6,3.8,0.9c1.2,0.3,2.4,0.4,3.6,0.4c2.1,0,3.9-0.4,5.6-1.2
			c1.6-0.8,3.2-2.3,4.6-4.5c1.4-2.2,2.8-5.1,4.1-8.8c1.3-3.7,2.8-8.5,4.5-14.5c0.7,2.4,1.5,4.8,2.2,7.2c0.7,2.5,1.4,4.8,2.1,7
			c0.7,2.2,1.2,4.2,1.7,6c0.4,1.8,0.8,3.1,1.1,4c1.3,3.4,2.8,5.4,4.5,5.9c1.6,0.5,3.3,0.8,5.1,0.8h0.7c5.8,0,10.6-0.7,14.3-2
			c3.7-1.3,6.8-3.2,9.3-5.7c2.5-2.5,4.5-5.4,6-8.7c1.6-3.3,3.2-6.9,4.8-10.8c0.3-0.6,0.5-1.2,0.7-1.8c0.1-0.6,0.4-1.3,0.7-2l0.7,2
			L370.6,537.7z M363.2,538.2c-1.6,4.6-3.5,8.7-5.7,12.2c-2.2,3.5-4.9,6.3-8.4,8.4c-3.4,2.1-8.3,3.1-14.7,3.1
			c-0.9,0-1.7-0.1-2.6-0.2c-0.8-0.1-1.4-0.8-1.7-2c-0.4-1.3-1.2-3.8-2.2-7.4c-1-3.6-2.2-7.3-3.3-11.3c-1.2-3.9-2.3-7.7-3.5-11.2
			c-1.1-3.5-1.9-5.9-2.3-7.2c-0.3-1.2-0.6-2-1-2.3c-0.4-0.4-1.2-1-2.3-1.9c-2.1,9.2-3.9,16.6-5.5,22.1c-1.6,5.5-3,9.7-4.3,12.6
			c-1.3,2.9-2.7,4.8-4,5.6c-1.3,0.8-2.9,1.1-4.7,0.9c-1.8-0.2-3.9-0.7-6.4-1.5c-2.5-0.7-5.4-1.3-8.8-1.6c0-0.4,0.6-2.6,1.8-6.5
			c1.2-3.9,2.7-8.5,4.5-13.8c1.8-5.4,3.8-11.1,5.9-17.3c2.2-6.2,4.2-11.9,6-17.2c1.9-5.3,3.5-9.6,4.9-13c1.4-3.4,2.3-5.1,2.6-5.1
			l19.6-2.2l15.4,44.8c0.1,0.3,0.5,0.7,1,1.1c0.5,0.4,1,0.7,1.4,0.9c0.4,0.2,0.7,0.2,0.9,0.2c1.5,0,3.3-2.1,5.4-6.2
			c2.1-4.2,4.2-9.1,6.2-14.7c2.1-5.6,4.1-11.3,6.1-17.1c2-5.7,3.6-10.1,4.8-13.3c0.4-0.7,0.9-1.6,1.4-2.7c0.5-1,0.9-1.6,1-1.6h19.4
			c0.1,3.4,0.3,7,0.3,10.8c0.1,3.8,0.1,7.7,0.1,11.7c0,5.8,0.2,11.7,0.7,17.7c0.4,6,1.3,11.9,2.6,17.7c1.3,5.8,3.1,11.3,5.6,16.6
			c2.5,5.3,5.7,10.1,9.7,14.4c-0.1,0.9-0.7,1.5-1.6,1.9c-0.9,0.4-1.9,0.6-2.9,0.7c-1,0.1-2,0.1-3,0c-1-0.1-1.5-0.1-1.7-0.1
			c-6.4,0-11-0.7-13.8-2c-2.8-1.3-4.7-3.1-5.7-5.4c-1-2.2-1.5-4.8-1.6-7.6c-0.1-2.8-0.6-5.7-1.4-8.7c-0.6-1.9-1-3.6-1.3-4.9
			c-0.3-1.3-0.7-2.6-1.2-3.9c-0.5-1.3-1.2-2.5-1.9-3.8c-0.7-1.3-1.9-2.7-3.3-4.3C367,528.7,364.8,533.6,363.2,538.2z M310.6,525
			c-0.3-0.3-0.4-0.7-0.4-1.3L310.6,525z"/>
		<path class="st4" d="M436,519c0.1-1.2,0.2-2.4,0.3-3.6c0.1-1.6,0.2-3.3,0.2-4.9c0-1.6,0-3.4,0-5.4c0-3.4-1.5-7.8-4.6-13.2
			c-3-5.4-8.1-10.8-15.1-16.5c5.2-0.4,10.8-0.9,16.7-1.2c5.9-0.4,11.9-0.7,17.8-1.1c5.9-0.4,11.7-0.7,17.2-0.9
			c5.5-0.2,10.5-0.3,14.9-0.3h13.8c3.7,1,6.6,2.2,8.7,3.6c2.1,1.3,3.6,2.8,4.6,4.3c1,1.6,1.6,3.2,1.8,4.9c0.2,1.7,0.3,3.5,0.3,5.5
			v0.7c0,4.5-0.7,8.4-2.2,11.8c-1.5,3.4-3.6,6.5-6.5,9.1c5.1,2.2,9.1,5.2,12.3,9s4.7,8.6,4.7,14.4c0,7.1-1.7,12.8-5.1,16.9
			c-3.4,4.2-7.8,7.4-13.3,9.7c-5.4,2.3-11.5,3.9-18.2,4.9c-6.7,1-13.4,1.8-20.1,2.3c-2.1,0.3-4,0.5-5.8,0.6c-1.8,0.1-3.8,0.3-6,0.7
			c-2.2,0.4-4.9,0.9-7.9,1.4c-3,0.6-6.9,1.6-11.5,2.9v-12.5c0-7.3,0.4-14.3,1.3-21c0.3-3.4,0.6-6.7,0.9-9.9c0.3-3.2,0.4-6.3,0.4-9.3
			C435.9,521.2,435.9,520.2,436,519z M438,531.7c-0.4,3.3-0.7,6.6-1,10c-0.3,3.4-0.6,6.8-0.9,10.1c-0.3,3.3-0.4,6.8-0.4,10.4v9.1
			c3.7-1,6.9-1.9,9.6-2.5c2.7-0.6,5.1-1,7.1-1.3c2.1-0.3,4-0.5,5.9-0.6c1.9-0.1,3.8-0.3,5.9-0.6c6.4-0.6,12.8-1.3,19.2-2.2
			c6.4-0.9,12.2-2.4,17.4-4.6c5.2-2.2,9.4-5.1,12.7-8.9c3.3-3.8,4.9-9,4.9-15.5c0-5.8-1.7-10.5-5.2-14c-3.5-3.6-8.1-6.3-13.7-8.3
			c3.4-2.8,6.1-6,7.9-9.5c1.9-3.5,2.8-7.7,2.8-12.6v-0.7c0-1.6-0.1-3.2-0.2-4.7c-0.2-1.5-0.6-2.9-1.5-4.2c-0.8-1.3-2.1-2.6-3.8-3.7
			c-1.7-1.1-4.2-2.1-7.5-3h-13.6c-8.9,0-18.5,0.3-28.9,0.9c-10.3,0.6-20.7,1.3-31.1,2c5.5,4.5,9.5,9.3,11.9,14.4s3.7,9.6,3.7,13.3
			c0,1.9,0,3.8-0.1,5.5c-0.1,1.7-0.2,3.4-0.3,5c-0.1,1.2-0.2,2.4-0.2,3.6c0,1,0,2,0,2.9C438.6,525.2,438.4,528.4,438,531.7z
			 M444.4,514.6c0.3-3,0.4-6.2,0.4-9.5c0-4.3-0.5-8.7-1.6-13.2c-1-4.5-2.8-7.7-5.4-9.8c5.2-0.4,9.7-0.8,13.4-1
			c3.7-0.2,7.2-0.4,10.6-0.6c3.3-0.1,6.7-0.3,10-0.3c3.3-0.1,7.2-0.1,11.7-0.1h12.9c4,1.2,6.4,2.6,7.1,4.3c0.7,1.7,1.1,3.6,1.1,5.7
			v0.7c0,5.4-1.5,9.8-4.6,13.3c-3,3.5-7.3,6.7-12.8,9.7v2c3.6,0.4,6.9,1.2,9.9,2.2c3,1,5.8,2.3,8.1,3.9c2.4,1.6,4.2,3.4,5.6,5.6
			c1.3,2.2,2,4.7,2,7.7c0,4.6-1.3,8.4-3.8,11.4c-2.5,3-5.8,5.4-9.8,7.2c-4,1.9-8.6,3.2-13.7,4.1c-5.1,0.9-10.4,1.6-15.7,2.1
			c-5.4,0.5-10.6,1-15.6,1.6c-5.1,0.5-9.4,1.3-13.2,2.3v-1.8c0-6.7,0.4-13.3,1.3-20c0.9-6.6,1.3-13.3,1.3-20.2
			C443.9,520.2,444.1,517.7,444.4,514.6z M462.5,498.1c-0.1,0.8-0.1,1.4-0.1,1.7c0,1.2,0.3,2.3,1,3.2c0.7,1,1,3,1,6.1
			c4.8,0,8.6-1.1,11.6-3.3c3-2.2,4.5-5,4.5-8.3c0-1.6-0.5-2.7-1.6-3.1c-1-0.4-2.4-0.7-4-0.7c-1.5,0-2.5,0.1-2.9,0.3
			c-0.4,0.2-1.6,0.3-3.3,0.3l-5.1,0.7C463,496.3,462.6,497.3,462.5,498.1z M463.3,531.6c-0.4,1.4-0.7,2.9-0.7,4.3c0,3.9,0.7,6,2,6.5
			c1.9,0.4,3.9,0.7,6,0.7c1.9,0,3.9-0.2,6-0.6c2.1-0.4,3.9-1,5.6-1.8c1.6-0.8,3-1.8,4-2.9c1-1.1,1.6-2.3,1.6-3.7l-0.2-1.1
			c-0.7-3-1.6-4.8-2.7-5.5c-1-0.7-2.7-1-4.9-1c-1.3,0-2.9,0-4.8-0.1c-1.9-0.1-4.1,0.1-6.6,0.6l-4.2,0.9
			C464.1,528.9,463.8,530.2,463.3,531.6z M466.5,537.3c-0.2,0-0.3,0-0.3-0.1c-0.1-0.1-0.2-0.1-0.3-0.1L466.5,537.3z M469.8,532.4
			v0.2c1.9-0.4,3.4-0.7,4.5-0.7c0.7,0,1.4,0,2,0.1c0.6,0.1,1.2,0.1,1.8,0.1h2c0.7,0,1.2,0.1,1.5,0.3c0.2,0.2,0.5,0.9,0.8,1.9
			l-0.2-0.2v0.7c-0.3,0.7-1.6,1.4-4,1.9c-2.4,0.5-4.8,0.8-7.4,0.8h-3.1c0.4-0.1,0.7-0.7,0.7-1.6c0-0.6,0.1-1.6,0.4-3.1L469.8,532.4z
			 M469.1,500c1.2,0,2.1,0,2.7-0.1c0.6-0.1,1.2-0.2,1.8-0.3c0.1,0,0.3,0,0.3-0.1c0.1-0.1,0.3-0.1,0.6-0.1c-0.6,1.5-2.3,2.8-5.1,3.8
			c-0.3-0.6-0.5-1.2-0.6-1.7c-0.1-0.5-0.3-0.9-0.6-1.2L469.1,500z M472.8,534.7c-0.5,0.1-1,0.1-1.4,0.1h4.7
			c-0.3-0.1-0.9-0.2-1.8-0.2C473.8,534.6,473.3,534.6,472.8,534.7z M479.8,535c0-0.1,0.1-0.2,0.2-0.2h-0.2V535z"/>
		<path class="st4" d="M595.1,511.5c-2.8-1-5.5-1.8-8-2.6c-0.6,3.6-1,6.5-1.3,8.8c-0.3,2.3-0.5,4.1-0.7,5.5
			c-0.2,1.3-0.2,2.4-0.2,3.1c0,0.6,0,1.1,0,1.6v8.7l17.4,2.7l-2.2,27.2v0.2c0,0.2,0.2,0.8,0.7,2c0.4,1.2,1.3,3.8,2.5,7.8
			c-4.3,0-7.7-0.1-10.1-0.2c-2.5-0.1-4.3-0.3-5.7-0.6c-1.3-0.2-2.3-0.4-3-0.7c-0.7-0.2-1.4-0.5-2.1-0.8c-1-0.3-2-0.6-2.9-0.8
			c-0.9-0.2-1.7-0.4-2.5-0.6c-7.4-1.2-14.6-3.2-21.5-5.9c-6.9-2.7-13-6.5-18.2-11.3c-5.2-4.8-9.4-10.7-12.5-18
			c-3.1-7.2-4.7-15.9-4.7-26.2c0-7.3,1-13.5,3-18.7c2-5.2,4.8-9.5,8.4-12.8c3.6-3.3,7.8-5.8,12.8-7.4c5-1.6,10.4-2.3,16.4-2.3
			c3.9,0,7.1,0.1,9.8,0.3c2.7,0.2,5.4,0.5,8,0.8c2.5,0.4,5.6,0.8,9.1,1c3.6,0.2,8.5,0.3,14.9,0.3v16.5c0,1.2,0,2.1-0.1,2.8
			c-0.1,0.7-0.2,1.4-0.3,2.1c0,0.4,0,0.8-0.1,1c-0.1,0.2-0.1,0.9-0.2,1.9c-0.1,1-0.1,2.8-0.1,5.4c0,2.5,0,6.3,0,11.4
			C600.1,513.3,597.9,512.5,595.1,511.5z M599,501.6c0.1-1.9,0.1-3.4,0.2-4.3c0.1-1,0.1-1.6,0.2-2c0.1-0.4,0.1-0.8,0.1-1.2
			c0.1-0.7,0.3-1.4,0.3-2.1c0.1-0.7,0.1-1.5,0.1-2.6v-13.8c-5.5,0-9.9-0.1-13.3-0.3c-3.3-0.2-6.3-0.6-8.8-1
			c-2.5-0.3-5.1-0.6-7.8-0.9c-2.7-0.3-5.9-0.4-9.6-0.4c-11.3,0-20.5,3.1-27.5,9.3c-7.1,6.2-10.6,16-10.6,29.5
			c0,9.8,1.5,18.2,4.5,25.1c3,6.9,7,12.7,12,17.3c5.1,4.6,10.9,8.2,17.5,10.8c6.6,2.6,13.6,4.5,20.9,5.7c1.2,0.3,2.2,0.6,3.1,0.8
			c0.9,0.2,1.7,0.4,2.5,0.6c0.7,0.3,1.4,0.6,2,0.8c0.6,0.2,1.4,0.4,2.6,0.7c1.1,0.2,2.6,0.4,4.6,0.4c1.9,0.1,4.5,0.1,7.6,0.1
			l-2.2-6.9v-0.7l2.2-24.8l-21.9-3.6c-1.6-0.6-3.1-1.1-4.3-1.6c-1.3-0.4-2.4-0.8-3.5-1.1l12.3,0.9v-8.3c0-0.4,0-1,0-1.8
			c0-0.9,0.1-2.2,0.3-3.8c0.2-1.6,0.5-3.8,0.9-6.5c0.4-2.7,0.9-6.2,1.7-10.5c1.9,0.7,4.3,1.6,7.1,2.5c2.8,0.9,5.1,1.6,6.7,2.2
			C598.9,506.4,598.9,503.5,599,501.6z M560.3,496.5c-1.5,0.2-2.5,0.6-3.1,1.3c-0.6,0.7-1,1.9-1.1,3.6c-0.2,1.6-0.3,3.9-0.4,6.7
			c2.2,0.1,4.2,0.3,5.8,0.6c1.6,0.2,3.2,0.4,4.8,0.7c1.6,0.2,3.2,0.4,4.8,0.6c1.6,0.2,3.5,0.2,5.6,0.2h2.2
			c-1.2,6.1-1.8,10.4-1.9,12.9c-0.1,2.5-0.1,4.3-0.1,5.4v1.6l-20.7-1.6c0.9,2.1,1.8,3.8,2.8,5.2c1,1.4,2.2,2.7,3.6,3.8
			c1.4,1.1,3.2,2.2,5.5,3.1c2.2,1,5.1,2,8.7,3l16.9,2.9l-1.6,19.2c0,0.2,0.1,1,0.2,2.5c-2.5,0-4.9-0.4-7-1.3c-2.2-0.9-4.5-1.5-7-1.8
			c-6.7-1-13-2.8-19.1-5.2c-6-2.5-11.4-5.8-16.1-9.9c-4.7-4.2-8.4-9.4-11.1-15.6c-2.8-6.2-4.1-13.8-4.1-22.5c0-11.6,3-20,9.1-25.2
			c6.1-5.2,14-7.8,23.6-7.8c3.3,0,6.3,0.2,9,0.4c2.7,0.3,5.4,0.6,7.9,0.9c2.5,0.3,5.1,0.6,7.8,0.9c2.7,0.3,5.7,0.4,9.1,0.4v8
			c0,1.3-0.1,3-0.4,5c-0.3,2-0.4,4.7-0.4,8.1c-4.3-1.5-7.4-2.6-9.1-3.5c-1.8-0.8-3.1-1.2-4-1.2c-0.6,0-1-0.1-1.1-0.2l-12-1.3
			C564.1,496.2,561.8,496.3,560.3,496.5z M577.9,503.2c0.4,0.1,1.2,0.2,2.2,0.2c-0.2,0.2,0,0.3,0.6,0.4c0.5,0.1,1.1,0.3,1.7,0.4
			c0.1,0.1,0.3,0.2,0.4,0.2h-6.2c-2.1,0-4-0.1-5.7-0.2c-1.7-0.1-3.4-0.4-5-0.7c-0.7-0.1-1.4-0.3-2.1-0.3c-0.7-0.1-1.4-0.2-2.3-0.3
			c0.3-0.7,2.1-1.1,5.4-1.1L577.9,503.2z"/>
		<path class="st4" d="M669.4,572.5c-5.7,0-10-1.7-12.9-5c-3-3.3-5.4-7.2-7.4-11.7c-1.3,1.8-3.2,3.5-5.5,5.1
			c-2.3,1.6-4.6,3.1-6.9,4.3c-2.3,1.3-4.5,2.3-6.5,3.2s-3.4,1.4-4.1,1.6h-3.8c-0.7-0.1-1.6-0.6-2.6-1.2c-1-0.7-1.9-1.5-2.8-2.3
			c-0.9-0.9-1.7-1.8-2.3-2.8c-0.7-1-1.1-1.7-1.2-2.3v-2.7c0-4.6,0.2-9.1,0.7-13.4c0.4-4.3,1-8.6,1.6-12.9v0.2
			c0.4-4.5,0.9-8.9,1.3-13.4c0.4-4.5,0.7-8.7,0.7-12.7c0-1.8-0.1-3.5-0.4-5.2c-0.3-1.7-1-3.7-2-5.9c-1-2.2-2.6-4.9-4.7-7.9
			c-2.1-3-4.9-6.7-8.5-11c2.4,0,5.9-0.1,10.6-0.2c4.7-0.1,9.4-0.3,14.3-0.6c4.8-0.2,9.2-0.4,13.2-0.7c3.9-0.2,6.4-0.4,7.5-0.6
			c0.3,0,1.1-0.1,2.3-0.2c1.3-0.1,2.5-0.3,3.7-0.4c2.1-0.3,5.4-0.8,9.8-1.6c8.3,1.5,14.1,4.1,17.4,7.9c3.3,3.8,4.9,9.3,4.9,16.4
			c0,5.1-1.1,9.4-3.2,13c-2.2,3.6-4.3,6.9-6.6,9.7c-0.7,0.9-1.6,2-2.7,3.3c0,1.8,0.9,3.9,2.6,6.5c1.7,2.5,3.9,5.1,6.6,7.7
			c2.7,2.6,5.6,4.9,8.8,6.9c3.2,2,6.3,3.3,9.3,3.9c-1.2,2.1-3.2,4.5-6,7.4c-2.8,2.8-5.9,5.5-9.1,8.1c-3.3,2.6-6.4,4.8-9.4,6.7
			C672.9,571.6,670.7,572.5,669.4,572.5z M650,551.3c1,2.4,2.1,4.7,3.2,6.9c1.1,2.2,2.4,4.2,3.9,5.9c1.5,1.7,3.2,3.1,5.2,4.1
			c2,1,4.3,1.6,7,1.6c1.2,0,3.1-0.8,5.7-2.3c2.6-1.6,5.3-3.4,8.1-5.6c2.8-2.2,5.5-4.4,8-6.7c2.5-2.3,4.2-4.3,5.1-5.9
			c-2.7-0.6-5.5-2-8.6-4.1c-3-2.2-5.9-4.6-8.5-7.4c-2.6-2.8-4.7-5.5-6.4-8.4c-1.6-2.8-2.5-5.2-2.5-7.1c0-0.3,0.3-0.9,1-1.7
			c0.7-0.8,1.5-1.8,2.3-3c2.1-2.7,4.2-5.7,6.2-9.1c2.1-3.4,3.1-7.4,3.1-12c0-6.4-1.4-11.3-4.2-14.7c-2.8-3.4-7.9-5.7-15.2-6.9
			c-4.8,0.4-8,0.8-9.8,1.1c-1.5,0.3-2.8,0.6-4,0.8c-1.2,0.2-1.9,0.3-2.2,0.3c-1,0.1-3.3,0.3-6.9,0.6c-3.6,0.2-7.5,0.4-11.8,0.7
			c-4.3,0.2-8.5,0.4-12.6,0.6c-4.1,0.1-7.1,0.2-9,0.2c3,3.6,5.3,6.6,7,9.1c1.7,2.5,3,4.8,3.9,6.9c0.9,2.1,1.5,4,1.7,5.8
			c0.2,1.8,0.3,3.6,0.3,5.6c0,4.2-0.2,8.5-0.7,12.9c-0.4,4.5-1,8.9-1.6,13.4c-0.6,4.3-1.1,8.6-1.6,12.9c-0.4,4.3-0.7,8.6-0.7,12.9
			v1.6c0.3,1,1.3,2.4,2.9,4.1c1.6,1.7,3,2.7,4.2,3h2.7c0.9-0.1,2.6-0.8,5.1-1.9c2.5-1.1,5.1-2.5,7.8-4c2.7-1.6,5-3.3,7-5.1
			c2-1.9,3-3.6,3-5.2v-2.2c0.3,0.4,0.5,0.9,0.7,1.3C649.5,550.7,649.7,551,650,551.3z M643.3,534.2v16.9c0,1-0.8,2.2-2.3,3.3
			c-1.6,1.2-3.4,2.3-5.5,3.3c-2.1,1-4.1,1.9-6,2.7c-1.9,0.7-3.3,1.2-4,1.3h-0.9h-1.1c-0.3-0.1-0.7-0.4-1.2-0.9
			c-0.5-0.4-0.8-0.8-0.8-1.1v-1.1c0-8.3,0.7-16.9,2.1-25.6c1.4-8.8,2.1-17.6,2.1-26.5c0-4.5-0.3-8.4-0.9-11.7
			c-0.6-3.3-2.4-6.7-5.4-10.1c1,0,2.9-0.1,5.7-0.2c2.7-0.1,5.7-0.3,8.8-0.6c3.1-0.2,6.1-0.4,8.8-0.7c2.7-0.2,4.6-0.4,5.7-0.6
			c0.3,0,1.1-0.1,2.6-0.3c1.4-0.2,2.9-0.5,4.6-0.8c1.6-0.3,3.2-0.6,4.6-0.8c1.4-0.2,2.3-0.3,2.8-0.3c5.6,1,9.6,2.8,11.7,5.2
			c2.2,2.5,3.2,6.1,3.2,10.8c0,3-0.7,5.8-2,8.4c-1.3,2.6-2.8,4.9-4.3,7c-1.6,2.1-3,4-4.3,5.8c-1.3,1.8-2,3.3-2,4.7
			c0,2.4,0.7,5.2,2.1,8.5c1.4,3.3,3.2,6.5,5.5,9.7c2.2,3.2,4.7,6,7.4,8.4c2.7,2.4,5.3,3.9,7.8,4.5c-0.4,0.9-1.5,2-3.1,3.2
			c-1.6,1.3-3.5,2.5-5.5,3.6s-3.9,2.1-5.8,2.9c-1.9,0.8-3.2,1.2-4.1,1.2c-3.4,0-6.1-1.4-8.1-4.1c-2-2.7-3.9-5.9-5.6-9.4
			c-1.7-3.5-3.5-6.9-5.2-10.1C648.6,537.3,646.3,535.2,643.3,534.2z M646.4,495.3v17.2c0,0.3,0.3,0.7,0.8,1.3
			c0.5,0.6,0.9,0.9,1.2,0.9c1.2,0,2.5-0.4,3.8-1.3s2.5-2,3.5-3.3c1-1.3,1.8-2.7,2.5-4.2c0.7-1.5,0.9-2.8,0.8-4
			c-0.6-2.2-2.3-3.9-5.2-4.9C650.8,495.9,648.3,495.3,646.4,495.3z M653.3,502.5c0,1.5-0.5,2.9-1.6,4.2v-5.1
			c0.3,0.3,0.6,0.5,0.9,0.6C652.9,502.2,653.2,502.3,653.3,502.5z"/>
		<path class="st4" d="M699.7,561.2c0.3-1.1,0.8-2.3,1.6-3.7h0.2c0.7-1.6,1.3-2.6,1.7-2.9c0.4-0.3,1.2-1.2,2.6-2.7l2.7-2.7
			c1.3-1.3,2.6-2.7,3.7-4c1.1-1.3,1.8-2.2,2.1-2.5c0.6-0.9,1.4-2,2.3-3.3c1-1.3,1.9-2.7,2.9-4c1-1.3,1.9-2.6,2.8-3.8
			c0.9-1.2,1.6-2.2,2.2-2.9c-2.5-1-5.1-2.3-7.7-3.8c-2.6-1.5-4.9-3.3-7-5.4c-2.1-2.1-3.8-4.6-5.1-7.5c-1.3-2.9-2-6.3-2-10.1
			c0-0.6,0.1-1.4,0.2-2.5c0.1-1,0.4-2.1,0.7-3.1c0.3-1,0.6-2,0.9-2.9c0.3-0.9,0.6-1.6,0.9-2l-1.1,1.6c0.4-0.7,0.8-1.3,1.1-1.6v-0.2
			c0.1,0,0.2-0.1,0.2-0.2c0.6-0.9,1.4-1.9,2.3-3c1-1.1,1.9-2.2,2.9-3.3c1-1.1,1.9-2.1,2.8-3c0.9-0.9,1.6-1.6,2.2-2
			c1.5-1.5,3.7-3.1,6.6-4.8c2.9-1.7,5.8-3.3,8.7-4.7c2.9-1.4,5.5-2.5,7.9-3.3c2.4-0.8,3.9-1.1,4.5-0.8l15.6,17.2
			c0.7,1.6,1.2,2.7,1.3,3.2c0.1,0.5,0.2,1.4,0.2,2.8c0,2.5-0.9,4.8-2.6,6.7c-1.7,1.9-3.8,3.7-6.4,5.4l11.6,6.2
			c0.3,0.3,0.7,0.9,1.1,1.7c0.4,0.8,0.9,1.7,1.4,2.8c0.5,1,1,2,1.4,3c0.4,1,0.8,1.7,1.1,2.3v2.5c0,1.3-0.9,3.7-2.6,7
			c-1.7,3.3-3.9,7.1-6.6,11.4c-2.7,4.2-5.7,8.7-8.9,13.4c-3.3,4.7-6.5,8.9-9.6,12.7c-3.1,3.8-5.9,7-8.4,9.5
			c-2.5,2.5-4.3,3.8-5.5,3.8c-1.3,0-3.5-0.3-6.6-1c-3-0.7-6.1-1.6-9.3-2.8c-3.1-1.2-5.9-2.6-8.3-4.1c-2.4-1.6-3.6-3.2-3.6-5
			C699.3,563.5,699.4,562.4,699.7,561.2z M704.9,568.6c2.2,1.3,4.6,2.4,7.5,3.3c2.8,1,5.6,1.7,8.5,2.2c2.8,0.5,4.8,0.8,6,0.8
			c1,0,2.8-1.2,5.1-3.6c2.4-2.4,5-5.4,7.9-9c2.9-3.6,5.9-7.7,8.9-12.2c3-4.5,5.8-8.7,8.4-12.8c2.5-4.1,4.6-7.7,6.2-10.9
			c1.6-3.2,2.5-5.4,2.5-6.6v-2.2c-0.3-1-1-2.5-2-4.2c-1-1.8-1.8-3-2.2-3.6l-15.4-8.5c3-1.6,5.7-3.4,8.1-5.4c2.5-1.9,3.7-4.2,3.7-6.7
			c0-1,0-1.7-0.1-2c-0.1-0.3-0.4-1-1-2.2l-15.2-16.9c-0.4-0.1-1.7,0.2-3.8,1c-2.1,0.8-4.4,1.9-7,3.3c-2.6,1.4-5.2,2.9-7.7,4.6
			c-2.5,1.6-4.5,3.1-6,4.5c-0.7,0.7-1.7,1.7-2.8,3c-1.1,1.3-2.3,2.6-3.5,3.9c-1.2,1.3-2.3,2.6-3.2,3.7c-1,1.1-1.5,1.9-1.7,2.3
			l0.7-1.1c-0.3,0.7-0.7,2.1-1.1,4.1s-0.7,3.5-0.7,4.6c0,3.6,0.7,6.7,2.1,9.4c1.4,2.7,3.2,5,5.5,6.9c2.2,1.9,4.6,3.6,7.2,5
			c2.6,1.4,5.2,2.6,7.7,3.7v0.7c-1.6,2.7-3,4.9-4.2,6.6c-1.2,1.7-2.4,3.5-3.7,5.4c-1.3,1.9-2.3,3.4-3.2,4.6c-0.3,0.3-1,1.2-2.2,2.6
			c-1.2,1.4-2.5,2.9-4,4.3c-0.6,0.7-1.1,1.3-1.6,1.7c-0.4,0.4-0.9,0.8-1.3,1.2c-1.3,1.5-2.2,2.4-2.5,2.7c-0.3,0.3-0.8,1-1.6,2.2
			l0.7-0.4c-0.3,0.2-0.5,0.4-0.7,0.9c-0.7,1-1.2,1.9-1.3,2.7c-0.1,0.7-0.2,1.6-0.2,2.7C701.7,566,702.8,567.3,704.9,568.6z
			 M707.5,562.7c0.7-1.3,1.2-2.2,1.3-2.5c0.1-0.3,0.9-1,2.2-2.2c0.9-0.9,1.9-1.9,2.9-3c1-1.1,2-2.2,2.9-3.2c0.9-1,1.7-2,2.5-2.9
			c0.7-0.9,1.2-1.5,1.3-1.8c0.9-1.2,2-2.8,3.5-4.9c1.4-2.1,2.7-4.2,4-6.2c1.3-2.1,2.3-3.9,3.2-5.5c0.9-1.6,1.3-2.5,1.3-2.8v-4.5
			c-2.1-0.9-4.4-1.9-7-3c-2.6-1.1-5-2.5-7.2-4.2c-2.2-1.7-4.1-3.7-5.7-5.9c-1.6-2.2-2.3-4.9-2.3-8c0-0.7,0-1.7,0.1-3
			c0.1-1.3,0.2-2,0.3-2.1c0.1-0.3,0.6-0.9,1.4-1.9c0.8-1,1.7-2,2.8-3.1c1-1.1,2.1-2.2,3.1-3.3c1-1.1,1.9-2,2.5-2.6
			c1.3-1,3-2.3,4.9-3.9c1.9-1.6,3.9-3,5.8-4.5c1.9-1.4,3.6-2.6,5-3.5c1.4-0.9,2.2-1.3,2.3-1.3l14,15.4v1.1c0,0.9-0.8,1.9-2.5,3.1
			c-1.6,1.2-3.5,2.4-5.6,3.6c-2.1,1.2-4.1,2.3-6,3.2c-1.9,1-3.3,1.7-4,2.1l24.1,13.2c0.1,0.1,0.4,0.7,0.9,1.8c0.4,1,0.8,1.9,1.1,2.5
			v1.1c0,1-0.7,3-2.1,5.9c-1.4,2.9-3.2,6.2-5.5,9.8c-2.2,3.6-4.7,7.4-7.4,11.4c-2.7,3.9-5.2,7.5-7.7,10.8c-2.5,3.3-4.7,6-6.8,8.1
			c-2.1,2.2-3.6,3.2-4.5,3.2c-1,0-2.7-0.1-4.9-0.3c-2.2-0.2-4.5-0.6-6.7-1c-2.2-0.4-4.2-0.9-5.9-1.4c-1.7-0.5-2.6-1.1-2.6-1.7
			C706.8,564.3,707.1,563.6,707.5,562.7z"/>
	</g>
	<rect x="33.4" y="12.5" class="st5" width="55.8" height="15.6"/>
	<g>
		<rect x="168.8" y="26.8" class="st5" width="55.8" height="15.6"/>
		
			<rect x="168.8" y="27.4" transform="matrix(6.123234e-17 -1 1 6.123234e-17 161.5705 231.9034)" class="st5" width="55.8" height="15.6"/>
	</g>
	<g>
		<rect x="757.3" y="114.2" class="st5" width="55.8" height="15.6"/>
		
			<rect x="757.3" y="114.7" transform="matrix(6.123234e-17 -1 1 6.123234e-17 662.6803 907.7748)" class="st5" width="55.8" height="15.6"/>
	</g>
	<g>
		<rect x="608.1" y="80.1" class="st6" width="55.8" height="15.6"/>
		
			<rect x="608.1" y="80.7" transform="matrix(6.123234e-17 -1 1 6.123234e-17 547.5624 724.5027)" class="st6" width="55.8" height="15.6"/>
	</g>
	<g>
		<rect x="757.3" y="275.2" class="st5" width="55.8" height="15.6"/>
		
			<rect x="757.3" y="275.8" transform="matrix(6.123234e-17 -1 1 6.123234e-17 501.599 1068.8561)" class="st5" width="55.8" height="15.6"/>
	</g>
	<g>
		<rect x="386.1" y="43.4" class="st6" width="55.8" height="15.6"/>
		
			<rect x="386.1" y="43.9" transform="matrix(6.123234e-17 -1 1 6.123234e-17 362.221 465.7022)" class="st6" width="55.8" height="15.6"/>
	</g>
	<rect x="771.9" y="28.3" class="st5" width="55.8" height="15.6"/>
	<rect x="757.3" y="171.4" class="st5" width="55.8" height="15.6"/>
	<rect x="711.9" y="275.2" class="st5" width="55.8" height="15.6"/>
	<circle class="st7" cx="225.8" cy="296.2" r="171.1"/>
	<path class="st8" d="M228.4,289.5L228.4,289.5L98.3,418.8l-32.6-17l107.9-107.2C185.8,282.4,210.4,280.1,228.4,289.5z"/>
	<path class="st8" d="M487.8,280.2L487.8,280.2L365.5,407.9l-30.8-14.9l101.3-105.8C447.6,275.2,470.8,272,487.8,280.2z"/>
	<path class="st9" d="M92.4,171c-4.8-16.8,36.9-43.4,93.3-59.5"/>
	<path class="st9" d="M346.8,154.2c2.5-16.2-39.3-36.2-93.5-44.7"/>
	<polygon class="st9" points="278.4,237.3 259,229 247.7,255.2 221.5,243.9 213.2,263.3 239.4,274.6 228.1,300.8 247.6,309.1 
		258.8,282.9 285,294.2 293.4,274.8 267.1,263.5 	"/>
	<g>
		<path class="st9" d="M355.8,315.9c7.6-28.8,7.3-31.7-17.6-28.3c-6.7,0.9-15.6,21.4-26.2,21.7c-14,0.4-29.3,2.8-44.8,7.3
			c-35,10.2-62.9,28.8-76.2,48.5c20.1,11.5,54.2,13.4,89.9,3C317.3,357.5,345.5,336.9,355.8,315.9z"/>
		<path class="st1" d="M222.8,353.3c12.6,1.5,31.7-0.8,52.4-6.8s56.6-26.4,66.4-34.4c0.4-4.3-3-1.5-11.6,1.5
			c-4.5,1.6-21.2,10.3-27.2,12.4c-9.1,3.1-20.2,3.9-31.4,7.2C251.2,339.2,233.8,346.5,222.8,353.3z"/>
	</g>
	<g>
		<g>
			<circle class="st10" cx="187.2" cy="201.6" r="40.4"/>
			<circle cx="198.8" cy="197.1" r="28.3"/>
			<circle class="st1" cx="207.2" cy="187.7" r="12.8"/>
			<ellipse class="st11" cx="181.6" cy="178" rx="6.3" ry="9.2"/>
		</g>
		<g>
			<circle class="st10" cx="304.9" cy="196.6" r="40.4"/>
			<circle cx="316.4" cy="187.1" r="28.3"/>
			<circle class="st1" cx="326.1" cy="178.3" r="12.8"/>
			<ellipse class="st11" cx="299.5" cy="173" rx="6.3" ry="9.2"/>
		</g>
	</g>
</g>
</svg>
